<svg xmlns="http://www.w3.org/2000/svg" xmlns:xlink="http://www.w3.org/1999/xlink" contentStyleType="text/css" data-diagram-type="ACTIVITY" height="1399px" preserveAspectRatio="none" style="width:1033px;height:1399px;background:#FFFFFF;" version="1.1" viewBox="0 0 1033 1399" width="1033px" zoomAndPan="magnify"><defs/><g><ellipse cx="528.9055" cy="20" fill="#222222" rx="10" ry="10" style="stroke:#222222;stroke-width:1;"/><rect fill="#F1F1F1" height="33.9688" rx="12.5" ry="12.5" style="stroke:#181818;stroke-width:0.5;" width="116.7266" x="470.5422" y="50"/><text fill="#000000" font-family="sans-serif" font-size="12" lengthAdjust="spacing" textLength="96.7266" x="480.5422" y="71.1387">User Opens App</text><polygon fill="#F1F1F1" points="469.8638,103.9688,587.9473,103.9688,599.9473,115.9688,587.9473,127.9688,469.8638,127.9688,457.8638,115.9688,469.8638,103.9688" style="stroke:#181818;stroke-width:0.5;"/><text fill="#000000" font-family="sans-serif" font-size="11" lengthAdjust="spacing" textLength="118.0835" x="469.8638" y="119.7769">Check Authentication</text><text fill="#000000" font-family="sans-serif" font-size="11" lengthAdjust="spacing" textLength="100.5093" x="357.3545" y="113.3745">Not Authenticated</text><text fill="#000000" font-family="sans-serif" font-size="11" lengthAdjust="spacing" textLength="77.7412" x="599.9473" y="113.3745">Authenticated</text><rect fill="#F1F1F1" height="33.9688" rx="12.5" ry="12.5" style="stroke:#181818;stroke-width:0.5;" width="142.7656" x="246.6489" y="137.9688"/><text fill="#000000" font-family="sans-serif" font-size="12" lengthAdjust="spacing" textLength="122.7656" x="256.6489" y="159.1074">Show Login/Register</text><polygon fill="#F1F1F1" points="268.1638,191.9375,367.8997,191.9375,379.8997,203.9375,367.8997,215.9375,268.1638,215.9375,256.1638,203.9375,268.1638,191.9375" style="stroke:#181818;stroke-width:0.5;"/><text fill="#000000" font-family="sans-serif" font-size="11" lengthAdjust="spacing" textLength="99.7358" x="268.1638" y="207.7456">Login or Register?</text><text fill="#000000" font-family="sans-serif" font-size="11" lengthAdjust="spacing" textLength="29.8687" x="226.2952" y="201.3433">Login</text><text fill="#000000" font-family="sans-serif" font-size="11" lengthAdjust="spacing" textLength="45.7832" x="379.8997" y="201.3433">Register</text><rect fill="#F1F1F1" height="33.9688" rx="12.5" ry="12.5" style="stroke:#181818;stroke-width:0.5;" width="135.3125" x="82.1357" y="225.9375"/><text fill="#000000" font-family="sans-serif" font-size="12" lengthAdjust="spacing" textLength="115.3125" x="92.1357" y="247.0762">Display Login Form</text><polygon fill="#F1F1F1" points="94.1582,279.9063,205.4258,279.9063,217.4258,291.9063,205.4258,303.9063,94.1582,303.9063,82.1582,291.9063,94.1582,279.9063" style="stroke:#181818;stroke-width:0.5;"/><text fill="#000000" font-family="sans-serif" font-size="11" lengthAdjust="spacing" textLength="111.2676" x="94.1582" y="295.7144">Validate Credentials</text><text fill="#000000" font-family="sans-serif" font-size="11" lengthAdjust="spacing" textLength="36.561" x="45.5972" y="289.312">Invalid</text><text fill="#000000" font-family="sans-serif" font-size="11" lengthAdjust="spacing" textLength="27.3604" x="217.4258" y="289.312">Valid</text><rect fill="#F1F1F1" height="33.9688" rx="12.5" ry="12.5" style="stroke:#181818;stroke-width:0.5;" width="122.3164" x="11" y="313.9063"/><text fill="#000000" font-family="sans-serif" font-size="12" lengthAdjust="spacing" textLength="102.3164" x="21" y="335.0449">Show Login Error</text><rect fill="#F1F1F1" height="33.9688" rx="12.5" ry="12.5" style="stroke:#181818;stroke-width:0.5;" width="136.2852" x="159.2832" y="313.9063"/><text fill="#000000" font-family="sans-serif" font-size="12" lengthAdjust="spacing" textLength="116.2852" x="169.2832" y="335.0449">Create JWT Session</text><polygon fill="#F1F1F1" points="149.792,353.875,161.792,365.875,149.792,377.875,137.792,365.875,149.792,353.875" style="stroke:#181818;stroke-width:0.5;"/><rect fill="#F1F1F1" height="33.9688" rx="12.5" ry="12.5" style="stroke:#181818;stroke-width:0.5;" width="152.6738" x="409.9346" y="225.9375"/><text fill="#000000" font-family="sans-serif" font-size="12" lengthAdjust="spacing" textLength="132.6738" x="419.9346" y="247.0762">Display Register Form</text><polygon fill="#F1F1F1" points="428.5188,279.9063,544.0242,279.9063,556.0242,291.9063,544.0242,303.9063,428.5188,303.9063,416.5188,291.9063,428.5188,279.9063" style="stroke:#181818;stroke-width:0.5;"/><text fill="#000000" font-family="sans-serif" font-size="11" lengthAdjust="spacing" textLength="115.5054" x="428.5188" y="295.7144">Validate Registration</text><text fill="#000000" font-family="sans-serif" font-size="11" lengthAdjust="spacing" textLength="36.561" x="379.9578" y="289.312">Invalid</text><text fill="#000000" font-family="sans-serif" font-size="11" lengthAdjust="spacing" textLength="27.3604" x="556.0242" y="289.312">Valid</text><rect fill="#F1F1F1" height="33.9688" rx="12.5" ry="12.5" style="stroke:#181818;stroke-width:0.5;" width="139.6777" x="335.5684" y="313.9063"/><text fill="#000000" font-family="sans-serif" font-size="12" lengthAdjust="spacing" textLength="119.6777" x="345.5684" y="335.0449">Show Register Error</text><rect fill="#F1F1F1" height="33.9688" rx="12.5" ry="12.5" style="stroke:#181818;stroke-width:0.5;" width="143.7793" x="495.2461" y="313.9063"/><text fill="#000000" font-family="sans-serif" font-size="12" lengthAdjust="spacing" textLength="123.7793" x="505.2461" y="335.0449">Create User Account</text><rect fill="#F1F1F1" height="33.9688" rx="12.5" ry="12.5" style="stroke:#181818;stroke-width:0.5;" width="136.2852" x="498.9932" y="382.875"/><text fill="#000000" font-family="sans-serif" font-size="12" lengthAdjust="spacing" textLength="116.2852" x="508.9932" y="404.0137">Create JWT Session</text><polygon fill="#F1F1F1" points="486.2715,422.8438,498.2715,434.8438,486.2715,446.8438,474.2715,434.8438,486.2715,422.8438" style="stroke:#181818;stroke-width:0.5;"/><polygon fill="#F1F1F1" points="318.0317,452.8438,330.0317,464.8438,318.0317,476.8438,306.0317,464.8438,318.0317,452.8438" style="stroke:#181818;stroke-width:0.5;"/><rect fill="#F1F1F1" height="33.9688" rx="12.5" ry="12.5" style="stroke:#181818;stroke-width:0.5;" width="121.5078" x="679.0254" y="137.9688"/><text fill="#000000" font-family="sans-serif" font-size="12" lengthAdjust="spacing" textLength="101.5078" x="689.0254" y="159.1074">Show Dashboard</text><polygon fill="#F1F1F1" points="528.9055,482.8438,540.9055,494.8438,528.9055,506.8438,516.9055,494.8438,528.9055,482.8438" style="stroke:#181818;stroke-width:0.5;"/><rect fill="#F1F1F1" height="33.9688" rx="12.5" ry="12.5" style="stroke:#181818;stroke-width:0.5;" width="121.5078" x="468.1516" y="526.8438"/><text fill="#000000" font-family="sans-serif" font-size="12" lengthAdjust="spacing" textLength="101.5078" x="478.1516" y="547.9824">Show Dashboard</text><polygon fill="#F1F1F1" points="497.2993,624.8125,560.5117,624.8125,572.5117,636.8125,560.5117,648.8125,497.2993,648.8125,485.2993,636.8125,497.2993,624.8125" style="stroke:#181818;stroke-width:0.5;"/><text fill="#000000" font-family="sans-serif" font-size="11" lengthAdjust="spacing" textLength="63.2124" x="497.2993" y="640.6206">User Action</text><rect fill="#F1F1F1" height="33.9688" rx="12.5" ry="12.5" style="stroke:#181818;stroke-width:0.5;" width="134.6504" x="169.0291" y="684.4219"/><text fill="#000000" font-family="sans-serif" font-size="12" lengthAdjust="spacing" textLength="114.6504" x="179.0291" y="705.5605">Image Upload Flow</text><rect fill="#F1F1F1" height="33.9688" rx="12.5" ry="12.5" style="stroke:#181818;stroke-width:0.5;" width="123.1836" x="174.7625" y="738.3906"/><text fill="#000000" font-family="sans-serif" font-size="12" lengthAdjust="spacing" textLength="103.1836" x="184.7625" y="759.5293">Select Image File</text><polygon fill="#F1F1F1" points="202.4116,792.3594,270.2969,792.3594,282.2969,804.3594,270.2969,816.3594,202.4116,816.3594,190.4116,804.3594,202.4116,792.3594" style="stroke:#181818;stroke-width:0.5;"/><text fill="#000000" font-family="sans-serif" font-size="11" lengthAdjust="spacing" textLength="67.8853" x="202.4116" y="808.1675">Validate File</text><text fill="#000000" font-family="sans-serif" font-size="11" lengthAdjust="spacing" textLength="36.561" x="153.8506" y="801.7651">Invalid</text><text fill="#000000" font-family="sans-serif" font-size="11" lengthAdjust="spacing" textLength="27.3604" x="282.2969" y="801.7651">Valid</text><rect fill="#F1F1F1" height="33.9688" rx="12.5" ry="12.5" style="stroke:#181818;stroke-width:0.5;" width="110.6855" x="62.217" y="826.3594"/><text fill="#000000" font-family="sans-serif" font-size="12" lengthAdjust="spacing" textLength="90.6855" x="72.217" y="847.498">Show File Error</text><rect fill="#F1F1F1" height="33.9688" rx="12.5" ry="12.5" style="stroke:#181818;stroke-width:0.5;" width="121.0742" x="294.6116" y="826.3594"/><text fill="#000000" font-family="sans-serif" font-size="12" lengthAdjust="spacing" textLength="101.0742" x="304.6116" y="847.498">Upload to Server</text><rect fill="#F1F1F1" height="33.9688" rx="12.5" ry="12.5" style="stroke:#181818;stroke-width:0.5;" width="145.25" x="282.5237" y="880.3281"/><text fill="#000000" font-family="sans-serif" font-size="12" lengthAdjust="spacing" textLength="125.25" x="292.5237" y="901.4668">ML Model Processing</text><polygon fill="#F1F1F1" points="305.6809,934.2969,404.6165,934.2969,416.6165,946.2969,404.6165,958.2969,305.6809,958.2969,293.6809,946.2969,305.6809,934.2969" style="stroke:#181818;stroke-width:0.5;"/><text fill="#000000" font-family="sans-serif" font-size="11" lengthAdjust="spacing" textLength="98.9355" x="305.6809" y="950.105">Analysis Success?</text><text fill="#000000" font-family="sans-serif" font-size="11" lengthAdjust="spacing" textLength="32.9302" x="260.7507" y="943.7026">Failed</text><text fill="#000000" font-family="sans-serif" font-size="11" lengthAdjust="spacing" textLength="44.2793" x="416.6165" y="943.7026">Success</text><rect fill="#F1F1F1" height="33.9688" rx="12.5" ry="12.5" style="stroke:#181818;stroke-width:0.5;" width="139.1738" x="202.9026" y="968.2969"/><text fill="#000000" font-family="sans-serif" font-size="12" lengthAdjust="spacing" textLength="119.1738" x="212.9026" y="989.4355">Show Analysis Error</text><rect fill="#F1F1F1" height="33.9688" rx="12.5" ry="12.5" style="stroke:#181818;stroke-width:0.5;" width="126.3887" x="374.6135" y="968.2969"/><text fill="#000000" font-family="sans-serif" font-size="12" lengthAdjust="spacing" textLength="106.3887" x="384.6135" y="989.4355">Save to Database</text><rect fill="#F1F1F1" height="33.9688" rx="12.5" ry="12.5" style="stroke:#181818;stroke-width:0.5;" width="111.916" x="381.8499" y="1027.9102"/><text fill="#000000" font-family="sans-serif" font-size="12" lengthAdjust="spacing" textLength="91.916" x="391.8499" y="1049.0488">Display Results</text><rect fill="#F1F1F1" height="33.9688" rx="12.5" ry="12.5" style="stroke:#181818;stroke-width:0.5;" width="131.4629" x="372.0764" y="1130.2813"/><text fill="#000000" font-family="sans-serif" font-size="12" lengthAdjust="spacing" textLength="111.4629" x="382.0764" y="1151.4199">Create PDF Report</text><polygon fill="#F1F1F1" points="388.9739,1081.8789,486.6418,1081.8789,498.6418,1093.8789,486.6418,1105.8789,388.9739,1105.8789,376.9739,1093.8789,388.9739,1081.8789" style="stroke:#181818;stroke-width:0.5;"/><text fill="#000000" font-family="sans-serif" font-size="11" lengthAdjust="spacing" textLength="19.2178" x="441.8079" y="1116.0894">Yes</text><text fill="#000000" font-family="sans-serif" font-size="11" lengthAdjust="spacing" textLength="97.668" x="388.9739" y="1097.687">Generate Report?</text><polygon fill="#F1F1F1" points="437.8079,1184.25,449.8079,1196.25,437.8079,1208.25,425.8079,1196.25,437.8079,1184.25" style="stroke:#181818;stroke-width:0.5;"/><polygon fill="#F1F1F1" points="355.1487,1214.25,367.1487,1226.25,355.1487,1238.25,343.1487,1226.25,355.1487,1214.25" style="stroke:#181818;stroke-width:0.5;"/><polygon fill="#F1F1F1" points="236.3542,1244.25,248.3542,1256.25,236.3542,1268.25,224.3542,1256.25,236.3542,1244.25" style="stroke:#181818;stroke-width:0.5;"/><rect fill="#F1F1F1" height="33.9688" rx="12.5" ry="12.5" style="stroke:#181818;stroke-width:0.5;" width="158.4219" x="565.5393" y="684.4219"/><text fill="#000000" font-family="sans-serif" font-size="12" lengthAdjust="spacing" textLength="138.4219" x="575.5393" y="705.5605">Display Results History</text><rect fill="#F1F1F1" height="33.9688" rx="12.5" ry="12.5" style="stroke:#181818;stroke-width:0.5;" width="140.6504" x="743.9612" y="684.4219"/><text fill="#000000" font-family="sans-serif" font-size="12" lengthAdjust="spacing" textLength="120.6504" x="753.9612" y="705.5605">Profile Management</text><rect fill="#F1F1F1" height="33.9688" rx="12.5" ry="12.5" style="stroke:#181818;stroke-width:0.5;" width="100.9824" x="894.6116" y="684.4219"/><text fill="#000000" font-family="sans-serif" font-size="12" lengthAdjust="spacing" textLength="80.9824" x="904.6116" y="705.5605">Clear Session</text><ellipse cx="945.1028" cy="749.3906" fill="none" rx="11" ry="11" style="stroke:#222222;stroke-width:1;"/><ellipse cx="945.1028" cy="749.3906" fill="#222222" rx="6" ry="6" style="stroke:#222222;stroke-width:1;"/><polygon fill="#F1F1F1" points="528.9055,1278.25,528.9055,1278.25,540.9055,1290.25,528.9055,1302.25,528.9055,1302.25,516.9055,1290.25,528.9055,1278.25" style="stroke:#181818;stroke-width:0.5;"/><polygon fill="#F1F1F1" points="528.9055,580.8125,540.9055,592.8125,528.9055,604.8125,516.9055,592.8125,528.9055,580.8125" style="stroke:#181818;stroke-width:0.5;"/><polygon fill="#F1F1F1" points="472.5493,1322.25,585.2617,1322.25,597.2617,1334.25,585.2617,1346.25,472.5493,1346.25,460.5493,1334.25,472.5493,1322.25" style="stroke:#181818;stroke-width:0.5;"/><text fill="#000000" font-family="sans-serif" font-size="11" lengthAdjust="spacing" textLength="112.7124" x="472.5493" y="1338.0581">Continue using app?</text><ellipse cx="528.9055" cy="1377.25" fill="none" rx="11" ry="11" style="stroke:#222222;stroke-width:1;"/><ellipse cx="528.9055" cy="1377.25" fill="#222222" rx="6" ry="6" style="stroke:#222222;stroke-width:1;"/><line style="stroke:#181818;stroke-width:1;" x1="528.9055" x2="528.9055" y1="30" y2="50"/><polygon fill="#181818" points="524.9055,40,528.9055,50,532.9055,40,528.9055,44" style="stroke:#181818;stroke-width:1;"/><line style="stroke:#181818;stroke-width:1;" x1="82.1582" x2="72.1582" y1="291.9063" y2="291.9063"/><line style="stroke:#181818;stroke-width:1;" x1="72.1582" x2="72.1582" y1="291.9063" y2="313.9063"/><polygon fill="#181818" points="68.1582,303.9063,72.1582,313.9063,76.1582,303.9063,72.1582,307.9063" style="stroke:#181818;stroke-width:1;"/><line style="stroke:#181818;stroke-width:1;" x1="217.4258" x2="227.4258" y1="291.9063" y2="291.9063"/><line style="stroke:#181818;stroke-width:1;" x1="227.4258" x2="227.4258" y1="291.9063" y2="313.9063"/><polygon fill="#181818" points="223.4258,303.9063,227.4258,313.9063,231.4258,303.9063,227.4258,307.9063" style="stroke:#181818;stroke-width:1;"/><line style="stroke:#181818;stroke-width:1;" x1="72.1582" x2="72.1582" y1="347.875" y2="365.875"/><line style="stroke:#181818;stroke-width:1;" x1="72.1582" x2="137.792" y1="365.875" y2="365.875"/><polygon fill="#181818" points="127.792,361.875,137.792,365.875,127.792,369.875,131.792,365.875" style="stroke:#181818;stroke-width:1;"/><line style="stroke:#181818;stroke-width:1;" x1="227.4258" x2="227.4258" y1="347.875" y2="365.875"/><line style="stroke:#181818;stroke-width:1;" x1="227.4258" x2="161.792" y1="365.875" y2="365.875"/><polygon fill="#181818" points="171.792,361.875,161.792,365.875,171.792,369.875,167.792,365.875" style="stroke:#181818;stroke-width:1;"/><line style="stroke:#181818;stroke-width:1;" x1="149.792" x2="149.792" y1="259.9063" y2="279.9063"/><polygon fill="#181818" points="145.792,269.9063,149.792,279.9063,153.792,269.9063,149.792,273.9063" style="stroke:#181818;stroke-width:1;"/><line style="stroke:#181818;stroke-width:1;" x1="567.1357" x2="567.1357" y1="347.875" y2="382.875"/><polygon fill="#181818" points="563.1357,372.875,567.1357,382.875,571.1357,372.875,567.1357,376.875" style="stroke:#181818;stroke-width:1;"/><line style="stroke:#181818;stroke-width:1;" x1="416.5188" x2="405.4072" y1="291.9063" y2="291.9063"/><line style="stroke:#181818;stroke-width:1;" x1="405.4072" x2="405.4072" y1="291.9063" y2="313.9063"/><polygon fill="#181818" points="401.4072,303.9063,405.4072,313.9063,409.4072,303.9063,405.4072,307.9063" style="stroke:#181818;stroke-width:1;"/><line style="stroke:#181818;stroke-width:1;" x1="556.0242" x2="567.1357" y1="291.9063" y2="291.9063"/><line style="stroke:#181818;stroke-width:1;" x1="567.1357" x2="567.1357" y1="291.9063" y2="313.9063"/><polygon fill="#181818" points="563.1357,303.9063,567.1357,313.9063,571.1357,303.9063,567.1357,307.9063" style="stroke:#181818;stroke-width:1;"/><line style="stroke:#181818;stroke-width:1;" x1="405.4072" x2="405.4072" y1="347.875" y2="434.8438"/><line style="stroke:#181818;stroke-width:1;" x1="405.4072" x2="474.2715" y1="434.8438" y2="434.8438"/><polygon fill="#181818" points="464.2715,430.8438,474.2715,434.8438,464.2715,438.8438,468.2715,434.8438" style="stroke:#181818;stroke-width:1;"/><line style="stroke:#181818;stroke-width:1;" x1="567.1357" x2="567.1357" y1="416.8438" y2="434.8438"/><line style="stroke:#181818;stroke-width:1;" x1="567.1357" x2="498.2715" y1="434.8438" y2="434.8438"/><polygon fill="#181818" points="508.2715,430.8438,498.2715,434.8438,508.2715,438.8438,504.2715,434.8438" style="stroke:#181818;stroke-width:1;"/><line style="stroke:#181818;stroke-width:1;" x1="486.2715" x2="486.2715" y1="259.9063" y2="279.9063"/><polygon fill="#181818" points="482.2715,269.9063,486.2715,279.9063,490.2715,269.9063,486.2715,273.9063" style="stroke:#181818;stroke-width:1;"/><line style="stroke:#181818;stroke-width:1;" x1="256.1638" x2="149.792" y1="203.9375" y2="203.9375"/><line style="stroke:#181818;stroke-width:1;" x1="149.792" x2="149.792" y1="203.9375" y2="225.9375"/><polygon fill="#181818" points="145.792,215.9375,149.792,225.9375,153.792,215.9375,149.792,219.9375" style="stroke:#181818;stroke-width:1;"/><line style="stroke:#181818;stroke-width:1;" x1="379.8997" x2="486.2715" y1="203.9375" y2="203.9375"/><line style="stroke:#181818;stroke-width:1;" x1="486.2715" x2="486.2715" y1="203.9375" y2="225.9375"/><polygon fill="#181818" points="482.2715,215.9375,486.2715,225.9375,490.2715,215.9375,486.2715,219.9375" style="stroke:#181818;stroke-width:1;"/><line style="stroke:#181818;stroke-width:1;" x1="149.792" x2="149.792" y1="377.875" y2="464.8438"/><line style="stroke:#181818;stroke-width:1;" x1="149.792" x2="306.0317" y1="464.8438" y2="464.8438"/><polygon fill="#181818" points="296.0317,460.8438,306.0317,464.8438,296.0317,468.8438,300.0317,464.8438" style="stroke:#181818;stroke-width:1;"/><line style="stroke:#181818;stroke-width:1;" x1="486.2715" x2="486.2715" y1="446.8438" y2="464.8438"/><line style="stroke:#181818;stroke-width:1;" x1="486.2715" x2="330.0317" y1="464.8438" y2="464.8438"/><polygon fill="#181818" points="340.0317,460.8438,330.0317,464.8438,340.0317,468.8438,336.0317,464.8438" style="stroke:#181818;stroke-width:1;"/><line style="stroke:#181818;stroke-width:1;" x1="318.0317" x2="318.0317" y1="171.9375" y2="191.9375"/><polygon fill="#181818" points="314.0317,181.9375,318.0317,191.9375,322.0317,181.9375,318.0317,185.9375" style="stroke:#181818;stroke-width:1;"/><line style="stroke:#181818;stroke-width:1;" x1="457.8638" x2="318.0317" y1="115.9688" y2="115.9688"/><line style="stroke:#181818;stroke-width:1;" x1="318.0317" x2="318.0317" y1="115.9688" y2="137.9688"/><polygon fill="#181818" points="314.0317,127.9688,318.0317,137.9688,322.0317,127.9688,318.0317,131.9688" style="stroke:#181818;stroke-width:1;"/><line style="stroke:#181818;stroke-width:1;" x1="599.9473" x2="739.7793" y1="115.9688" y2="115.9688"/><line style="stroke:#181818;stroke-width:1;" x1="739.7793" x2="739.7793" y1="115.9688" y2="137.9688"/><polygon fill="#181818" points="735.7793,127.9688,739.7793,137.9688,743.7793,127.9688,739.7793,131.9688" style="stroke:#181818;stroke-width:1;"/><line style="stroke:#181818;stroke-width:1;" x1="318.0317" x2="318.0317" y1="476.8438" y2="494.8438"/><line style="stroke:#181818;stroke-width:1;" x1="318.0317" x2="516.9055" y1="494.8438" y2="494.8438"/><polygon fill="#181818" points="506.9055,490.8438,516.9055,494.8438,506.9055,498.8438,510.9055,494.8438" style="stroke:#181818;stroke-width:1;"/><line style="stroke:#181818;stroke-width:1;" x1="739.7793" x2="739.7793" y1="171.9375" y2="494.8438"/><line style="stroke:#181818;stroke-width:1;" x1="739.7793" x2="540.9055" y1="494.8438" y2="494.8438"/><polygon fill="#181818" points="550.9055,490.8438,540.9055,494.8438,550.9055,498.8438,546.9055,494.8438" style="stroke:#181818;stroke-width:1;"/><line style="stroke:#181818;stroke-width:1;" x1="528.9055" x2="528.9055" y1="83.9688" y2="103.9688"/><polygon fill="#181818" points="524.9055,93.9688,528.9055,103.9688,532.9055,93.9688,528.9055,97.9688" style="stroke:#181818;stroke-width:1;"/><line style="stroke:#181818;stroke-width:1;" x1="528.9055" x2="528.9055" y1="506.8438" y2="526.8438"/><polygon fill="#181818" points="524.9055,516.8438,528.9055,526.8438,532.9055,516.8438,528.9055,520.8438" style="stroke:#181818;stroke-width:1;"/><line style="stroke:#181818;stroke-width:1;" x1="236.3542" x2="236.3542" y1="718.3906" y2="738.3906"/><polygon fill="#181818" points="232.3542,728.3906,236.3542,738.3906,240.3542,728.3906,236.3542,732.3906" style="stroke:#181818;stroke-width:1;"/><line style="stroke:#181818;stroke-width:1;" x1="355.1487" x2="355.1487" y1="860.3281" y2="880.3281"/><polygon fill="#181818" points="351.1487,870.3281,355.1487,880.3281,359.1487,870.3281,355.1487,874.3281" style="stroke:#181818;stroke-width:1;"/><line style="stroke:#181818;stroke-width:1;" x1="437.8079" x2="437.8079" y1="1002.2656" y2="1027.9102"/><polygon fill="#181818" points="433.8079,1017.9102,437.8079,1027.9102,441.8079,1017.9102,437.8079,1021.9102" style="stroke:#181818;stroke-width:1;"/><line style="stroke:#181818;stroke-width:1;" x1="437.8079" x2="437.8079" y1="1105.8789" y2="1130.2813"/><polygon fill="#181818" points="433.8079,1120.2813,437.8079,1130.2813,441.8079,1120.2813,437.8079,1124.2813" style="stroke:#181818;stroke-width:1;"/><line style="stroke:#181818;stroke-width:1;" x1="498.6418" x2="513.5393" y1="1093.8789" y2="1093.8789"/><polygon fill="#181818" points="509.5393,1137.2656,513.5393,1147.2656,517.5393,1137.2656,513.5393,1141.2656" style="stroke:#181818;stroke-width:1;"/><line style="stroke:#181818;stroke-width:1;" x1="513.5393" x2="513.5393" y1="1093.8789" y2="1196.25"/><line style="stroke:#181818;stroke-width:1;" x1="513.5393" x2="449.8079" y1="1196.25" y2="1196.25"/><polygon fill="#181818" points="459.8079,1192.25,449.8079,1196.25,459.8079,1200.25,455.8079,1196.25" style="stroke:#181818;stroke-width:1;"/><line style="stroke:#181818;stroke-width:1;" x1="437.8079" x2="437.8079" y1="1164.25" y2="1184.25"/><polygon fill="#181818" points="433.8079,1174.25,437.8079,1184.25,441.8079,1174.25,437.8079,1178.25" style="stroke:#181818;stroke-width:1;"/><line style="stroke:#181818;stroke-width:1;" x1="437.8079" x2="437.8079" y1="1061.8789" y2="1081.8789"/><polygon fill="#181818" points="433.8079,1071.8789,437.8079,1081.8789,441.8079,1071.8789,437.8079,1075.8789" style="stroke:#181818;stroke-width:1;"/><line style="stroke:#181818;stroke-width:1;" x1="293.6809" x2="272.4895" y1="946.2969" y2="946.2969"/><line style="stroke:#181818;stroke-width:1;" x1="272.4895" x2="272.4895" y1="946.2969" y2="968.2969"/><polygon fill="#181818" points="268.4895,958.2969,272.4895,968.2969,276.4895,958.2969,272.4895,962.2969" style="stroke:#181818;stroke-width:1;"/><line style="stroke:#181818;stroke-width:1;" x1="416.6165" x2="437.8079" y1="946.2969" y2="946.2969"/><line style="stroke:#181818;stroke-width:1;" x1="437.8079" x2="437.8079" y1="946.2969" y2="968.2969"/><polygon fill="#181818" points="433.8079,958.2969,437.8079,968.2969,441.8079,958.2969,437.8079,962.2969" style="stroke:#181818;stroke-width:1;"/><line style="stroke:#181818;stroke-width:1;" x1="272.4895" x2="272.4895" y1="1002.2656" y2="1226.25"/><line style="stroke:#181818;stroke-width:1;" x1="272.4895" x2="343.1487" y1="1226.25" y2="1226.25"/><polygon fill="#181818" points="333.1487,1222.25,343.1487,1226.25,333.1487,1230.25,337.1487,1226.25" style="stroke:#181818;stroke-width:1;"/><line style="stroke:#181818;stroke-width:1;" x1="437.8079" x2="437.8079" y1="1208.25" y2="1226.25"/><line style="stroke:#181818;stroke-width:1;" x1="437.8079" x2="367.1487" y1="1226.25" y2="1226.25"/><polygon fill="#181818" points="377.1487,1222.25,367.1487,1226.25,377.1487,1230.25,373.1487,1226.25" style="stroke:#181818;stroke-width:1;"/><line style="stroke:#181818;stroke-width:1;" x1="355.1487" x2="355.1487" y1="914.2969" y2="934.2969"/><polygon fill="#181818" points="351.1487,924.2969,355.1487,934.2969,359.1487,924.2969,355.1487,928.2969" style="stroke:#181818;stroke-width:1;"/><line style="stroke:#181818;stroke-width:1;" x1="190.4116" x2="117.5598" y1="804.3594" y2="804.3594"/><line style="stroke:#181818;stroke-width:1;" x1="117.5598" x2="117.5598" y1="804.3594" y2="826.3594"/><polygon fill="#181818" points="113.5598,816.3594,117.5598,826.3594,121.5598,816.3594,117.5598,820.3594" style="stroke:#181818;stroke-width:1;"/><line style="stroke:#181818;stroke-width:1;" x1="282.2969" x2="355.1487" y1="804.3594" y2="804.3594"/><line style="stroke:#181818;stroke-width:1;" x1="355.1487" x2="355.1487" y1="804.3594" y2="826.3594"/><polygon fill="#181818" points="351.1487,816.3594,355.1487,826.3594,359.1487,816.3594,355.1487,820.3594" style="stroke:#181818;stroke-width:1;"/><line style="stroke:#181818;stroke-width:1;" x1="117.5598" x2="117.5598" y1="860.3281" y2="1256.25"/><line style="stroke:#181818;stroke-width:1;" x1="117.5598" x2="224.3542" y1="1256.25" y2="1256.25"/><polygon fill="#181818" points="214.3542,1252.25,224.3542,1256.25,214.3542,1260.25,218.3542,1256.25" style="stroke:#181818;stroke-width:1;"/><line style="stroke:#181818;stroke-width:1;" x1="355.1487" x2="355.1487" y1="1238.25" y2="1256.25"/><line style="stroke:#181818;stroke-width:1;" x1="355.1487" x2="248.3542" y1="1256.25" y2="1256.25"/><polygon fill="#181818" points="258.3542,1252.25,248.3542,1256.25,258.3542,1260.25,254.3542,1256.25" style="stroke:#181818;stroke-width:1;"/><line style="stroke:#181818;stroke-width:1;" x1="236.3542" x2="236.3542" y1="772.3594" y2="792.3594"/><polygon fill="#181818" points="232.3542,782.3594,236.3542,792.3594,240.3542,782.3594,236.3542,786.3594" style="stroke:#181818;stroke-width:1;"/><line style="stroke:#181818;stroke-width:1;" x1="945.1028" x2="945.1028" y1="718.3906" y2="738.3906"/><polygon fill="#181818" points="941.1028,728.3906,945.1028,738.3906,949.1028,728.3906,945.1028,732.3906" style="stroke:#181818;stroke-width:1;"/><line style="stroke:#181818;stroke-width:1;" x1="485.2993" x2="236.3542" y1="636.8125" y2="636.8125"/><line style="stroke:#181818;stroke-width:1;" x1="236.3542" x2="236.3542" y1="636.8125" y2="684.4219"/><polygon fill="#181818" points="232.3542,674.4219,236.3542,684.4219,240.3542,674.4219,236.3542,678.4219" style="stroke:#181818;stroke-width:1;"/><text fill="#000000" font-family="sans-serif" font-size="11" lengthAdjust="spacing" textLength="76.4897" x="236.3542" y="664.4253">Upload Image</text><line style="stroke:#181818;stroke-width:1;" x1="572.5117" x2="945.1028" y1="636.8125" y2="636.8125"/><line style="stroke:#181818;stroke-width:1;" x1="945.1028" x2="945.1028" y1="636.8125" y2="684.4219"/><polygon fill="#181818" points="941.1028,674.4219,945.1028,684.4219,949.1028,674.4219,945.1028,678.4219" style="stroke:#181818;stroke-width:1;"/><text fill="#000000" font-family="sans-serif" font-size="11" lengthAdjust="spacing" textLength="37.8555" x="945.1028" y="664.4253">Logout</text><line style="stroke:#181818;stroke-width:1;" x1="644.7502" x2="644.7502" y1="636.8125" y2="684.4219"/><polygon fill="#181818" points="640.7502,674.4219,644.7502,684.4219,648.7502,674.4219,644.7502,678.4219" style="stroke:#181818;stroke-width:1;"/><text fill="#000000" font-family="sans-serif" font-size="11" lengthAdjust="spacing" textLength="70.0552" x="644.7502" y="659.4253">View Results</text><line style="stroke:#181818;stroke-width:1;" x1="814.2864" x2="814.2864" y1="636.8125" y2="684.4219"/><polygon fill="#181818" points="810.2864,674.4219,814.2864,684.4219,818.2864,674.4219,814.2864,678.4219" style="stroke:#181818;stroke-width:1;"/><text fill="#000000" font-family="sans-serif" font-size="11" lengthAdjust="spacing" textLength="59.4365" x="814.2864" y="659.4253">Edit Profile</text><line style="stroke:#181818;stroke-width:1;" x1="236.3542" x2="236.3542" y1="1268.25" y2="1290.25"/><line style="stroke:#181818;stroke-width:1;" x1="236.3542" x2="516.9055" y1="1290.25" y2="1290.25"/><polygon fill="#181818" points="506.9055,1286.25,516.9055,1290.25,506.9055,1294.25,510.9055,1290.25" style="stroke:#181818;stroke-width:1;"/><line style="stroke:#181818;stroke-width:1;" x1="814.2864" x2="814.2864" y1="718.3906" y2="1290.25"/><line style="stroke:#181818;stroke-width:1;" x1="814.2864" x2="540.9055" y1="1290.25" y2="1290.25"/><polygon fill="#181818" points="550.9055,1286.25,540.9055,1290.25,550.9055,1294.25,546.9055,1290.25" style="stroke:#181818;stroke-width:1;"/><line style="stroke:#181818;stroke-width:1;" x1="644.7502" x2="644.7502" y1="718.3906" y2="1290.25"/><polygon fill="#181818" points="640.7502,1280.25,644.7502,1290.25,648.7502,1280.25,644.7502,1284.25" style="stroke:#181818;stroke-width:1;"/><line style="stroke:#181818;stroke-width:1;" x1="528.9055" x2="528.9055" y1="604.8125" y2="624.8125"/><polygon fill="#181818" points="524.9055,614.8125,528.9055,624.8125,532.9055,614.8125,528.9055,618.8125" style="stroke:#181818;stroke-width:1;"/><line style="stroke:#181818;stroke-width:1;" x1="597.2617" x2="1007.594" y1="1334.25" y2="1334.25"/><polygon fill="#181818" points="1003.594,1007.9102,1007.594,997.9102,1011.594,1007.9102,1007.594,1003.9102" style="stroke:#181818;stroke-width:1;"/><line style="stroke:#181818;stroke-width:1;" x1="1007.594" x2="1007.594" y1="592.8125" y2="1334.25"/><line style="stroke:#181818;stroke-width:1;" x1="1007.594" x2="540.9055" y1="592.8125" y2="592.8125"/><polygon fill="#181818" points="550.9055,588.8125,540.9055,592.8125,550.9055,596.8125,546.9055,592.8125" style="stroke:#181818;stroke-width:1;"/><line style="stroke:#181818;stroke-width:1;" x1="528.9055" x2="528.9055" y1="1302.25" y2="1322.25"/><polygon fill="#181818" points="524.9055,1312.25,528.9055,1322.25,532.9055,1312.25,528.9055,1316.25" style="stroke:#181818;stroke-width:1;"/><line style="stroke:#181818;stroke-width:1;" x1="528.9055" x2="528.9055" y1="560.8125" y2="580.8125"/><polygon fill="#181818" points="524.9055,570.8125,528.9055,580.8125,532.9055,570.8125,528.9055,574.8125" style="stroke:#181818;stroke-width:1;"/><line style="stroke:#181818;stroke-width:1;" x1="528.9055" x2="528.9055" y1="1346.25" y2="1366.25"/><polygon fill="#181818" points="524.9055,1356.25,528.9055,1366.25,532.9055,1356.25,528.9055,1360.25" style="stroke:#181818;stroke-width:1;"/><!--SRC=[dLJ1Rjim3BtxAtXCJhl7Xo98wgr3qnRBsc57rMPYOOeaI7AC_Fr4oRRSs2sw-MJfyJq-qgIjOyPbgsUB1XurIWjhhVEC7s2ngR7y0-l6rIWTBvdZIYw1Jh1uK6wCOBNCm3-hVQrQk5T7Bh_ym2Et3aqU418Czw0CzD1DBnUGA15ajjngmIvH2GfbJla0aj8B4xpoQM5Zi28FJDXUwqwU2KrgLyRWrXXbaXuAYvtY5SUBKuxlltx27gtrvOzOikA7BF7xacQAwA6FweWnvasFFoXaaFpNMi9tNfUbQgJB_wlQy1Rpl3i0MsRhLyLCbMSnFflS6zG-NU3ObhkoXaNdBRGW02MZBCzQA5R1tOaTSTJTS8OEB8HgazlL7WMMBbAWu0BVwJf1d-WsXNs-qvqbftmRpHdDLPjtzx1J5GfuCggaFilZsmXok9PCN2oti6zA2XeMfM3UorN6P7IWNPbDXZkzEG5sHZAzPOwz-iRdqv0qqBOHpauZoFfNb6ZYI6jbtE3yDyva7G_UqxReE5FXD7_pD-aKP-Q5OzlRdDt8WC0tlqJANF8HyxRYZZxDWKOZCRiRs37fP-g4_VP4al-lgCQDmZS2cPckaS-c-osAKz_j0RGrgIysog-JR10QcWjWMjyiCsBz1G00]--></g></svg>