<svg xmlns="http://www.w3.org/2000/svg" xmlns:xlink="http://www.w3.org/1999/xlink" contentStyleType="text/css" data-diagram-type="CLASS" height="752px" preserveAspectRatio="none" style="width:1986px;height:752px;background:#FFFFFF;" version="1.1" viewBox="0 0 1986 752" width="1986px" zoomAndPan="magnify"><defs/><g><!--class User--><g class="entity" data-entity="User" data-source-line="1" data-uid="ent0002" id="entity_User"><rect fill="#F1F1F1" height="243.5625" rx="2.5" ry="2.5" style="stroke:#181818;stroke-width:0.5;" width="342.9209" x="917.68" y="197.19"/><ellipse cx="1068.9354" cy="213.19" fill="#ADD1B2" rx="11" ry="11" style="stroke:#181818;stroke-width:1;"/><path d="M1071.9041,218.8306 Q1071.326,219.1275 1070.6854,219.2681 Q1070.0447,219.4244 1069.3416,219.4244 Q1066.8416,219.4244 1065.5135,217.7837 Q1064.201,216.1275 1064.201,213.0025 Q1064.201,209.8775 1065.5135,208.2212 Q1066.8416,206.565 1069.3416,206.565 Q1070.0447,206.565 1070.6854,206.7212 Q1071.3416,206.8775 1071.9041,207.1744 L1071.9041,209.8931 Q1071.2791,209.315 1070.6854,209.0494 Q1070.0916,208.7681 1069.4666,208.7681 Q1068.1229,208.7681 1067.4354,209.8462 Q1066.7479,210.9087 1066.7479,213.0025 Q1066.7479,215.0962 1067.4354,216.1744 Q1068.1229,217.2369 1069.4666,217.2369 Q1070.0916,217.2369 1070.6854,216.9712 Q1071.2791,216.69 1071.9041,216.1119 L1071.9041,218.8306 Z " fill="#000000"/><text fill="#000000" font-family="sans-serif" font-size="14" lengthAdjust="spacing" textLength="31.9102" x="1089.4354" y="218.0367">User</text><line style="stroke:#181818;stroke-width:0.5;" x1="918.68" x2="1259.6009" y1="229.19" y2="229.19"/><rect fill="none" height="6" style="stroke:#C82930;stroke-width:1;" width="6" x="925.68" y="239.8384"/><text fill="#000000" font-family="sans-serif" font-size="14" lengthAdjust="spacing" textLength="66.0078" x="937.68" y="246.1851">String _id</text><rect fill="none" height="6" style="stroke:#C82930;stroke-width:1;" width="6" x="925.68" y="256.1353"/><text fill="#000000" font-family="sans-serif" font-size="14" lengthAdjust="spacing" textLength="84.8408" x="937.68" y="262.482">String email</text><rect fill="none" height="6" style="stroke:#C82930;stroke-width:1;" width="6" x="925.68" y="272.4322"/><text fill="#000000" font-family="sans-serif" font-size="14" lengthAdjust="spacing" textLength="112.9434" x="937.68" y="278.7789">String password</text><rect fill="none" height="6" style="stroke:#C82930;stroke-width:1;" width="6" x="925.68" y="288.7291"/><text fill="#000000" font-family="sans-serif" font-size="14" lengthAdjust="spacing" textLength="114.8916" x="937.68" y="295.0757">String firstName</text><rect fill="none" height="6" style="stroke:#C82930;stroke-width:1;" width="6" x="925.68" y="305.0259"/><text fill="#000000" font-family="sans-serif" font-size="14" lengthAdjust="spacing" textLength="112.7861" x="937.68" y="311.3726">String lastName</text><rect fill="none" height="6" style="stroke:#C82930;stroke-width:1;" width="6" x="925.68" y="321.3228"/><text fill="#000000" font-family="sans-serif" font-size="14" lengthAdjust="spacing" textLength="139.5215" x="937.68" y="327.6695">String profilePicture</text><rect fill="none" height="6" style="stroke:#C82930;stroke-width:1;" width="6" x="925.68" y="337.6197"/><text fill="#000000" font-family="sans-serif" font-size="14" lengthAdjust="spacing" textLength="106.6133" x="937.68" y="343.9664">Date createdAt</text><rect fill="none" height="6" style="stroke:#C82930;stroke-width:1;" width="6" x="925.68" y="353.9166"/><text fill="#000000" font-family="sans-serif" font-size="14" lengthAdjust="spacing" textLength="111.1934" x="937.68" y="360.2632">Date updatedAt</text><line style="stroke:#181818;stroke-width:0.5;" x1="918.68" x2="1259.6009" y1="367.565" y2="367.565"/><ellipse cx="928.68" cy="381.2134" fill="#84BE84" rx="3" ry="3" style="stroke:#038048;stroke-width:1;"/><text fill="#000000" font-family="sans-serif" font-size="14" lengthAdjust="spacing" textLength="316.9209" x="937.68" y="384.5601">validatePassword(password: String): Boolean</text><ellipse cx="928.68" cy="397.5103" fill="#84BE84" rx="3" ry="3" style="stroke:#038048;stroke-width:1;"/><text fill="#000000" font-family="sans-serif" font-size="14" lengthAdjust="spacing" textLength="200.8193" x="937.68" y="400.857">generateAuthToken(): String</text><ellipse cx="928.68" cy="413.8072" fill="#84BE84" rx="3" ry="3" style="stroke:#038048;stroke-width:1;"/><text fill="#000000" font-family="sans-serif" font-size="14" lengthAdjust="spacing" textLength="255.999" x="937.68" y="417.1539">updateProfile(data: Object): Promise</text><ellipse cx="928.68" cy="430.1041" fill="#84BE84" rx="3" ry="3" style="stroke:#038048;stroke-width:1;"/><text fill="#000000" font-family="sans-serif" font-size="14" lengthAdjust="spacing" textLength="228.7305" x="937.68" y="433.4507">getResults(): Promise&lt;Result[]&gt;</text></g><!--class Result--><g class="entity" data-entity="Result" data-source-line="16" data-uid="ent0003" id="entity_Result"><rect fill="#F1F1F1" height="227.2656" rx="2.5" ry="2.5" style="stroke:#181818;stroke-width:0.5;" width="393.5889" x="480.35" y="517.75"/><ellipse cx="650.9511" cy="533.75" fill="#ADD1B2" rx="11" ry="11" style="stroke:#181818;stroke-width:1;"/><path d="M653.9198,539.3906 Q653.3417,539.6875 652.7011,539.8281 Q652.0604,539.9844 651.3573,539.9844 Q648.8573,539.9844 647.5292,538.3438 Q646.2167,536.6875 646.2167,533.5625 Q646.2167,530.4375 647.5292,528.7813 Q648.8573,527.125 651.3573,527.125 Q652.0604,527.125 652.7011,527.2813 Q653.3573,527.4375 653.9198,527.7344 L653.9198,530.4531 Q653.2948,529.875 652.7011,529.6094 Q652.1073,529.3281 651.4823,529.3281 Q650.1386,529.3281 649.4511,530.4063 Q648.7636,531.4688 648.7636,533.5625 Q648.7636,535.6563 649.4511,536.7344 Q650.1386,537.7969 651.4823,537.7969 Q652.1073,537.7969 652.7011,537.5313 Q653.2948,537.25 653.9198,536.6719 L653.9198,539.3906 Z " fill="#000000"/><text fill="#000000" font-family="sans-serif" font-size="14" lengthAdjust="spacing" textLength="43.8867" x="671.4511" y="538.5967">Result</text><line style="stroke:#181818;stroke-width:0.5;" x1="481.35" x2="872.9389" y1="549.75" y2="549.75"/><rect fill="none" height="6" style="stroke:#C82930;stroke-width:1;" width="6" x="488.35" y="560.3984"/><text fill="#000000" font-family="sans-serif" font-size="14" lengthAdjust="spacing" textLength="66.0078" x="500.35" y="566.7451">String _id</text><rect fill="none" height="6" style="stroke:#C82930;stroke-width:1;" width="6" x="488.35" y="576.6953"/><text fill="#000000" font-family="sans-serif" font-size="14" lengthAdjust="spacing" textLength="106.6133" x="500.35" y="583.042">ObjectId userId</text><rect fill="none" height="6" style="stroke:#C82930;stroke-width:1;" width="6" x="488.35" y="592.9922"/><text fill="#000000" font-family="sans-serif" font-size="14" lengthAdjust="spacing" textLength="121.2217" x="500.35" y="599.3389">String imagePath</text><rect fill="none" height="6" style="stroke:#C82930;stroke-width:1;" width="6" x="488.35" y="609.2891"/><text fill="#000000" font-family="sans-serif" font-size="14" lengthAdjust="spacing" textLength="116.7783" x="500.35" y="615.6357">String prediction</text><rect fill="none" height="6" style="stroke:#C82930;stroke-width:1;" width="6" x="488.35" y="625.5859"/><text fill="#000000" font-family="sans-serif" font-size="14" lengthAdjust="spacing" textLength="137.3271" x="500.35" y="631.9326">Number confidence</text><rect fill="none" height="6" style="stroke:#C82930;stroke-width:1;" width="6" x="488.35" y="641.8828"/><text fill="#000000" font-family="sans-serif" font-size="14" lengthAdjust="spacing" textLength="127.8867" x="500.35" y="648.2295">Object predictions</text><rect fill="none" height="6" style="stroke:#C82930;stroke-width:1;" width="6" x="488.35" y="658.1797"/><text fill="#000000" font-family="sans-serif" font-size="14" lengthAdjust="spacing" textLength="116.0332" x="500.35" y="664.5264">Date analyzedAt</text><rect fill="none" height="6" style="stroke:#C82930;stroke-width:1;" width="6" x="488.35" y="674.4766"/><text fill="#000000" font-family="sans-serif" font-size="14" lengthAdjust="spacing" textLength="106.6133" x="500.35" y="680.8232">Date createdAt</text><line style="stroke:#181818;stroke-width:0.5;" x1="481.35" x2="872.9389" y1="688.125" y2="688.125"/><ellipse cx="491.35" cy="701.7734" fill="#84BE84" rx="3" ry="3" style="stroke:#038048;stroke-width:1;"/><text fill="#000000" font-family="sans-serif" font-size="14" lengthAdjust="spacing" text-decoration="underline" textLength="367.5889" x="500.35" y="705.1201">analyzeImage(imagePath: String): Promise&lt;Result&gt;</text><ellipse cx="491.35" cy="718.0703" fill="#84BE84" rx="3" ry="3" style="stroke:#038048;stroke-width:1;"/><text fill="#000000" font-family="sans-serif" font-size="14" lengthAdjust="spacing" textLength="200.5322" x="500.35" y="721.417">generatePDFReport(): Buffer</text><ellipse cx="491.35" cy="734.3672" fill="#84BE84" rx="3" ry="3" style="stroke:#038048;stroke-width:1;"/><text fill="#000000" font-family="sans-serif" font-size="14" lengthAdjust="spacing" textLength="194.8926" x="500.35" y="737.7139">getAnalysisDetails(): Object</text></g><!--class AuthController--><g class="entity" data-entity="AuthController" data-source-line="30" data-uid="ent0004" id="entity_AuthController"><rect fill="#F1F1F1" height="113.1875" rx="2.5" ry="2.5" style="stroke:#181818;stroke-width:0.5;" width="393.2197" x="660.53" y="7"/><ellipse cx="801.8972" cy="23" fill="#ADD1B2" rx="11" ry="11" style="stroke:#181818;stroke-width:1;"/><path d="M804.8659,28.6406 Q804.2878,28.9375 803.6472,29.0781 Q803.0066,29.2344 802.3034,29.2344 Q799.8034,29.2344 798.4753,27.5938 Q797.1628,25.9375 797.1628,22.8125 Q797.1628,19.6875 798.4753,18.0313 Q799.8034,16.375 802.3034,16.375 Q803.0066,16.375 803.6472,16.5313 Q804.3034,16.6875 804.8659,16.9844 L804.8659,19.7031 Q804.2409,19.125 803.6472,18.8594 Q803.0534,18.5781 802.4284,18.5781 Q801.0847,18.5781 800.3972,19.6563 Q799.7097,20.7188 799.7097,22.8125 Q799.7097,24.9063 800.3972,25.9844 Q801.0847,27.0469 802.4284,27.0469 Q803.0534,27.0469 803.6472,26.7813 Q804.2409,26.5 804.8659,25.9219 L804.8659,28.6406 Z " fill="#000000"/><text fill="#000000" font-family="sans-serif" font-size="14" lengthAdjust="spacing" textLength="101.9854" x="822.3972" y="27.8467">AuthController</text><line style="stroke:#181818;stroke-width:0.5;" x1="661.53" x2="1052.7497" y1="39" y2="39"/><line style="stroke:#181818;stroke-width:0.5;" x1="661.53" x2="1052.7497" y1="47" y2="47"/><ellipse cx="671.53" cy="60.6484" fill="#84BE84" rx="3" ry="3" style="stroke:#038048;stroke-width:1;"/><text fill="#000000" font-family="sans-serif" font-size="14" lengthAdjust="spacing" textLength="328.1045" x="680.53" y="63.9951">register(req: Request, res: Response): Promise</text><ellipse cx="671.53" cy="76.9453" fill="#84BE84" rx="3" ry="3" style="stroke:#038048;stroke-width:1;"/><text fill="#000000" font-family="sans-serif" font-size="14" lengthAdjust="spacing" textLength="307.9111" x="680.53" y="80.292">login(req: Request, res: Response): Promise</text><ellipse cx="671.53" cy="93.2422" fill="#84BE84" rx="3" ry="3" style="stroke:#038048;stroke-width:1;"/><text fill="#000000" font-family="sans-serif" font-size="14" lengthAdjust="spacing" textLength="340.8809" x="680.53" y="96.5889">getProfile(req: Request, res: Response): Promise</text><ellipse cx="671.53" cy="109.5391" fill="#84BE84" rx="3" ry="3" style="stroke:#038048;stroke-width:1;"/><text fill="#000000" font-family="sans-serif" font-size="14" lengthAdjust="spacing" textLength="367.2197" x="680.53" y="112.8857">updateProfile(req: Request, res: Response): Promise</text></g><!--class UploadController--><g class="entity" data-entity="UploadController" data-source-line="37" data-uid="ent0005" id="entity_UploadController"><rect fill="#F1F1F1" height="96.8906" rx="2.5" ry="2.5" style="stroke:#181818;stroke-width:0.5;" width="391.333" x="1588.48" y="15.15"/><ellipse cx="1720.7827" cy="31.15" fill="#ADD1B2" rx="11" ry="11" style="stroke:#181818;stroke-width:1;"/><path d="M1723.7515,36.7906 Q1723.1734,37.0875 1722.5327,37.2281 Q1721.8921,37.3844 1721.189,37.3844 Q1718.689,37.3844 1717.3609,35.7437 Q1716.0484,34.0875 1716.0484,30.9625 Q1716.0484,27.8375 1717.3609,26.1812 Q1718.689,24.525 1721.189,24.525 Q1721.8921,24.525 1722.5327,24.6812 Q1723.189,24.8375 1723.7515,25.1344 L1723.7515,27.8531 Q1723.1265,27.275 1722.5327,27.0094 Q1721.939,26.7281 1721.314,26.7281 Q1719.9702,26.7281 1719.2827,27.8062 Q1718.5952,28.8687 1718.5952,30.9625 Q1718.5952,33.0562 1719.2827,34.1344 Q1719.9702,35.1969 1721.314,35.1969 Q1721.939,35.1969 1722.5327,34.9312 Q1723.1265,34.65 1723.7515,34.0719 L1723.7515,36.7906 Z " fill="#000000"/><text fill="#000000" font-family="sans-serif" font-size="14" lengthAdjust="spacing" textLength="118.2275" x="1741.2827" y="35.9967">UploadController</text><line style="stroke:#181818;stroke-width:0.5;" x1="1589.48" x2="1978.813" y1="47.15" y2="47.15"/><line style="stroke:#181818;stroke-width:0.5;" x1="1589.48" x2="1978.813" y1="55.15" y2="55.15"/><ellipse cx="1599.48" cy="68.7984" fill="#84BE84" rx="3" ry="3" style="stroke:#038048;stroke-width:1;"/><text fill="#000000" font-family="sans-serif" font-size="14" lengthAdjust="spacing" textLength="365.333" x="1608.48" y="72.1451">uploadImage(req: Request, res: Response): Promise</text><ellipse cx="1599.48" cy="85.0953" fill="#84BE84" rx="3" ry="3" style="stroke:#038048;stroke-width:1;"/><text fill="#000000" font-family="sans-serif" font-size="14" lengthAdjust="spacing" textLength="256.2178" x="1608.48" y="88.442">validateImageFile(file: File): Boolean</text><ellipse cx="1599.48" cy="101.3922" fill="#84BE84" rx="3" ry="3" style="stroke:#038048;stroke-width:1;"/><text fill="#000000" font-family="sans-serif" font-size="14" lengthAdjust="spacing" textLength="223.043" x="1608.48" y="104.7389">saveToUploads(file: File): String</text></g><!--class AnalysisController--><g class="entity" data-entity="AnalysisController" data-source-line="43" data-uid="ent0006" id="entity_AnalysisController"><rect fill="#F1F1F1" height="80.5938" rx="2.5" ry="2.5" style="stroke:#181818;stroke-width:0.5;" width="430.2842" x="7" y="278.68"/><ellipse cx="154.4648" cy="294.68" fill="#ADD1B2" rx="11" ry="11" style="stroke:#181818;stroke-width:1;"/><path d="M157.4336,300.3206 Q156.8555,300.6175 156.2148,300.7581 Q155.5742,300.9144 154.8711,300.9144 Q152.3711,300.9144 151.043,299.2738 Q149.7305,297.6175 149.7305,294.4925 Q149.7305,291.3675 151.043,289.7113 Q152.3711,288.055 154.8711,288.055 Q155.5742,288.055 156.2148,288.2113 Q156.8711,288.3675 157.4336,288.6644 L157.4336,291.3831 Q156.8086,290.805 156.2148,290.5394 Q155.6211,290.2581 154.9961,290.2581 Q153.6523,290.2581 152.9648,291.3363 Q152.2773,292.3988 152.2773,294.4925 Q152.2773,296.5863 152.9648,297.6644 Q153.6523,298.7269 154.9961,298.7269 Q155.6211,298.7269 156.2148,298.4613 Q156.8086,298.18 157.4336,297.6019 L157.4336,300.3206 Z " fill="#000000"/><text fill="#000000" font-family="sans-serif" font-size="14" lengthAdjust="spacing" textLength="126.8545" x="174.9648" y="299.5267">AnalysisController</text><line style="stroke:#181818;stroke-width:0.5;" x1="8" x2="436.2842" y1="310.68" y2="310.68"/><line style="stroke:#181818;stroke-width:0.5;" x1="8" x2="436.2842" y1="318.68" y2="318.68"/><ellipse cx="18" cy="332.3284" fill="#84BE84" rx="3" ry="3" style="stroke:#038048;stroke-width:1;"/><text fill="#000000" font-family="sans-serif" font-size="14" lengthAdjust="spacing" textLength="371.8203" x="27" y="335.6751">analyzeImage(req: Request, res: Response): Promise</text><ellipse cx="18" cy="348.6253" fill="#84BE84" rx="3" ry="3" style="stroke:#038048;stroke-width:1;"/><text fill="#000000" font-family="sans-serif" font-size="14" lengthAdjust="spacing" textLength="404.2842" x="27" y="351.972">getAnalysisHistory(req: Request, res: Response): Promise</text></g><!--class ResultController--><g class="entity" data-entity="ResultController" data-source-line="48" data-uid="ent0007" id="entity_ResultController"><rect fill="#F1F1F1" height="96.8906" rx="2.5" ry="2.5" style="stroke:#181818;stroke-width:0.5;" width="410.2686" x="472.01" y="270.53"/><ellipse cx="616.3645" cy="286.53" fill="#ADD1B2" rx="11" ry="11" style="stroke:#181818;stroke-width:1;"/><path d="M619.3332,292.1706 Q618.7551,292.4675 618.1145,292.6081 Q617.4739,292.7644 616.7707,292.7644 Q614.2707,292.7644 612.9426,291.1238 Q611.6301,289.4675 611.6301,286.3425 Q611.6301,283.2175 612.9426,281.5613 Q614.2707,279.905 616.7707,279.905 Q617.4739,279.905 618.1145,280.0613 Q618.7707,280.2175 619.3332,280.5144 L619.3332,283.2331 Q618.7082,282.655 618.1145,282.3894 Q617.5207,282.1081 616.8957,282.1081 Q615.552,282.1081 614.8645,283.1863 Q614.177,284.2488 614.177,286.3425 Q614.177,288.4363 614.8645,289.5144 Q615.552,290.5769 616.8957,290.5769 Q617.5207,290.5769 618.1145,290.3113 Q618.7082,290.03 619.3332,289.4519 L619.3332,292.1706 Z " fill="#000000"/><text fill="#000000" font-family="sans-serif" font-size="14" lengthAdjust="spacing" textLength="113.0596" x="636.8645" y="291.3767">ResultController</text><line style="stroke:#181818;stroke-width:0.5;" x1="473.01" x2="881.2786" y1="302.53" y2="302.53"/><line style="stroke:#181818;stroke-width:0.5;" x1="473.01" x2="881.2786" y1="310.53" y2="310.53"/><ellipse cx="483.01" cy="324.1784" fill="#84BE84" rx="3" ry="3" style="stroke:#038048;stroke-width:1;"/><text fill="#000000" font-family="sans-serif" font-size="14" lengthAdjust="spacing" textLength="379.8867" x="492.01" y="327.5251">getUserResults(req: Request, res: Response): Promise</text><ellipse cx="483.01" cy="340.4753" fill="#84BE84" rx="3" ry="3" style="stroke:#038048;stroke-width:1;"/><text fill="#000000" font-family="sans-serif" font-size="14" lengthAdjust="spacing" textLength="371.5879" x="492.01" y="343.822">getResultById(req: Request, res: Response): Promise</text><ellipse cx="483.01" cy="356.7722" fill="#84BE84" rx="3" ry="3" style="stroke:#038048;stroke-width:1;"/><text fill="#000000" font-family="sans-serif" font-size="14" lengthAdjust="spacing" textLength="384.2686" x="492.01" y="360.1189">generateReport(req: Request, res: Response): Promise</text></g><!--class MLModelService--><g class="entity" data-entity="MLModelService" data-source-line="54" data-uid="ent0008" id="entity_MLModelService"><rect fill="#F1F1F1" height="162.0781" rx="2.5" ry="2.5" style="stroke:#181818;stroke-width:0.5;" width="340.8906" x="51.7" y="550.35"/><ellipse cx="161.0682" cy="566.35" fill="#ADD1B2" rx="11" ry="11" style="stroke:#181818;stroke-width:1;"/><path d="M164.0369,571.9906 Q163.4588,572.2875 162.8182,572.4281 Q162.1775,572.5844 161.4744,572.5844 Q158.9744,572.5844 157.6463,570.9438 Q156.3338,569.2875 156.3338,566.1625 Q156.3338,563.0375 157.6463,561.3813 Q158.9744,559.725 161.4744,559.725 Q162.1775,559.725 162.8182,559.8813 Q163.4744,560.0375 164.0369,560.3344 L164.0369,563.0531 Q163.4119,562.475 162.8182,562.2094 Q162.2244,561.9281 161.5994,561.9281 Q160.2557,561.9281 159.5682,563.0063 Q158.8807,564.0688 158.8807,566.1625 Q158.8807,568.2563 159.5682,569.3344 Q160.2557,570.3969 161.5994,570.3969 Q162.2244,570.3969 162.8182,570.1313 Q163.4119,569.85 164.0369,569.2719 L164.0369,571.9906 Z " fill="#000000"/><text fill="#000000" font-family="sans-serif" font-size="14" lengthAdjust="spacing" textLength="113.6543" x="181.5682" y="571.1967">MLModelService</text><line style="stroke:#181818;stroke-width:0.5;" x1="52.7" x2="391.5906" y1="582.35" y2="582.35"/><rect fill="none" height="6" style="stroke:#C82930;stroke-width:1;" width="6" x="59.7" y="592.9984"/><text fill="#000000" font-family="sans-serif" font-size="14" lengthAdjust="spacing" textLength="121.208" x="71.7" y="599.3451">String modelPath</text><rect fill="none" height="6" style="stroke:#C82930;stroke-width:1;" width="6" x="59.7" y="609.2953"/><text fill="#000000" font-family="sans-serif" font-size="14" lengthAdjust="spacing" textLength="129.8623" x="71.7" y="615.642">Object classLabels</text><rect fill="none" height="6" style="stroke:#C82930;stroke-width:1;" width="6" x="59.7" y="625.5922"/><text fill="#000000" font-family="sans-serif" font-size="14" lengthAdjust="spacing" textLength="123.6553" x="71.7" y="631.9389">Boolean isLoaded</text><line style="stroke:#181818;stroke-width:0.5;" x1="52.7" x2="391.5906" y1="639.2406" y2="639.2406"/><ellipse cx="62.7" cy="652.8891" fill="#84BE84" rx="3" ry="3" style="stroke:#038048;stroke-width:1;"/><text fill="#000000" font-family="sans-serif" font-size="14" lengthAdjust="spacing" textLength="148.2441" x="71.7" y="656.2357">loadModel(): Promise</text><ellipse cx="62.7" cy="669.1859" fill="#84BE84" rx="3" ry="3" style="stroke:#038048;stroke-width:1;"/><text fill="#000000" font-family="sans-serif" font-size="14" lengthAdjust="spacing" textLength="314.8906" x="71.7" y="672.5326">preprocessImage(imagePath: String): Tensor</text><ellipse cx="62.7" cy="685.4828" fill="#84BE84" rx="3" ry="3" style="stroke:#038048;stroke-width:1;"/><text fill="#000000" font-family="sans-serif" font-size="14" lengthAdjust="spacing" textLength="216.3164" x="71.7" y="688.8295">predict(tensor: Tensor): Object</text><ellipse cx="62.7" cy="701.7797" fill="#84BE84" rx="3" ry="3" style="stroke:#038048;stroke-width:1;"/><text fill="#000000" font-family="sans-serif" font-size="14" lengthAdjust="spacing" textLength="302.4561" x="71.7" y="705.1264">getClassification(predictions: Array): String</text></g><!--class AuthMiddleware--><g class="entity" data-entity="AuthMiddleware" data-source-line="64" data-uid="ent0009" id="entity_AuthMiddleware"><rect fill="#F1F1F1" height="80.5938" rx="2.5" ry="2.5" style="stroke:#181818;stroke-width:0.5;" width="465.3457" x="1088.47" y="23.3"/><ellipse cx="1260.1648" cy="39.3" fill="#ADD1B2" rx="11" ry="11" style="stroke:#181818;stroke-width:1;"/><path d="M1263.1336,44.9406 Q1262.5554,45.2375 1261.9148,45.3781 Q1261.2742,45.5344 1260.5711,45.5344 Q1258.0711,45.5344 1256.7429,43.8937 Q1255.4304,42.2375 1255.4304,39.1125 Q1255.4304,35.9875 1256.7429,34.3312 Q1258.0711,32.675 1260.5711,32.675 Q1261.2742,32.675 1261.9148,32.8312 Q1262.5711,32.9875 1263.1336,33.2844 L1263.1336,36.0031 Q1262.5086,35.425 1261.9148,35.1594 Q1261.3211,34.8781 1260.6961,34.8781 Q1259.3523,34.8781 1258.6648,35.9562 Q1257.9773,37.0187 1257.9773,39.1125 Q1257.9773,41.2062 1258.6648,42.2844 Q1259.3523,43.3469 1260.6961,43.3469 Q1261.3211,43.3469 1261.9148,43.0812 Q1262.5086,42.8 1263.1336,42.2219 L1263.1336,44.9406 Z " fill="#000000"/><text fill="#000000" font-family="sans-serif" font-size="14" lengthAdjust="spacing" textLength="113.4561" x="1280.6648" y="44.1467">AuthMiddleware</text><line style="stroke:#181818;stroke-width:0.5;" x1="1089.47" x2="1552.8157" y1="55.3" y2="55.3"/><line style="stroke:#181818;stroke-width:0.5;" x1="1089.47" x2="1552.8157" y1="63.3" y2="63.3"/><ellipse cx="1099.47" cy="76.9484" fill="#84BE84" rx="3" ry="3" style="stroke:#038048;stroke-width:1;"/><text fill="#000000" font-family="sans-serif" font-size="14" lengthAdjust="spacing" textLength="439.3457" x="1108.47" y="80.2951">verifyToken(req: Request, res: Response, next: Function): void</text><ellipse cx="1099.47" cy="93.2453" fill="#84BE84" rx="3" ry="3" style="stroke:#038048;stroke-width:1;"/><text fill="#000000" font-family="sans-serif" font-size="14" lengthAdjust="spacing" textLength="316.8252" x="1108.47" y="96.592">extractUserFromToken(token: String): Object</text></g><!--class FileUploadMiddleware--><g class="entity" data-entity="FileUploadMiddleware" data-source-line="69" data-uid="ent0010" id="entity_FileUploadMiddleware"><rect fill="#F1F1F1" height="96.8906" rx="2.5" ry="2.5" style="stroke:#181818;stroke-width:0.5;" width="272.709" x="1647.79" y="270.53"/><ellipse cx="1702.8227" cy="286.53" fill="#ADD1B2" rx="11" ry="11" style="stroke:#181818;stroke-width:1;"/><path d="M1705.7915,292.1706 Q1705.2133,292.4675 1704.5727,292.6081 Q1703.9321,292.7644 1703.229,292.7644 Q1700.729,292.7644 1699.4008,291.1238 Q1698.0883,289.4675 1698.0883,286.3425 Q1698.0883,283.2175 1699.4008,281.5613 Q1700.729,279.905 1703.229,279.905 Q1703.9321,279.905 1704.5727,280.0613 Q1705.229,280.2175 1705.7915,280.5144 L1705.7915,283.2331 Q1705.1665,282.655 1704.5727,282.3894 Q1703.979,282.1081 1703.354,282.1081 Q1702.0102,282.1081 1701.3227,283.1863 Q1700.6352,284.2488 1700.6352,286.3425 Q1700.6352,288.4363 1701.3227,289.5144 Q1702.0102,290.5769 1703.354,290.5769 Q1703.979,290.5769 1704.5727,290.3113 Q1705.1665,290.03 1705.7915,289.4519 L1705.7915,292.1706 Z " fill="#000000"/><text fill="#000000" font-family="sans-serif" font-size="14" lengthAdjust="spacing" textLength="154.1436" x="1723.3227" y="291.3767">FileUploadMiddleware</text><line style="stroke:#181818;stroke-width:0.5;" x1="1648.79" x2="1919.499" y1="302.53" y2="302.53"/><ellipse cx="1658.79" cy="316.1784" fill="none" rx="3" ry="3" style="stroke:#038048;stroke-width:1;"/><text fill="#000000" font-family="sans-serif" font-size="14" lengthAdjust="spacing" textLength="189.9639" x="1667.79" y="319.5251">multerConfig: MulterConfig</text><line style="stroke:#181818;stroke-width:0.5;" x1="1648.79" x2="1919.499" y1="326.8269" y2="326.8269"/><ellipse cx="1658.79" cy="340.4753" fill="#84BE84" rx="3" ry="3" style="stroke:#038048;stroke-width:1;"/><text fill="#000000" font-family="sans-serif" font-size="14" lengthAdjust="spacing" textLength="246.709" x="1667.79" y="343.822">validateFileType(file: File): Boolean</text><ellipse cx="1658.79" cy="356.7722" fill="#84BE84" rx="3" ry="3" style="stroke:#038048;stroke-width:1;"/><text fill="#000000" font-family="sans-serif" font-size="14" lengthAdjust="spacing" textLength="191.0439" x="1667.79" y="360.1189">generateFileName(): String</text></g><!--link User to Result--><g class="link" data-entity-1="User" data-entity-2="Result" data-source-line="75" data-uid="lnk11" id="link_User_Result"><path codeLine="75" d="M921.9899,445.9132 C888.6799,471.0032 874.4774,481.71 841.5674,506.5" fill="none" id="User-Result" style="stroke:#181818;stroke-width:1;"/><line style="stroke:#181818;stroke-width:1;" x1="922.7784" x2="927.5916" y1="440.3116" y2="446.7016"/><line style="stroke:#181818;stroke-width:1;" x1="920.3821" x2="925.1953" y1="442.1165" y2="448.5066"/><line style="stroke:#181818;stroke-width:1;" x1="921.9899" x2="928.38" y1="445.9132" y2="441.1"/><line style="stroke:#181818;stroke-width:1;" x1="833.58" x2="830.8" y1="512.5167" y2="522.1225"/><line style="stroke:#181818;stroke-width:1;" x1="833.58" x2="823.58" y1="512.5167" y2="512.5375"/><line style="stroke:#181818;stroke-width:1;" x1="833.58" x2="827.19" y1="512.5167" y2="517.33"/><ellipse cx="838.3724" cy="508.9066" fill="none" rx="4" ry="4" style="stroke:#181818;stroke-width:1;"/><text fill="#000000" font-family="sans-serif" font-size="13" lengthAdjust="spacing" textLength="33.5981" x="884.14" y="483.8169">owns</text></g><!--link AuthController to User--><g class="link" data-entity-1="AuthController" data-entity-2="User" data-source-line="76" data-uid="lnk12" id="link_AuthController_User"><path codeLine="76" d="M908.34,120.52 C929.03,143.1 949.7089,165.6841 974.1389,192.3741" fill="none" id="AuthController-to-User" style="stroke:#181818;stroke-width:1;"/><polygon fill="#181818" points="978.19,196.8,975.0639,187.4604,974.8141,193.1118,969.1627,192.8619,978.19,196.8" style="stroke:#181818;stroke-width:1;"/><text fill="#000000" font-family="sans-serif" font-size="13" lengthAdjust="spacing" textLength="59.8584" x="946.54" y="163.2569">manages</text></g><!--link UploadController to FileUploadMiddleware--><g class="link" data-entity-1="UploadController" data-entity-2="FileUploadMiddleware" data-source-line="77" data-uid="lnk13" id="link_UploadController_FileUploadMiddleware"><path codeLine="77" d="M1784.14,112.26 C1784.14,157.41 1784.14,218.87 1784.14,264.1" fill="none" id="UploadController-to-FileUploadMiddleware" style="stroke:#181818;stroke-width:1;"/><polygon fill="#181818" points="1784.14,270.1,1788.14,261.1,1784.14,265.1,1780.14,261.1,1784.14,270.1" style="stroke:#181818;stroke-width:1;"/><text fill="#000000" font-family="sans-serif" font-size="13" lengthAdjust="spacing" textLength="29.7832" x="1785.14" y="163.2569">uses</text></g><!--link AnalysisController to MLModelService--><g class="link" data-entity-1="AnalysisController" data-entity-2="MLModelService" data-source-line="78" data-uid="lnk14" id="link_AnalysisController_MLModelService"><path codeLine="78" d="M222.14,359.6 C222.14,407.41 222.14,482.97 222.14,544.11" fill="none" id="AnalysisController-to-MLModelService" style="stroke:#181818;stroke-width:1;"/><polygon fill="#181818" points="222.14,550.11,226.14,541.11,222.14,545.11,218.14,541.11,222.14,550.11" style="stroke:#181818;stroke-width:1;"/><text fill="#000000" font-family="sans-serif" font-size="13" lengthAdjust="spacing" textLength="29.7832" x="223.14" y="483.8169">uses</text></g><!--link AnalysisController to Result--><g class="link" data-entity-1="AnalysisController" data-entity-2="Result" data-source-line="79" data-uid="lnk15" id="link_AnalysisController_Result"><path codeLine="79" d="M280.23,359.6 C338.39,399.28 425.6637,458.8184 506.5837,514.0284" fill="none" id="AnalysisController-to-Result" style="stroke:#181818;stroke-width:1;"/><polygon fill="#181818" points="511.54,517.41,506.3599,509.0334,507.4097,514.592,501.8512,515.6418,511.54,517.41" style="stroke:#181818;stroke-width:1;"/><text fill="#000000" font-family="sans-serif" font-size="13" lengthAdjust="spacing" textLength="48.3247" x="464.28" y="483.8169">creates</text></g><!--link ResultController to Result--><g class="link" data-entity-1="ResultController" data-entity-2="Result" data-source-line="80" data-uid="lnk16" id="link_ResultController_Result"><path codeLine="80" d="M677.14,367.8 C677.14,407.59 677.14,459.86 677.14,511.4" fill="none" id="ResultController-to-Result" style="stroke:#181818;stroke-width:1;"/><polygon fill="#181818" points="677.14,517.4,681.14,508.4,677.14,512.4,673.14,508.4,677.14,517.4" style="stroke:#181818;stroke-width:1;"/><text fill="#000000" font-family="sans-serif" font-size="13" lengthAdjust="spacing" textLength="48.2168" x="678.14" y="483.8169">queries</text></g><!--link AuthMiddleware to User--><g class="link" data-entity-1="AuthMiddleware" data-entity-2="User" data-source-line="81" data-uid="lnk17" id="link_AuthMiddleware_User"><path codeLine="81" d="M1284.89,104.19 C1261.89,129.31 1234.8321,158.865 1204.1821,192.335" fill="none" id="AuthMiddleware-to-User" style="stroke:#181818;stroke-width:1;"/><polygon fill="#181818" points="1200.13,196.76,1209.1582,192.824,1203.5068,193.0725,1203.2582,187.4211,1200.13,196.76" style="stroke:#181818;stroke-width:1;"/><text fill="#000000" font-family="sans-serif" font-size="13" lengthAdjust="spacing" textLength="58.9697" x="1240.48" y="163.2569">validates</text></g><!--SRC=[bLLHJzim47xlh_1ZKEaVY2Qa0aAhH5a5vMcQ9XDVWZSd3cUdh0F- -yvntCO9eAKFRNE-ktpttNtdJ75ZsBq1P2ypHf_5dKLP5Uod5D4pb5ogo59JvBF6s2sNQEmDBo6oqal6nXfrBXLiP6ORx8ukkGMM8T2FMDgUhQb5ppRVSIMTOTDXI0AObFdi9oaxrre1htn00HKW1ImR-xZLlw5AJeAhT_0ls7XC2VtdAVlsy0ioIuvaBgM1aChUWccKDSdnw8itVVznDdkRpRAMLM_wY5UVV2LOG-IlOXPboGkgpJuE20D1P4djQrhSDEK3zItJLIu5L1dq4_UyJOz7Nd6r_piWDoPy_c8ijp9x2yuhXoOvOEfH71T_5bEzkRowXLgZTJITDtaEU21mwJ8RQIx1qbYrH7hOH_PSfovqPL4hTPZEEK8XZGLC49vIOlYf0MDF6O9nJwQcQc7OCAKBMKq9881X42P4nHFqVu67QkzhfRaOrzkqTj-12LY2Fjh0AuV7WKgP-pkKXk4xs6eFmCH-dK2EFUdQDiOPZSeqgaFIhzHOZVkfpFdP6oEYp6wj1QbEm-IZplShCItGJtutzXCBML-ljG1r1xYJ6GpMHkcEZXkXqtWRUCqVG7KQxnhBfBccRe880k2YpPqC4TEIe3MSWJ4VYtmBbT5uy7TB9R6jBPmTrHlukt30P2upxXPGqjj5ALiYylrxmqM2NqiX53np3FNFTu0ot_kL_GcXfwo2FvO6jwdQzr3-dUvMxPnEa6VjE5nHzJwPTT-zCeVxnqd0Ys8CggJX0BnmYxT8sRht5ClFvTZkwy_K5sR6dRahCecOQI_crzV5Gh-4woHb-fbM-c0zBXPd_XPFMKbQBC3CHYl5-RnRLUhk84evLhSB6Spbvyu7aFvECREHF2ClQYLAyDNq0FMg2LIQVm00]--></g></svg>