<svg xmlns="http://www.w3.org/2000/svg" xmlns:xlink="http://www.w3.org/1999/xlink" contentStyleType="text/css" data-diagram-type="DESCRIPTION" height="699px" preserveAspectRatio="none" style="width:2220px;height:699px;background:#FFFFFF;" version="1.1" viewBox="0 0 2220 699" width="2220px" zoomAndPan="magnify"><defs/><g><!--cluster Frontend Layer--><g class="cluster" data-entity="Frontend Layer" data-source-line="1" data-uid="ent0002" id="cluster_Frontend Layer"><path d="M568.5,300.59 L690.4961,300.59 A3.75,3.75 0 0 1 692.9961,303.09 L699.9961,322.8869 L2196.5,322.8869 A2.5,2.5 0 0 1 2199,325.3869 L2199,689.98 A2.5,2.5 0 0 1 2196.5,692.48 L568.5,692.48 A2.5,2.5 0 0 1 566,689.98 L566,303.09 A2.5,2.5 0 0 1 568.5,300.59" fill="none" style="stroke:#000000;stroke-width:1.5;"/><line style="stroke:#000000;stroke-width:1.5;" x1="566" x2="699.9961" y1="322.8869" y2="322.8869"/><text fill="#000000" font-family="sans-serif" font-size="14" font-weight="bold" lengthAdjust="spacing" textLength="120.9961" x="570" y="315.5851">Frontend Layer</text></g><!--cluster React Application--><g class="cluster" data-entity="React Application" data-source-line="2" data-uid="ent0003" id="cluster_React Application"><path d="M592.5,343.59 L732.3857,343.59 A3.75,3.75 0 0 1 734.8857,346.09 L741.8857,365.8869 L1504.5,365.8869 A2.5,2.5 0 0 1 1507,368.3869 L1507,665.98 A2.5,2.5 0 0 1 1504.5,668.48 L592.5,668.48 A2.5,2.5 0 0 1 590,665.98 L590,346.09 A2.5,2.5 0 0 1 592.5,343.59" fill="none" style="stroke:#000000;stroke-width:1.5;"/><line style="stroke:#000000;stroke-width:1.5;" x1="590" x2="741.8857" y1="365.8869" y2="365.8869"/><text fill="#000000" font-family="sans-serif" font-size="14" font-weight="bold" lengthAdjust="spacing" textLength="138.8857" x="594" y="358.5851">React Application</text></g><!--cluster Services--><g class="cluster" data-entity="Services" data-source-line="11" data-uid="ent0010" id="cluster_Services"><path d="M1533.5,343.59 L1601.0342,343.59 A3.75,3.75 0 0 1 1603.5342,346.09 L1610.5342,365.8869 L2172.5,365.8869 A2.5,2.5 0 0 1 2175,368.3869 L2175,559.68 A2.5,2.5 0 0 1 2172.5,562.18 L1533.5,562.18 A2.5,2.5 0 0 1 1531,559.68 L1531,346.09 A2.5,2.5 0 0 1 1533.5,343.59" fill="none" style="stroke:#000000;stroke-width:1.5;"/><line style="stroke:#000000;stroke-width:1.5;" x1="1531" x2="1610.5342" y1="365.8869" y2="365.8869"/><text fill="#000000" font-family="sans-serif" font-size="14" font-weight="bold" lengthAdjust="spacing" textLength="66.5342" x="1535" y="358.5851">Services</text></g><!--cluster Backend Layer--><g class="cluster" data-entity="Backend Layer" data-source-line="17" data-uid="ent0013" id="cluster_Backend Layer"><path d="M462.5,6 L579.4785,6 A3.75,3.75 0 0 1 581.9785,8.5 L588.9785,28.2969 L1901.5,28.2969 A2.5,2.5 0 0 1 1904,30.7969 L1904,274.09 A2.5,2.5 0 0 1 1901.5,276.59 L462.5,276.59 A2.5,2.5 0 0 1 460,274.09 L460,8.5 A2.5,2.5 0 0 1 462.5,6" fill="none" style="stroke:#000000;stroke-width:1.5;"/><line style="stroke:#000000;stroke-width:1.5;" x1="460" x2="588.9785" y1="28.2969" y2="28.2969"/><text fill="#000000" font-family="sans-serif" font-size="14" font-weight="bold" lengthAdjust="spacing" textLength="115.9785" x="464" y="20.9951">Backend Layer</text></g><!--cluster Express Server--><g class="cluster" data-entity="Express Server" data-source-line="18" data-uid="ent0014" id="cluster_Express Server"><path d="M486.5,49 L606.0625,49 A3.75,3.75 0 0 1 608.5625,51.5 L615.5625,71.2969 L1255.5,71.2969 A2.5,2.5 0 0 1 1258,73.7969 L1258,250.09 A2.5,2.5 0 0 1 1255.5,252.59 L486.5,252.59 A2.5,2.5 0 0 1 484,250.09 L484,51.5 A2.5,2.5 0 0 1 486.5,49" fill="none" style="stroke:#000000;stroke-width:1.5;"/><line style="stroke:#000000;stroke-width:1.5;" x1="484" x2="615.5625" y1="71.2969" y2="71.2969"/><text fill="#000000" font-family="sans-serif" font-size="14" font-weight="bold" lengthAdjust="spacing" textLength="118.5625" x="488" y="63.9951">Express Server</text></g><!--cluster Middleware--><g class="cluster" data-entity="Middleware" data-source-line="26" data-uid="ent0020" id="cluster_Middleware"><path d="M1284.5,155.29 L1377.3477,155.29 A3.75,3.75 0 0 1 1379.8477,157.79 L1386.8477,177.5869 L1877.5,177.5869 A2.5,2.5 0 0 1 1880,180.0869 L1880,250.09 A2.5,2.5 0 0 1 1877.5,252.59 L1284.5,252.59 A2.5,2.5 0 0 1 1282,250.09 L1282,157.79 A2.5,2.5 0 0 1 1284.5,155.29" fill="none" style="stroke:#000000;stroke-width:1.5;"/><line style="stroke:#000000;stroke-width:1.5;" x1="1282" x2="1386.8477" y1="177.5869" y2="177.5869"/><text fill="#000000" font-family="sans-serif" font-size="14" font-weight="bold" lengthAdjust="spacing" textLength="91.8477" x="1286" y="170.2851">Middleware</text></g><!--cluster Data Layer--><g class="cluster" data-entity="Data Layer" data-source-line="38" data-uid="ent0026" id="cluster_Data Layer"><path d="M8.5,300.59 L95.4756,300.59 A3.75,3.75 0 0 1 97.9756,303.09 L104.9756,322.8869 L539.5,322.8869 A2.5,2.5 0 0 1 542,325.3869 L542,583.68 A2.5,2.5 0 0 1 539.5,586.18 L8.5,586.18 A2.5,2.5 0 0 1 6,583.68 L6,303.09 A2.5,2.5 0 0 1 8.5,300.59" fill="none" style="stroke:#000000;stroke-width:1.5;"/><line style="stroke:#000000;stroke-width:1.5;" x1="6" x2="104.9756" y1="322.8869" y2="322.8869"/><text fill="#000000" font-family="sans-serif" font-size="14" font-weight="bold" lengthAdjust="spacing" textLength="85.9756" x="10" y="315.5851">Data Layer</text></g><!--cluster Models--><g class="cluster" data-entity="Models" data-source-line="39" data-uid="ent0027" id="cluster_Models"><path d="M205.5,343.59 L262.6982,343.59 A3.75,3.75 0 0 1 265.1982,346.09 L272.1982,365.8869 L515.5,365.8869 A2.5,2.5 0 0 1 518,368.3869 L518,438.39 A2.5,2.5 0 0 1 515.5,440.89 L205.5,440.89 A2.5,2.5 0 0 1 203,438.39 L203,346.09 A2.5,2.5 0 0 1 205.5,343.59" fill="none" style="stroke:#000000;stroke-width:1.5;"/><line style="stroke:#000000;stroke-width:1.5;" x1="203" x2="272.1982" y1="365.8869" y2="365.8869"/><text fill="#000000" font-family="sans-serif" font-size="14" font-weight="bold" lengthAdjust="spacing" textLength="56.1982" x="207" y="358.5851">Models</text></g><!--cluster External--><g class="cluster" data-entity="External" data-source-line="44" data-uid="ent0030" id="cluster_External"><path d="M32.5,464.89 L99.3984,464.89 A3.75,3.75 0 0 1 101.8984,467.39 L108.8984,487.1869 L515.5,487.1869 A2.5,2.5 0 0 1 518,489.6869 L518,559.68 A2.5,2.5 0 0 1 515.5,562.18 L32.5,562.18 A2.5,2.5 0 0 1 30,559.68 L30,467.39 A2.5,2.5 0 0 1 32.5,464.89" fill="none" style="stroke:#000000;stroke-width:1.5;"/><line style="stroke:#000000;stroke-width:1.5;" x1="30" x2="108.8984" y1="487.1869" y2="487.1869"/><text fill="#000000" font-family="sans-serif" font-size="14" font-weight="bold" lengthAdjust="spacing" textLength="65.8984" x="34" y="479.8851">External</text></g><!--entity App--><g class="entity" data-entity="App" data-source-line="3" data-uid="ent0004" id="entity_App"><rect fill="#F1F1F1" height="46.2969" rx="2.5" ry="2.5" style="stroke:#181818;stroke-width:0.5;" width="153.0801" x="1000.46" y="378.59"/><rect fill="#F1F1F1" height="10" style="stroke:#181818;stroke-width:0.5;" width="15" x="1133.5401" y="383.59"/><rect fill="#F1F1F1" height="2" style="stroke:#181818;stroke-width:0.5;" width="4" x="1131.5401" y="385.59"/><rect fill="#F1F1F1" height="2" style="stroke:#181818;stroke-width:0.5;" width="4" x="1131.5401" y="389.59"/><text fill="#000000" font-family="sans-serif" font-size="14" lengthAdjust="spacing" textLength="113.0801" x="1015.46" y="411.5851">App Component</text></g><!--entity Auth--><g class="entity" data-entity="Auth" data-source-line="4" data-uid="ent0005" id="entity_Auth"><rect fill="#F1F1F1" height="46.2969" rx="2.5" ry="2.5" style="stroke:#181818;stroke-width:0.5;" width="235.7949" x="606.1" y="499.89"/><rect fill="#F1F1F1" height="10" style="stroke:#181818;stroke-width:0.5;" width="15" x="821.8949" y="504.89"/><rect fill="#F1F1F1" height="2" style="stroke:#181818;stroke-width:0.5;" width="4" x="819.8949" y="506.89"/><rect fill="#F1F1F1" height="2" style="stroke:#181818;stroke-width:0.5;" width="4" x="819.8949" y="510.89"/><text fill="#000000" font-family="sans-serif" font-size="14" lengthAdjust="spacing" textLength="195.7949" x="621.1" y="532.8851">Authentication Components</text></g><!--entity Upload--><g class="entity" data-entity="Upload" data-source-line="5" data-uid="ent0006" id="entity_Upload"><rect fill="#F1F1F1" height="46.2969" rx="2.5" ry="2.5" style="stroke:#181818;stroke-width:0.5;" width="182.0781" x="876.96" y="499.89"/><rect fill="#F1F1F1" height="10" style="stroke:#181818;stroke-width:0.5;" width="15" x="1039.0381" y="504.89"/><rect fill="#F1F1F1" height="2" style="stroke:#181818;stroke-width:0.5;" width="4" x="1037.0381" y="506.89"/><rect fill="#F1F1F1" height="2" style="stroke:#181818;stroke-width:0.5;" width="4" x="1037.0381" y="510.89"/><text fill="#000000" font-family="sans-serif" font-size="14" lengthAdjust="spacing" textLength="142.0781" x="891.96" y="532.8851">Upload Components</text></g><!--entity Results--><g class="entity" data-entity="Results" data-source-line="6" data-uid="ent0007" id="entity_Results"><rect fill="#F1F1F1" height="46.2969" rx="2.5" ry="2.5" style="stroke:#181818;stroke-width:0.5;" width="184.2041" x="1093.9" y="499.89"/><rect fill="#F1F1F1" height="10" style="stroke:#181818;stroke-width:0.5;" width="15" x="1258.1041" y="504.89"/><rect fill="#F1F1F1" height="2" style="stroke:#181818;stroke-width:0.5;" width="4" x="1256.1041" y="506.89"/><rect fill="#F1F1F1" height="2" style="stroke:#181818;stroke-width:0.5;" width="4" x="1256.1041" y="510.89"/><text fill="#000000" font-family="sans-serif" font-size="14" lengthAdjust="spacing" textLength="144.2041" x="1108.9" y="532.8851">Results Components</text></g><!--entity Profile--><g class="entity" data-entity="Profile" data-source-line="7" data-uid="ent0008" id="entity_Profile"><rect fill="#F1F1F1" height="46.2969" rx="2.5" ry="2.5" style="stroke:#181818;stroke-width:0.5;" width="177.1084" x="1313.45" y="499.89"/><rect fill="#F1F1F1" height="10" style="stroke:#181818;stroke-width:0.5;" width="15" x="1470.5584" y="504.89"/><rect fill="#F1F1F1" height="2" style="stroke:#181818;stroke-width:0.5;" width="4" x="1468.5584" y="506.89"/><rect fill="#F1F1F1" height="2" style="stroke:#181818;stroke-width:0.5;" width="4" x="1468.5584" y="510.89"/><text fill="#000000" font-family="sans-serif" font-size="14" lengthAdjust="spacing" textLength="137.1084" x="1328.45" y="532.8851">Profile Components</text></g><!--entity UI--><g class="entity" data-entity="UI" data-source-line="8" data-uid="ent0009" id="entity_UI"><rect fill="#F1F1F1" height="46.2969" rx="2.5" ry="2.5" style="stroke:#181818;stroke-width:0.5;" width="193.5078" x="980.25" y="606.18"/><rect fill="#F1F1F1" height="10" style="stroke:#181818;stroke-width:0.5;" width="15" x="1153.7578" y="611.18"/><rect fill="#F1F1F1" height="2" style="stroke:#181818;stroke-width:0.5;" width="4" x="1151.7578" y="613.18"/><rect fill="#F1F1F1" height="2" style="stroke:#181818;stroke-width:0.5;" width="4" x="1151.7578" y="617.18"/><text fill="#000000" font-family="sans-serif" font-size="14" lengthAdjust="spacing" textLength="153.5078" x="995.25" y="639.1751">UI Component Library</text></g><!--entity API--><g class="entity" data-entity="API" data-source-line="12" data-uid="ent0011" id="entity_API"><rect fill="#F1F1F1" height="46.2969" rx="2.5" ry="2.5" style="stroke:#181818;stroke-width:0.5;" width="118.3398" x="2029.83" y="499.89"/><rect fill="#F1F1F1" height="10" style="stroke:#181818;stroke-width:0.5;" width="15" x="2128.1698" y="504.89"/><rect fill="#F1F1F1" height="2" style="stroke:#181818;stroke-width:0.5;" width="4" x="2126.1698" y="506.89"/><rect fill="#F1F1F1" height="2" style="stroke:#181818;stroke-width:0.5;" width="4" x="2126.1698" y="510.89"/><text fill="#000000" font-family="sans-serif" font-size="14" lengthAdjust="spacing" textLength="78.3398" x="2044.83" y="532.8851">API Service</text></g><!--entity ReportGen--><g class="entity" data-entity="ReportGen" data-source-line="13" data-uid="ent0012" id="entity_ReportGen"><rect fill="#F1F1F1" height="46.2969" rx="2.5" ry="2.5" style="stroke:#181818;stroke-width:0.5;" width="162.582" x="1996.71" y="378.59"/><rect fill="#F1F1F1" height="10" style="stroke:#181818;stroke-width:0.5;" width="15" x="2139.292" y="383.59"/><rect fill="#F1F1F1" height="2" style="stroke:#181818;stroke-width:0.5;" width="4" x="2137.292" y="385.59"/><rect fill="#F1F1F1" height="2" style="stroke:#181818;stroke-width:0.5;" width="4" x="2137.292" y="389.59"/><text fill="#000000" font-family="sans-serif" font-size="14" lengthAdjust="spacing" textLength="122.582" x="2011.71" y="411.5851">Report Generator</text></g><!--entity MLService--><g class="entity" data-entity="MLService" data-source-line="33" data-uid="ent0024" id="entity_MLService"><rect fill="#F1F1F1" height="46.2969" rx="2.5" ry="2.5" style="stroke:#181818;stroke-width:0.5;" width="162.5547" x="1546.72" y="378.59"/><rect fill="#F1F1F1" height="10" style="stroke:#181818;stroke-width:0.5;" width="15" x="1689.2747" y="383.59"/><rect fill="#F1F1F1" height="2" style="stroke:#181818;stroke-width:0.5;" width="4" x="1687.2747" y="385.59"/><rect fill="#F1F1F1" height="2" style="stroke:#181818;stroke-width:0.5;" width="4" x="1687.2747" y="389.59"/><text fill="#000000" font-family="sans-serif" font-size="14" lengthAdjust="spacing" textLength="122.5547" x="1561.72" y="411.5851">ML Model Service</text></g><!--entity FileService--><g class="entity" data-entity="FileService" data-source-line="34" data-uid="ent0025" id="entity_FileService"><rect fill="#F1F1F1" height="46.2969" rx="2.5" ry="2.5" style="stroke:#181818;stroke-width:0.5;" width="217.3105" x="1744.34" y="378.59"/><rect fill="#F1F1F1" height="10" style="stroke:#181818;stroke-width:0.5;" width="15" x="1941.6505" y="383.59"/><rect fill="#F1F1F1" height="2" style="stroke:#181818;stroke-width:0.5;" width="4" x="1939.6505" y="385.59"/><rect fill="#F1F1F1" height="2" style="stroke:#181818;stroke-width:0.5;" width="4" x="1939.6505" y="389.59"/><text fill="#000000" font-family="sans-serif" font-size="14" lengthAdjust="spacing" textLength="177.3105" x="1759.34" y="411.5851">File Management Service</text></g><!--entity Router--><g class="entity" data-entity="Router" data-source-line="19" data-uid="ent0015" id="entity_Router"><rect fill="#F1F1F1" height="46.2969" rx="2.5" ry="2.5" style="stroke:#181818;stroke-width:0.5;" width="146.4492" x="1091.78" y="84"/><rect fill="#F1F1F1" height="10" style="stroke:#181818;stroke-width:0.5;" width="15" x="1218.2292" y="89"/><rect fill="#F1F1F1" height="2" style="stroke:#181818;stroke-width:0.5;" width="4" x="1216.2292" y="91"/><rect fill="#F1F1F1" height="2" style="stroke:#181818;stroke-width:0.5;" width="4" x="1216.2292" y="95"/><text fill="#000000" font-family="sans-serif" font-size="14" lengthAdjust="spacing" textLength="106.4492" x="1106.78" y="116.9951">Express Router</text></g><!--entity AuthCtrl--><g class="entity" data-entity="AuthCtrl" data-source-line="20" data-uid="ent0016" id="entity_AuthCtrl"><rect fill="#F1F1F1" height="46.2969" rx="2.5" ry="2.5" style="stroke:#181818;stroke-width:0.5;" width="146.4355" x="499.78" y="190.29"/><rect fill="#F1F1F1" height="10" style="stroke:#181818;stroke-width:0.5;" width="15" x="626.2155" y="195.29"/><rect fill="#F1F1F1" height="2" style="stroke:#181818;stroke-width:0.5;" width="4" x="624.2155" y="197.29"/><rect fill="#F1F1F1" height="2" style="stroke:#181818;stroke-width:0.5;" width="4" x="624.2155" y="201.29"/><text fill="#000000" font-family="sans-serif" font-size="14" lengthAdjust="spacing" textLength="106.4355" x="514.78" y="223.2851">Auth Controller</text></g><!--entity UploadCtrl--><g class="entity" data-entity="UploadCtrl" data-source-line="21" data-uid="ent0017" id="entity_UploadCtrl"><rect fill="#F1F1F1" height="46.2969" rx="2.5" ry="2.5" style="stroke:#181818;stroke-width:0.5;" width="162.6777" x="1079.66" y="190.29"/><rect fill="#F1F1F1" height="10" style="stroke:#181818;stroke-width:0.5;" width="15" x="1222.3377" y="195.29"/><rect fill="#F1F1F1" height="2" style="stroke:#181818;stroke-width:0.5;" width="4" x="1220.3377" y="197.29"/><rect fill="#F1F1F1" height="2" style="stroke:#181818;stroke-width:0.5;" width="4" x="1220.3377" y="201.29"/><text fill="#000000" font-family="sans-serif" font-size="14" lengthAdjust="spacing" textLength="122.6777" x="1094.66" y="223.2851">Upload Controller</text></g><!--entity AnalysisCtrl--><g class="entity" data-entity="AnalysisCtrl" data-source-line="22" data-uid="ent0018" id="entity_AnalysisCtrl"><rect fill="#F1F1F1" height="46.2969" rx="2.5" ry="2.5" style="stroke:#181818;stroke-width:0.5;" width="171.3047" x="873.35" y="190.29"/><rect fill="#F1F1F1" height="10" style="stroke:#181818;stroke-width:0.5;" width="15" x="1024.6547" y="195.29"/><rect fill="#F1F1F1" height="2" style="stroke:#181818;stroke-width:0.5;" width="4" x="1022.6547" y="197.29"/><rect fill="#F1F1F1" height="2" style="stroke:#181818;stroke-width:0.5;" width="4" x="1022.6547" y="201.29"/><text fill="#000000" font-family="sans-serif" font-size="14" lengthAdjust="spacing" textLength="131.3047" x="888.35" y="223.2851">Analysis Controller</text></g><!--entity ResultCtrl--><g class="entity" data-entity="ResultCtrl" data-source-line="23" data-uid="ent0019" id="entity_ResultCtrl"><rect fill="#F1F1F1" height="46.2969" rx="2.5" ry="2.5" style="stroke:#181818;stroke-width:0.5;" width="157.5098" x="681.25" y="190.29"/><rect fill="#F1F1F1" height="10" style="stroke:#181818;stroke-width:0.5;" width="15" x="818.7598" y="195.29"/><rect fill="#F1F1F1" height="2" style="stroke:#181818;stroke-width:0.5;" width="4" x="816.7598" y="197.29"/><rect fill="#F1F1F1" height="2" style="stroke:#181818;stroke-width:0.5;" width="4" x="816.7598" y="201.29"/><text fill="#000000" font-family="sans-serif" font-size="14" lengthAdjust="spacing" textLength="117.5098" x="696.25" y="223.2851">Result Controller</text></g><!--entity AuthMW--><g class="entity" data-entity="AuthMW" data-source-line="27" data-uid="ent0021" id="entity_AuthMW"><rect fill="#F1F1F1" height="46.2969" rx="2.5" ry="2.5" style="stroke:#181818;stroke-width:0.5;" width="157.9063" x="1298.05" y="190.29"/><rect fill="#F1F1F1" height="10" style="stroke:#181818;stroke-width:0.5;" width="15" x="1435.9563" y="195.29"/><rect fill="#F1F1F1" height="2" style="stroke:#181818;stroke-width:0.5;" width="4" x="1433.9563" y="197.29"/><rect fill="#F1F1F1" height="2" style="stroke:#181818;stroke-width:0.5;" width="4" x="1433.9563" y="201.29"/><text fill="#000000" font-family="sans-serif" font-size="14" lengthAdjust="spacing" textLength="117.9063" x="1313.05" y="223.2851">Auth Middleware</text></g><!--entity UploadMW--><g class="entity" data-entity="UploadMW" data-source-line="28" data-uid="ent0022" id="entity_UploadMW"><rect fill="#F1F1F1" height="46.2969" rx="2.5" ry="2.5" style="stroke:#181818;stroke-width:0.5;" width="174.1484" x="1490.93" y="190.29"/><rect fill="#F1F1F1" height="10" style="stroke:#181818;stroke-width:0.5;" width="15" x="1645.0784" y="195.29"/><rect fill="#F1F1F1" height="2" style="stroke:#181818;stroke-width:0.5;" width="4" x="1643.0784" y="197.29"/><rect fill="#F1F1F1" height="2" style="stroke:#181818;stroke-width:0.5;" width="4" x="1643.0784" y="201.29"/><text fill="#000000" font-family="sans-serif" font-size="14" lengthAdjust="spacing" textLength="134.1484" x="1505.93" y="223.2851">Upload Middleware</text></g><!--entity CORS--><g class="entity" data-entity="CORS" data-source-line="29" data-uid="ent0023" id="entity_CORS"><rect fill="#F1F1F1" height="46.2969" rx="2.5" ry="2.5" style="stroke:#181818;stroke-width:0.5;" width="164.5029" x="1699.75" y="190.29"/><rect fill="#F1F1F1" height="10" style="stroke:#181818;stroke-width:0.5;" width="15" x="1844.2529" y="195.29"/><rect fill="#F1F1F1" height="2" style="stroke:#181818;stroke-width:0.5;" width="4" x="1842.2529" y="197.29"/><rect fill="#F1F1F1" height="2" style="stroke:#181818;stroke-width:0.5;" width="4" x="1842.2529" y="201.29"/><text fill="#000000" font-family="sans-serif" font-size="14" lengthAdjust="spacing" textLength="124.5029" x="1714.75" y="223.2851">CORS Middleware</text></g><!--entity UserModel--><g class="entity" data-entity="UserModel" data-source-line="40" data-uid="ent0028" id="entity_UserModel"><rect fill="#F1F1F1" height="46.2969" rx="2.5" ry="2.5" style="stroke:#181818;stroke-width:0.5;" width="118.3945" x="218.8" y="378.59"/><rect fill="#F1F1F1" height="10" style="stroke:#181818;stroke-width:0.5;" width="15" x="317.1945" y="383.59"/><rect fill="#F1F1F1" height="2" style="stroke:#181818;stroke-width:0.5;" width="4" x="315.1945" y="385.59"/><rect fill="#F1F1F1" height="2" style="stroke:#181818;stroke-width:0.5;" width="4" x="315.1945" y="389.59"/><text fill="#000000" font-family="sans-serif" font-size="14" lengthAdjust="spacing" textLength="78.3945" x="233.8" y="411.5851">User Model</text></g><!--entity ResultModel--><g class="entity" data-entity="ResultModel" data-source-line="41" data-uid="ent0029" id="entity_ResultModel"><rect fill="#F1F1F1" height="46.2969" rx="2.5" ry="2.5" style="stroke:#181818;stroke-width:0.5;" width="130.3711" x="371.81" y="378.59"/><rect fill="#F1F1F1" height="10" style="stroke:#181818;stroke-width:0.5;" width="15" x="482.1811" y="383.59"/><rect fill="#F1F1F1" height="2" style="stroke:#181818;stroke-width:0.5;" width="4" x="480.1811" y="385.59"/><rect fill="#F1F1F1" height="2" style="stroke:#181818;stroke-width:0.5;" width="4" x="480.1811" y="389.59"/><text fill="#000000" font-family="sans-serif" font-size="14" lengthAdjust="spacing" textLength="90.3711" x="386.81" y="411.5851">Result Model</text></g><!--entity MongoDB--><g class="entity" data-entity="MongoDB" data-source-line="45" data-uid="ent0031" id="entity_MongoDB"><path d="M45.7,510.39 C45.7,500.39 125.0027,500.39 125.0027,500.39 C125.0027,500.39 204.3055,500.39 204.3055,510.39 L204.3055,535.6869 C204.3055,545.6869 125.0027,545.6869 125.0027,545.6869 C125.0027,545.6869 45.7,545.6869 45.7,535.6869 L45.7,510.39" fill="#F1F1F1" style="stroke:#181818;stroke-width:0.5;"/><path d="M45.7,510.39 C45.7,520.39 125.0027,520.39 125.0027,520.39 C125.0027,520.39 204.3055,520.39 204.3055,510.39" fill="none" style="stroke:#181818;stroke-width:0.5;"/><text fill="#000000" font-family="sans-serif" font-size="14" lengthAdjust="spacing" textLength="138.6055" x="55.7" y="537.3851">MongoDB Database</text></g><!--entity FileSystem--><g class="entity" data-entity="FileSystem" data-source-line="46" data-uid="ent0032" id="entity_FileSystem"><rect fill="#F1F1F1" height="36.2969" rx="35" ry="35" style="stroke:#181818;stroke-width:0.5;" width="101.1016" x="400.45" y="504.89"/><text fill="#000000" font-family="sans-serif" font-size="14" lengthAdjust="spacing" textLength="81.1016" x="410.45" y="527.8851">File System</text></g><!--entity MLModel--><g class="entity" data-entity="MLModel" data-source-line="47" data-uid="ent0033" id="entity_MLModel"><rect fill="#F1F1F1" height="46.2969" rx="2.5" ry="2.5" style="stroke:#181818;stroke-width:0.5;" width="125.9072" x="239.05" y="499.89"/><rect fill="#F1F1F1" height="10" style="stroke:#181818;stroke-width:0.5;" width="15" x="344.9572" y="504.89"/><rect fill="#F1F1F1" height="2" style="stroke:#181818;stroke-width:0.5;" width="4" x="342.9572" y="506.89"/><rect fill="#F1F1F1" height="2" style="stroke:#181818;stroke-width:0.5;" width="4" x="342.9572" y="510.89"/><text fill="#000000" font-family="sans-serif" font-size="14" lengthAdjust="spacing" textLength="85.9072" x="254.05" y="532.8851">Keras Model</text></g><!--link App to Auth--><g class="link" data-entity-1="App" data-entity-2="Auth" data-source-line="51" data-uid="lnk34" id="link_App_Auth"><path d="M1000.19,417.76 C957.9,427.03 904.85,440.33 859,456.89 C826.45,468.64 796.5971,482.99 770.3171,496.73" fill="none" id="App-to-Auth" style="stroke:#181818;stroke-width:1;"/><polygon fill="#181818" points="765,499.51,774.829,498.8848,769.4309,497.1934,771.1224,491.7953,765,499.51" style="stroke:#181818;stroke-width:1;"/></g><!--link App to Upload--><g class="link" data-entity-1="App" data-entity-2="Upload" data-source-line="52" data-uid="lnk35" id="link_App_Upload"><path d="M1056.5,425.18 C1037.01,446.51 1011.917,473.9703 992.457,495.2703" fill="none" id="App-to-Upload" style="stroke:#181818;stroke-width:1;"/><polygon fill="#181818" points="988.41,499.7,997.4336,495.7535,991.7825,496.0086,991.5274,490.3575,988.41,499.7" style="stroke:#181818;stroke-width:1;"/></g><!--link App to Results--><g class="link" data-entity-1="App" data-entity-2="Results" data-source-line="53" data-uid="lnk36" id="link_App_Results"><path d="M1097.5,425.18 C1116.99,446.51 1142.083,473.9703 1161.543,495.2703" fill="none" id="App-to-Results" style="stroke:#181818;stroke-width:1;"/><polygon fill="#181818" points="1165.59,499.7,1162.4726,490.3575,1162.2175,496.0086,1156.5664,495.7535,1165.59,499.7" style="stroke:#181818;stroke-width:1;"/></g><!--link App to Profile--><g class="link" data-entity-1="App" data-entity-2="Profile" data-source-line="54" data-uid="lnk37" id="link_App_Profile"><path d="M1153.85,415.69 C1196.72,424.4 1250.48,437.82 1296,456.89 C1322.9,468.15 1345.9498,482.2696 1366.4198,496.2896" fill="none" id="App-to-Profile" style="stroke:#181818;stroke-width:1;"/><polygon fill="#181818" points="1371.37,499.68,1366.2049,491.2942,1367.2448,496.8546,1361.6843,497.8945,1371.37,499.68" style="stroke:#181818;stroke-width:1;"/></g><!--link Auth to UI--><g class="link" data-entity-1="Auth" data-entity-2="UI" data-source-line="55" data-uid="lnk38" id="link_Auth_UI"><path d="M759.55,546.58 C785.99,562.32 823.49,582.52 859,594.18 C897.58,606.85 935.6418,614.093 973.9618,619.163" fill="none" id="Auth-to-UI" style="stroke:#181818;stroke-width:1;"/><polygon fill="#181818" points="979.91,619.95,971.5124,614.8041,974.9532,619.2942,970.4631,622.735,979.91,619.95" style="stroke:#181818;stroke-width:1;"/></g><!--link Upload to UI--><g class="link" data-entity-1="Upload" data-entity-2="UI" data-source-line="56" data-uid="lnk39" id="link_Upload_UI"><path d="M991.65,546.67 C1009.93,564.16 1030.7847,584.1121 1049.0547,601.5921" fill="none" id="Upload-to-UI" style="stroke:#181818;stroke-width:1;"/><polygon fill="#181818" points="1053.39,605.74,1049.6522,596.628,1049.7772,602.2834,1044.1217,602.4084,1053.39,605.74" style="stroke:#181818;stroke-width:1;"/></g><!--link Results to UI--><g class="link" data-entity-1="Results" data-entity-2="UI" data-source-line="57" data-uid="lnk40" id="link_Results_UI"><path d="M1162.35,546.67 C1144.07,564.16 1123.2153,584.1121 1104.9453,601.5921" fill="none" id="Results-to-UI" style="stroke:#181818;stroke-width:1;"/><polygon fill="#181818" points="1100.61,605.74,1109.8783,602.4084,1104.2228,602.2834,1104.3478,596.628,1100.61,605.74" style="stroke:#181818;stroke-width:1;"/></g><!--link Profile to UI--><g class="link" data-entity-1="Profile" data-entity-2="UI" data-source-line="58" data-uid="lnk41" id="link_Profile_UI"><path d="M1375.04,546.64 C1354.64,562.52 1325.22,582.86 1296,594.18 C1257.61,609.06 1219.0057,616.732 1180.1457,621.482" fill="none" id="Profile-to-UI" style="stroke:#181818;stroke-width:1;"/><polygon fill="#181818" points="1174.19,622.21,1183.6088,625.0885,1179.1531,621.6033,1182.6382,617.1476,1174.19,622.21" style="stroke:#181818;stroke-width:1;"/></g><!--link API to Router--><g class="link" data-entity-1="API" data-entity-2="Router" data-source-line="60" data-uid="lnk42" id="link_API_Router"><path d="M2129.47,499.68 C2147.57,487.31 2167.04,470.11 2177,448.89 C2206.5,386 2213.78,351.52 2177,292.59 C2099.2,167.92 2022.2,184.34 1880,147.29 C1760.52,116.17 1402.0198,109.8196 1244.6398,108.5196" fill="none" id="API-to-Router" style="stroke:#181818;stroke-width:1;"/><polygon fill="#181818" points="1238.64,108.47,1247.6067,112.5442,1243.6398,108.5113,1247.6727,104.5445,1238.64,108.47" style="stroke:#181818;stroke-width:1;"/></g><!--link ReportGen to API--><g class="link" data-entity-1="ReportGen" data-entity-2="API" data-source-line="61" data-uid="lnk43" id="link_ReportGen_API"><path d="M2080.07,425.18 C2082.04,446.51 2084.4302,472.4252 2086.3902,493.7252" fill="none" id="ReportGen-to-API" style="stroke:#181818;stroke-width:1;"/><polygon fill="#181818" points="2086.94,499.7,2090.0985,490.3713,2086.4818,494.721,2082.1321,491.1044,2086.94,499.7" style="stroke:#181818;stroke-width:1;"/></g><!--link Router to AuthCtrl--><g class="link" data-entity-1="Router" data-entity-2="AuthCtrl" data-source-line="63" data-uid="lnk44" id="link_Router_AuthCtrl"><path d="M1091.65,109.06 C972.02,111.36 740.54,119.38 664,147.29 C638.63,156.54 618.5197,171.0368 601.2897,185.9268" fill="none" id="Router-to-AuthCtrl" style="stroke:#181818;stroke-width:1;"/><polygon fill="#181818" points="596.75,189.85,606.175,186.9917,600.5331,186.5807,600.9441,180.9388,596.75,189.85" style="stroke:#181818;stroke-width:1;"/></g><!--link Router to UploadCtrl--><g class="link" data-entity-1="Router" data-entity-2="UploadCtrl" data-source-line="64" data-uid="lnk45" id="link_Router_UploadCtrl"><path d="M1164.13,130.77 C1163.46,148.27 1162.7698,166.3744 1162.0998,183.8544" fill="none" id="Router-to-UploadCtrl" style="stroke:#181818;stroke-width:1;"/><polygon fill="#181818" points="1161.87,189.85,1166.2118,181.0098,1162.0615,184.8537,1158.2176,180.7034,1161.87,189.85" style="stroke:#181818;stroke-width:1;"/></g><!--link Router to AnalysisCtrl--><g class="link" data-entity-1="Router" data-entity-2="AnalysisCtrl" data-source-line="65" data-uid="lnk46" id="link_Router_AnalysisCtrl"><path d="M1099.59,130.74 C1086.92,135.74 1073.89,141.35 1062,147.29 C1037.21,159.69 1015.7914,173.1007 995.9314,186.5207" fill="none" id="Router-to-AnalysisCtrl" style="stroke:#181818;stroke-width:1;"/><polygon fill="#181818" points="990.96,189.88,1000.6567,188.1553,995.1028,187.0806,996.1776,181.5267,990.96,189.88" style="stroke:#181818;stroke-width:1;"/></g><!--link Router to ResultCtrl--><g class="link" data-entity-1="Router" data-entity-2="ResultCtrl" data-source-line="66" data-uid="lnk47" id="link_Router_ResultCtrl"><path d="M1091.51,107.9 C1027.41,109.89 932.89,118.25 856,147.29 C830,157.11 808.8147,171.5312 790.4947,186.1912" fill="none" id="Router-to-ResultCtrl" style="stroke:#181818;stroke-width:1;"/><polygon fill="#181818" points="785.81,189.94,795.3363,187.44,789.7139,186.816,790.3379,181.1937,785.81,189.94" style="stroke:#181818;stroke-width:1;"/></g><!--link Router to AuthMW--><g class="link" data-entity-1="Router" data-entity-2="AuthMW" data-source-line="68" data-uid="lnk48" id="link_Router_AuthMW"><path d="M1220.99,130.62 C1233.29,135.86 1246.17,141.58 1258,147.29 C1285.26,160.45 1309.9105,173.8508 1332.9105,186.8908" fill="none" id="Router-to-AuthMW" style="stroke:#181818;stroke-width:1;"/><polygon fill="#181818" points="1338.13,189.85,1332.2736,181.9315,1333.7804,187.384,1328.328,188.8908,1338.13,189.85" style="stroke:#181818;stroke-width:1;"/></g><!--link Router to UploadMW--><g class="link" data-entity-1="Router" data-entity-2="UploadMW" data-source-line="69" data-uid="lnk49" id="link_Router_UploadMW"><path d="M1238.59,108.74 C1302.3,111.29 1396.04,119.99 1473,147.29 C1500.9,157.19 1524.3715,171.8294 1544.5615,186.4594" fill="none" id="Router-to-UploadMW" style="stroke:#181818;stroke-width:1;"/><polygon fill="#181818" points="1549.42,189.98,1544.4792,181.4601,1545.3712,187.0462,1539.7851,187.9382,1549.42,189.98" style="stroke:#181818;stroke-width:1;"/></g><!--link Router to CORS--><g class="link" data-entity-1="Router" data-entity-2="CORS" data-source-line="70" data-uid="lnk50" id="link_Router_CORS"><path d="M1238.25,109.17 C1361.01,111.64 1602.76,119.92 1683,147.29 C1710.07,156.53 1732.2182,171.2254 1751.1182,186.1254" fill="none" id="Router-to-CORS" style="stroke:#181818;stroke-width:1;"/><polygon fill="#181818" points="1755.83,189.84,1751.2386,181.1268,1751.9035,186.7445,1746.2858,187.4093,1755.83,189.84" style="stroke:#181818;stroke-width:1;"/></g><!--link UploadCtrl to FileService--><g class="link" data-entity-1="UploadCtrl" data-entity-2="FileService" data-source-line="72" data-uid="lnk51" id="link_UploadCtrl_FileService"><path d="M1189.91,236.9 C1213.3,253.6 1247.85,275.08 1282,284.59 C1329.64,297.86 1680.78,275 1727,292.59 C1772.8,310.02 1809.4781,347.3981 1831.5381,373.6281" fill="none" id="UploadCtrl-to-FileService" style="stroke:#181818;stroke-width:1;"/><polygon fill="#181818" points="1835.4,378.22,1832.6684,368.7575,1832.1817,374.3934,1826.5459,373.9067,1835.4,378.22" style="stroke:#181818;stroke-width:1;"/></g><!--link AnalysisCtrl to MLService--><g class="link" data-entity-1="AnalysisCtrl" data-entity-2="MLService" data-source-line="73" data-uid="lnk52" id="link_AnalysisCtrl_MLService"><path d="M983.04,236.86 C1002.63,253.55 1031.9,275.02 1062,284.59 C1109.13,299.58 1460.96,274.54 1507,292.59 C1551.59,310.07 1586.5694,347.3467 1607.5594,373.5567" fill="none" id="AnalysisCtrl-to-MLService" style="stroke:#181818;stroke-width:1;"/><polygon fill="#181818" points="1611.31,378.24,1608.8063,368.7147,1608.1845,374.3373,1602.562,373.7154,1611.31,378.24" style="stroke:#181818;stroke-width:1;"/></g><!--link AuthCtrl to UserModel--><g class="link" data-entity-1="AuthCtrl" data-entity-2="UserModel" data-source-line="75" data-uid="lnk53" id="link_AuthCtrl_UserModel"><path d="M499.5,228.71 C454.17,240.25 396.73,260.08 354,292.59 C323.87,315.52 303.7432,348.4787 291.2932,372.8087" fill="none" id="AuthCtrl-to-UserModel" style="stroke:#181818;stroke-width:1;"/><polygon fill="#181818" points="288.56,378.15,296.2207,371.9602,290.8377,373.6989,289.099,368.3159,288.56,378.15" style="stroke:#181818;stroke-width:1;"/></g><!--link ResultCtrl to ResultModel--><g class="link" data-entity-1="ResultCtrl" data-entity-2="ResultModel" data-source-line="76" data-uid="lnk54" id="link_ResultCtrl_ResultModel"><path d="M736.87,236.81 C718.63,253 691.72,273.86 664,284.59 C633.15,296.53 620.94,280.89 590,292.59 C538.58,312.03 492.815,348.9099 464.635,374.4599" fill="none" id="ResultCtrl-to-ResultModel" style="stroke:#181818;stroke-width:1;"/><polygon fill="#181818" points="460.19,378.49,469.5442,375.4081,463.8942,375.1315,464.1707,369.4815,460.19,378.49" style="stroke:#181818;stroke-width:1;"/></g><!--link AnalysisCtrl to ResultModel--><g class="link" data-entity-1="AnalysisCtrl" data-entity-2="ResultModel" data-source-line="77" data-uid="lnk55" id="link_AnalysisCtrl_ResultModel"><path d="M934.93,236.76 C915.32,253.39 886.04,274.83 856,284.59 C799.75,302.85 646.09,273.84 590,292.59 C537.56,310.13 491.6601,347.9488 463.8101,374.1488" fill="none" id="AnalysisCtrl-to-ResultModel" style="stroke:#181818;stroke-width:1;"/><polygon fill="#181818" points="459.44,378.26,468.736,375.0066,463.0818,374.834,463.2544,369.1798,459.44,378.26" style="stroke:#181818;stroke-width:1;"/></g><!--link UserModel to MongoDB--><g class="link" data-entity-1="UserModel" data-entity-2="MongoDB" data-source-line="79" data-uid="lnk56" id="link_UserModel_MongoDB"><path d="M249.22,425.18 C221.78,446.57 185.4312,474.91 158.1212,496.21" fill="none" id="UserModel-to-MongoDB" style="stroke:#181818;stroke-width:1;"/><polygon fill="#181818" points="153.39,499.9,162.9467,497.5191,157.3326,496.825,158.0267,491.2109,153.39,499.9" style="stroke:#181818;stroke-width:1;"/></g><!--link ResultModel to MongoDB--><g class="link" data-entity-1="ResultModel" data-entity-2="MongoDB" data-source-line="80" data-uid="lnk57" id="link_ResultModel_MongoDB"><path d="M405.01,425.21 C390.44,434.24 372.55,443.72 355,448.89 C298.19,465.61 278.1,437.94 222,456.89 C194.9,466.04 172.8807,481.0791 154.3807,496.1591" fill="none" id="ResultModel-to-MongoDB" style="stroke:#181818;stroke-width:1;"/><polygon fill="#181818" points="149.73,499.95,159.2333,497.3641,153.6056,496.7909,154.1787,491.1631,149.73,499.95" style="stroke:#181818;stroke-width:1;"/></g><!--link FileService to FileSystem--><g class="link" data-entity-1="FileService" data-entity-2="FileSystem" data-source-line="81" data-uid="lnk58" id="link_FileService_FileSystem"><path d="M1803.53,425.34 C1780.73,434.57 1753.02,444.18 1727,448.89 C1664.84,460.14 651.61,442.94 590,456.89 C549.19,466.13 511.3348,485.5033 484.1548,501.4533" fill="none" id="FileService-to-FileSystem" style="stroke:#181818;stroke-width:1;"/><polygon fill="#181818" points="478.98,504.49,488.7666,503.3848,483.2923,501.9594,484.7177,496.4851,478.98,504.49" style="stroke:#181818;stroke-width:1;"/></g><!--link MLService to MLModel--><g class="link" data-entity-1="MLService" data-entity-2="MLModel" data-source-line="82" data-uid="lnk59" id="link_MLService_MLModel"><path d="M1580.58,425.34 C1558.7,434.57 1532.08,444.17 1507,448.89 C1476.31,454.65 412.41,446.41 383,456.89 C359.03,465.43 341.1031,480.0481 326.0531,495.3081" fill="none" id="MLService-to-MLModel" style="stroke:#181818;stroke-width:1;"/><polygon fill="#181818" points="321.84,499.58,331.0077,495.9809,325.351,496.0201,325.3118,490.3633,321.84,499.58" style="stroke:#181818;stroke-width:1;"/></g><!--SRC=[dLJ1Rjim3BtxAuJS-mi3sgGTZDbOaA3OMRMrpfWY6PBIDXZwxvD4og8TEOVc49XFZ-GJHNBatL_-AjZcoMZbXEfPmo_2RDY_YldVc8uFWdUEtO-Z73hk1gqI8_mwVHgr4ignZMUmRJ8tZDlWKoIUtH__WT6oZmKdVrhoUXwbvlsI3MY9Vn3sB9rTEY1SyjWR_NkGOkc1S55JdSci6LuCDnUGLKVwP_oVb_CepDlG2RjMnNtDa0BbsDVbsutQEFPTA66uqmRl5a2FOVBFgfhIFlYFzJT-_1YDi3PcpiUBd8bqq6SdC6FyN7jaNnpbZ9OIsG7REYDlFk_C0z0rdtl5vSKEzYeFucj-q0DBBq0ddzBRjKFVI_7EZLXxlN1hoi9Rjxzkt7d11xJiiVrvE2xv0VjgjxKDQtKlvApbsWQjaiTJc92MAn_z503g6Cwewxm3TzpnbVQB6jOqFbjXG2MKnvlHkl6ocGr0vfTgzFZXUzYt3CtVUx4lt4PjwbNl7jWE4IWHW1FT-X64NHhASxnO9qwv9D4ioVtXXzSIjMr3bVhYXPrwT_SDbc8oSESbCssqPATz5NinykiAEmsjj1hHJ7iFpIgie1WOXdlQAg34xwCAJYPbSMO8HgQMCkbK4fpCtJAm7uAhi7CiDd-L4qQGzY7D6WzpTrT9EqIV-YeB8lhWw2eQFQoc4908UuHGPZXHcLL3gqmQKN5q_Wy0]--></g></svg>