<svg xmlns="http://www.w3.org/2000/svg" xmlns:xlink="http://www.w3.org/1999/xlink" contentStyleType="text/css" data-diagram-type="DESCRIPTION" height="1160px" preserveAspectRatio="none" style="width:1373px;height:1160px;background:#FFFFFF;" version="1.1" viewBox="0 0 1373 1160" width="1373px" zoomAndPan="magnify"><defs/><g><!--cluster Client Environment--><g class="cluster" data-entity="Client Environment" data-source-line="1" data-uid="ent0002" id="cluster_Client Environment"><polygon fill="none" points="642,16,652,6,1041,6,1041,251.6,1031,261.6,642,261.6,642,16" style="stroke:#181818;stroke-width:1;"/><line style="stroke:#181818;stroke-width:1;" x1="1031" x2="1041" y1="16" y2="6"/><line style="stroke:#181818;stroke-width:1;" x1="642" x2="1031" y1="16" y2="16"/><line style="stroke:#181818;stroke-width:1;" x1="1031" x2="1031" y1="16" y2="261.6"/><text fill="#000000" font-family="sans-serif" font-size="14" font-weight="bold" lengthAdjust="spacing" textLength="151.5869" x="761.7065" y="31.9951">Client Environment</text></g><!--cluster User Device--><g class="cluster" data-entity="User Device" data-source-line="2" data-uid="ent0003" id="cluster_User Device"><polygon fill="none" points="666,64,676,54,1017,54,1017,227.6,1007,237.6,666,237.6,666,64" style="stroke:#181818;stroke-width:1;"/><line style="stroke:#181818;stroke-width:1;" x1="1007" x2="1017" y1="64" y2="54"/><line style="stroke:#181818;stroke-width:1;" x1="666" x2="1007" y1="64" y2="64"/><line style="stroke:#181818;stroke-width:1;" x1="1007" x2="1007" y1="64" y2="237.6"/><text fill="#000000" font-family="sans-serif" font-size="14" font-weight="bold" lengthAdjust="spacing" textLength="93.8096" x="790.5952" y="79.9951">User Device</text></g><!--cluster React App--><g class="cluster" data-entity="React App" data-source-line="4" data-uid="ent0005" id="cluster_React App"><polygon fill="none" points="823,112,833,102,993,102,993,203.6,983,213.6,823,213.6,823,112" style="stroke:#181818;stroke-width:1;"/><line style="stroke:#181818;stroke-width:1;" x1="983" x2="993" y1="112" y2="102"/><line style="stroke:#181818;stroke-width:1;" x1="823" x2="983" y1="112" y2="112"/><line style="stroke:#181818;stroke-width:1;" x1="983" x2="983" y1="112" y2="213.6"/><text fill="#000000" font-family="sans-serif" font-size="14" font-weight="bold" lengthAdjust="spacing" textLength="80.4658" x="863.7671" y="127.9951">React App</text></g><!--cluster Production Environment--><g class="cluster" data-entity="Production Environment" data-source-line="10" data-uid="ent0007" id="cluster_Production Environment"><polygon fill="none" points="192,320.6,202,310.6,1046,310.6,1046,1133.12,1036,1143.12,192,1143.12,192,320.6" style="stroke:#181818;stroke-width:1;"/><line style="stroke:#181818;stroke-width:1;" x1="1036" x2="1046" y1="320.6" y2="310.6"/><line style="stroke:#181818;stroke-width:1;" x1="192" x2="1036" y1="320.6" y2="320.6"/><line style="stroke:#181818;stroke-width:1;" x1="1036" x2="1036" y1="320.6" y2="1143.12"/><text fill="#000000" font-family="sans-serif" font-size="14" font-weight="bold" lengthAdjust="spacing" textLength="191.707" x="519.1465" y="336.5951">Production Environment</text></g><!--cluster Web Server--><g class="cluster" data-entity="Web Server" data-source-line="11" data-uid="ent0008" id="cluster_Web Server"><polygon fill="none" points="216,368.6,226,358.6,424,358.6,424,610.64,414,620.64,216,620.64,216,368.6" style="stroke:#181818;stroke-width:1;"/><line style="stroke:#181818;stroke-width:1;" x1="414" x2="424" y1="368.6" y2="358.6"/><line style="stroke:#181818;stroke-width:1;" x1="216" x2="414" y1="368.6" y2="368.6"/><line style="stroke:#181818;stroke-width:1;" x1="414" x2="414" y1="368.6" y2="620.64"/><text fill="#000000" font-family="sans-serif" font-size="14" font-weight="bold" lengthAdjust="spacing" textLength="91.8408" x="270.0796" y="384.5951">Web Server</text></g><!--cluster Application Server--><g class="cluster" data-entity="Application Server" data-source-line="16" data-uid="ent0011" id="cluster_Application Server"><polygon fill="none" points="448,527.19,458,517.19,900,517.19,900,951.53,890,961.53,448,961.53,448,527.19" style="stroke:#181818;stroke-width:1;"/><line style="stroke:#181818;stroke-width:1;" x1="890" x2="900" y1="527.19" y2="517.19"/><line style="stroke:#181818;stroke-width:1;" x1="448" x2="890" y1="527.19" y2="527.19"/><line style="stroke:#181818;stroke-width:1;" x1="890" x2="890" y1="527.19" y2="961.53"/><text fill="#000000" font-family="sans-serif" font-size="14" font-weight="bold" lengthAdjust="spacing" textLength="146.1797" x="596.9102" y="543.1851">Application Server</text></g><!--cluster Application Components--><g class="cluster" data-entity="Application Components" data-source-line="18" data-uid="ent0013" id="cluster_Application Components"><polygon fill="none" points="472,698.78,482,688.78,876,688.78,876,927.53,866,937.53,472,937.53,472,698.78" style="stroke:#181818;stroke-width:1;"/><line style="stroke:#181818;stroke-width:1;" x1="866" x2="876" y1="698.78" y2="688.78"/><line style="stroke:#181818;stroke-width:1;" x1="472" x2="866" y1="698.78" y2="698.78"/><line style="stroke:#181818;stroke-width:1;" x1="866" x2="866" y1="698.78" y2="937.53"/><text fill="#000000" font-family="sans-serif" font-size="14" font-weight="bold" lengthAdjust="spacing" textLength="192.7461" x="573.627" y="714.7751">Application Components</text></g><!--cluster Database Server--><g class="cluster" data-entity="Database Server" data-source-line="25" data-uid="ent0017" id="cluster_Database Server"><polygon fill="none" points="216,841.08,226,831.08,423,831.08,423,938.67,413,948.67,216,948.67,216,841.08" style="stroke:#181818;stroke-width:1;"/><line style="stroke:#181818;stroke-width:1;" x1="413" x2="423" y1="841.08" y2="831.08"/><line style="stroke:#181818;stroke-width:1;" x1="216" x2="413" y1="841.08" y2="841.08"/><line style="stroke:#181818;stroke-width:1;" x1="413" x2="413" y1="841.08" y2="948.67"/><text fill="#000000" font-family="sans-serif" font-size="14" font-weight="bold" lengthAdjust="spacing" textLength="131.3867" x="249.8066" y="857.0751">Database Server</text></g><!--cluster File Storage--><g class="cluster" data-entity="File Storage" data-source-line="29" data-uid="ent0019" id="cluster_File Storage"><polygon fill="none" points="634,1020.53,644,1010.53,971,1010.53,971,1109.12,961,1119.12,634,1119.12,634,1020.53" style="stroke:#181818;stroke-width:1;"/><line style="stroke:#181818;stroke-width:1;" x1="961" x2="971" y1="1020.53" y2="1010.53"/><line style="stroke:#181818;stroke-width:1;" x1="634" x2="961" y1="1020.53" y2="1020.53"/><line style="stroke:#181818;stroke-width:1;" x1="961" x2="961" y1="1020.53" y2="1119.12"/><text fill="#000000" font-family="sans-serif" font-size="14" font-weight="bold" lengthAdjust="spacing" textLength="95.792" x="750.604" y="1036.5251">File Storage</text></g><!--cluster Development Environment--><g class="cluster" data-entity="Development Environment" data-source-line="35" data-uid="ent0022" id="cluster_Development Environment"><polygon fill="none" points="1070,64,1080,54,1356,54,1356,645.78,1346,655.78,1070,655.78,1070,64" style="stroke:#181818;stroke-width:1;"/><line style="stroke:#181818;stroke-width:1;" x1="1346" x2="1356" y1="64" y2="54"/><line style="stroke:#181818;stroke-width:1;" x1="1070" x2="1346" y1="64" y2="64"/><line style="stroke:#181818;stroke-width:1;" x1="1346" x2="1346" y1="64" y2="655.78"/><text fill="#000000" font-family="sans-serif" font-size="14" font-weight="bold" lengthAdjust="spacing" textLength="210.4785" x="1103.7607" y="79.9951">Development Environment</text></g><!--cluster Dev Machine--><g class="cluster" data-entity="Dev Machine" data-source-line="36" data-uid="ent0023" id="cluster_Dev Machine"><polygon fill="none" points="1115,112,1125,102,1311,102,1311,621.78,1301,631.78,1115,631.78,1115,112" style="stroke:#181818;stroke-width:1;"/><line style="stroke:#181818;stroke-width:1;" x1="1301" x2="1311" y1="112" y2="102"/><line style="stroke:#181818;stroke-width:1;" x1="1115" x2="1301" y1="112" y2="112"/><line style="stroke:#181818;stroke-width:1;" x1="1301" x2="1301" y1="112" y2="631.78"/><text fill="#000000" font-family="sans-serif" font-size="14" font-weight="bold" lengthAdjust="spacing" textLength="101.0215" x="1158.4893" y="127.9951">Dev Machine</text></g><!--cluster Docker Containers--><g class="cluster" data-entity="Docker Containers" data-source-line="43" data-uid="ent0027" id="cluster_Docker Containers"><polygon fill="none" points="16,112,26,102,618,102,618,203.6,608,213.6,16,213.6,16,112" style="stroke:#181818;stroke-width:1;"/><line style="stroke:#181818;stroke-width:1;" x1="608" x2="618" y1="112" y2="102"/><line style="stroke:#181818;stroke-width:1;" x1="16" x2="608" y1="112" y2="112"/><line style="stroke:#181818;stroke-width:1;" x1="608" x2="608" y1="112" y2="213.6"/><text fill="#000000" font-family="sans-serif" font-size="14" font-weight="bold" lengthAdjust="spacing" textLength="145.6191" x="240.1904" y="127.9951">Docker Containers</text></g><!--entity Browser--><g class="entity" data-entity="Browser" data-source-line="3" data-uid="ent0004" id="entity_Browser"><rect fill="#F1F1F1" height="39.2969" rx="2.5" ry="2.5" style="stroke:#181818;stroke-width:0.5;" width="122.832" x="681.58" y="150.15"/><polygon fill="#F1F1F1" points="787.412,155.15,787.412,169.15,799.412,169.15,799.412,161.15,793.412,155.15,787.412,155.15" style="stroke:#181818;stroke-width:0.5;"/><line style="stroke:#181818;stroke-width:0.5;" x1="793.412" x2="793.412" y1="155.15" y2="161.15"/><line style="stroke:#181818;stroke-width:0.5;" x1="799.412" x2="793.412" y1="161.15" y2="161.15"/><text fill="#000000" font-family="sans-serif" font-size="14" lengthAdjust="spacing" textLength="92.832" x="691.58" y="176.1451">Web Browser</text></g><!--entity ReactClient--><g class="entity" data-entity="ReactClient" data-source-line="5" data-uid="ent0006" id="entity_ReactClient"><rect fill="#F1F1F1" height="55.5938" rx="2.5" ry="2.5" style="stroke:#181818;stroke-width:0.5;" width="137.666" x="839.17" y="142"/><polygon fill="#F1F1F1" points="959.836,147,959.836,161,971.836,161,971.836,153,965.836,147,959.836,147" style="stroke:#181818;stroke-width:0.5;"/><line style="stroke:#181818;stroke-width:0.5;" x1="965.836" x2="965.836" y1="147" y2="153"/><line style="stroke:#181818;stroke-width:0.5;" x1="971.836" x2="965.836" y1="153" y2="153"/><text fill="#000000" font-family="sans-serif" font-size="14" lengthAdjust="spacing" textLength="107.666" x="849.17" y="167.9951">React Frontend</text><text fill="#000000" font-family="sans-serif" font-size="14" lengthAdjust="spacing" textLength="73.0488" x="849.17" y="184.292">Port: 5173</text></g><!--entity Nginx--><g class="entity" data-entity="Nginx" data-source-line="12" data-uid="ent0009" id="entity_Nginx"><rect fill="#F1F1F1" height="55.5938" rx="2.5" ry="2.5" style="stroke:#181818;stroke-width:0.5;" width="175.5439" x="232.23" y="398.6"/><polygon fill="#F1F1F1" points="390.7739,403.6,390.7739,417.6,402.7739,417.6,402.7739,409.6,396.7739,403.6,390.7739,403.6" style="stroke:#181818;stroke-width:0.5;"/><line style="stroke:#181818;stroke-width:0.5;" x1="396.7739" x2="396.7739" y1="403.6" y2="409.6"/><line style="stroke:#181818;stroke-width:0.5;" x1="402.7739" x2="396.7739" y1="409.6" y2="409.6"/><text fill="#000000" font-family="sans-serif" font-size="14" lengthAdjust="spacing" textLength="145.5439" x="242.23" y="424.5951">Nginx Reverse Proxy</text><text fill="#000000" font-family="sans-serif" font-size="14" lengthAdjust="spacing" textLength="86.6729" x="242.23" y="440.892">Port: 80/443</text></g><!--entity SSL--><g class="entity" data-entity="SSL" data-source-line="13" data-uid="ent0010" id="entity_SSL"><rect fill="#F1F1F1" height="39.2969" rx="2.5" ry="2.5" style="stroke:#181818;stroke-width:0.5;" width="132.7441" x="233.63" y="565.34"/><polygon fill="#F1F1F1" points="349.3741,570.34,349.3741,584.34,361.3741,584.34,361.3741,576.34,355.3741,570.34,349.3741,570.34" style="stroke:#181818;stroke-width:0.5;"/><line style="stroke:#181818;stroke-width:0.5;" x1="355.3741" x2="355.3741" y1="570.34" y2="576.34"/><line style="stroke:#181818;stroke-width:0.5;" x1="361.3741" x2="355.3741" y1="576.34" y2="576.34"/><text fill="#000000" font-family="sans-serif" font-size="14" lengthAdjust="spacing" textLength="102.7441" x="243.63" y="591.3351">SSL Certificate</text></g><!--entity NodeServer--><g class="entity" data-entity="NodeServer" data-source-line="17" data-uid="ent0012" id="entity_NodeServer"><rect fill="#F1F1F1" height="55.5938" rx="2.5" ry="2.5" style="stroke:#181818;stroke-width:0.5;" width="191.957" x="475.02" y="557.19"/><polygon fill="#F1F1F1" points="649.977,562.19,649.977,576.19,661.977,576.19,661.977,568.19,655.977,562.19,649.977,562.19" style="stroke:#181818;stroke-width:0.5;"/><line style="stroke:#181818;stroke-width:0.5;" x1="655.977" x2="655.977" y1="562.19" y2="568.19"/><line style="stroke:#181818;stroke-width:0.5;" x1="661.977" x2="655.977" y1="568.19" y2="568.19"/><text fill="#000000" font-family="sans-serif" font-size="14" lengthAdjust="spacing" textLength="161.957" x="485.02" y="583.1851">Node.js Express Server</text><text fill="#000000" font-family="sans-serif" font-size="14" lengthAdjust="spacing" textLength="73.0488" x="485.02" y="599.482">Port: 5000</text></g><!--entity ExpressApp--><g class="entity" data-entity="ExpressApp" data-source-line="19" data-uid="ent0014" id="entity_ExpressApp"><rect fill="#F1F1F1" height="39.2969" rx="2.5" ry="2.5" style="stroke:#181818;stroke-width:0.5;" width="167.6484" x="488.18" y="728.78"/><polygon fill="#F1F1F1" points="638.8284,733.78,638.8284,747.78,650.8284,747.78,650.8284,739.78,644.8284,733.78,638.8284,733.78" style="stroke:#181818;stroke-width:0.5;"/><line style="stroke:#181818;stroke-width:0.5;" x1="644.8284" x2="644.8284" y1="733.78" y2="739.78"/><line style="stroke:#181818;stroke-width:0.5;" x1="650.8284" x2="644.8284" y1="739.78" y2="739.78"/><text fill="#000000" font-family="sans-serif" font-size="14" lengthAdjust="spacing" textLength="137.6484" x="498.18" y="754.7751">Express Application</text></g><!--entity MLEngine--><g class="entity" data-entity="MLEngine" data-source-line="20" data-uid="ent0015" id="entity_MLEngine"><rect fill="#F1F1F1" height="39.2969" rx="2.5" ry="2.5" style="stroke:#181818;stroke-width:0.5;" width="148.7949" x="487.6" y="882.23"/><polygon fill="#F1F1F1" points="619.3949,887.23,619.3949,901.23,631.3949,901.23,631.3949,893.23,625.3949,887.23,619.3949,887.23" style="stroke:#181818;stroke-width:0.5;"/><line style="stroke:#181818;stroke-width:0.5;" x1="625.3949" x2="625.3949" y1="887.23" y2="893.23"/><line style="stroke:#181818;stroke-width:0.5;" x1="631.3949" x2="625.3949" y1="893.23" y2="893.23"/><text fill="#000000" font-family="sans-serif" font-size="14" lengthAdjust="spacing" textLength="118.7949" x="497.6" y="908.2251">ML Model Engine</text></g><!--entity AuthService--><g class="entity" data-entity="AuthService" data-source-line="21" data-uid="ent0016" id="entity_AuthService"><rect fill="#F1F1F1" height="39.2969" rx="2.5" ry="2.5" style="stroke:#181818;stroke-width:0.5;" width="188.9629" x="671.52" y="882.23"/><polygon fill="#F1F1F1" points="843.4829,887.23,843.4829,901.23,855.4829,901.23,855.4829,893.23,849.4829,887.23,843.4829,887.23" style="stroke:#181818;stroke-width:0.5;"/><line style="stroke:#181818;stroke-width:0.5;" x1="849.4829" x2="849.4829" y1="887.23" y2="893.23"/><line style="stroke:#181818;stroke-width:0.5;" x1="855.4829" x2="849.4829" y1="893.23" y2="893.23"/><text fill="#000000" font-family="sans-serif" font-size="14" lengthAdjust="spacing" textLength="158.9629" x="681.52" y="908.2251">Authentication Service</text></g><!--entity MongoDB--><g class="entity" data-entity="MongoDB" data-source-line="26" data-uid="ent0018" id="entity_MongoDB"><path d="M239.7,881.08 C239.7,871.08 319.0027,871.08 319.0027,871.08 C319.0027,871.08 398.3055,871.08 398.3055,881.08 L398.3055,922.6737 C398.3055,932.6737 319.0027,932.6737 319.0027,932.6737 C319.0027,932.6737 239.7,932.6737 239.7,922.6737 L239.7,881.08" fill="#F1F1F1" style="stroke:#181818;stroke-width:0.5;"/><path d="M239.7,881.08 C239.7,891.08 319.0027,891.08 319.0027,891.08 C319.0027,891.08 398.3055,891.08 398.3055,881.08" fill="none" style="stroke:#181818;stroke-width:0.5;"/><text fill="#000000" font-family="sans-serif" font-size="14" lengthAdjust="spacing" textLength="138.6055" x="249.7" y="908.0751">MongoDB Database</text><text fill="#000000" font-family="sans-serif" font-size="14" lengthAdjust="spacing" textLength="81.9561" x="249.7" y="924.372">Port: 27017</text></g><!--entity FileSystem--><g class="entity" data-entity="FileSystem" data-source-line="30" data-uid="ent0020" id="entity_FileSystem"><rect fill="#F1F1F1" height="52.5938" rx="35" ry="35" style="stroke:#181818;stroke-width:0.5;" width="147.0801" x="807.46" y="1050.53"/><text fill="#000000" font-family="sans-serif" font-size="14" lengthAdjust="spacing" textLength="81.1016" x="817.46" y="1073.5251">File System</text><text fill="#000000" font-family="sans-serif" font-size="14" lengthAdjust="spacing" textLength="127.0801" x="817.46" y="1089.822">uploads/ directory</text></g><!--entity ModelFiles--><g class="entity" data-entity="ModelFiles" data-source-line="31" data-uid="ent0021" id="entity_ModelFiles"><rect fill="#F1F1F1" height="52.5938" rx="35" ry="35" style="stroke:#181818;stroke-width:0.5;" width="122.5527" x="649.72" y="1050.53"/><text fill="#000000" font-family="sans-serif" font-size="14" lengthAdjust="spacing" textLength="102.5527" x="659.72" y="1073.5251">ML Model Files</text><text fill="#000000" font-family="sans-serif" font-size="14" lengthAdjust="spacing" textLength="75.8652" x="659.72" y="1089.822">.keras files</text></g><!--entity ViteServer--><g class="entity" data-entity="ViteServer" data-source-line="37" data-uid="ent0024" id="entity_ViteServer"><rect fill="#F1F1F1" height="55.5938" rx="2.5" ry="2.5" style="stroke:#181818;stroke-width:0.5;" width="140.0586" x="1135.97" y="142"/><polygon fill="#F1F1F1" points="1259.0286,147,1259.0286,161,1271.0286,161,1271.0286,153,1265.0286,147,1259.0286,147" style="stroke:#181818;stroke-width:0.5;"/><line style="stroke:#181818;stroke-width:0.5;" x1="1265.0286" x2="1265.0286" y1="147" y2="153"/><line style="stroke:#181818;stroke-width:0.5;" x1="1271.0286" x2="1265.0286" y1="153" y2="153"/><text fill="#000000" font-family="sans-serif" font-size="14" lengthAdjust="spacing" textLength="110.0586" x="1145.97" y="167.9951">Vite Dev Server</text><text fill="#000000" font-family="sans-serif" font-size="14" lengthAdjust="spacing" textLength="73.0488" x="1145.97" y="184.292">Port: 5173</text></g><!--entity NodeDev--><g class="entity" data-entity="NodeDev" data-source-line="38" data-uid="ent0025" id="entity_NodeDev"><rect fill="#F1F1F1" height="55.5938" rx="2.5" ry="2.5" style="stroke:#181818;stroke-width:0.5;" width="164.6611" x="1130.67" y="398.6"/><polygon fill="#F1F1F1" points="1278.3311,403.6,1278.3311,417.6,1290.3311,417.6,1290.3311,409.6,1284.3311,403.6,1278.3311,403.6" style="stroke:#181818;stroke-width:0.5;"/><line style="stroke:#181818;stroke-width:0.5;" x1="1284.3311" x2="1284.3311" y1="403.6" y2="409.6"/><line style="stroke:#181818;stroke-width:0.5;" x1="1290.3311" x2="1284.3311" y1="409.6" y2="409.6"/><text fill="#000000" font-family="sans-serif" font-size="14" lengthAdjust="spacing" textLength="134.6611" x="1140.67" y="424.5951">Node.js Dev Server</text><text fill="#000000" font-family="sans-serif" font-size="14" lengthAdjust="spacing" textLength="73.0488" x="1140.67" y="440.892">Port: 5000</text></g><!--entity MongoLocal--><g class="entity" data-entity="MongoLocal" data-source-line="39" data-uid="ent0026" id="entity_MongoLocal"><path d="M1130.83,564.19 C1130.83,554.19 1194.998,554.19 1194.998,554.19 C1194.998,554.19 1259.1659,554.19 1259.1659,564.19 L1259.1659,605.7837 C1259.1659,615.7837 1194.998,615.7837 1194.998,615.7837 C1194.998,615.7837 1130.83,615.7837 1130.83,605.7837 L1130.83,564.19" fill="#F1F1F1" style="stroke:#181818;stroke-width:0.5;"/><path d="M1130.83,564.19 C1130.83,574.19 1194.998,574.19 1194.998,574.19 C1194.998,574.19 1259.1659,574.19 1259.1659,564.19" fill="none" style="stroke:#181818;stroke-width:0.5;"/><text fill="#000000" font-family="sans-serif" font-size="14" lengthAdjust="spacing" textLength="108.3359" x="1140.83" y="591.1851">Local MongoDB</text><text fill="#000000" font-family="sans-serif" font-size="14" lengthAdjust="spacing" textLength="81.9561" x="1140.83" y="607.482">Port: 27017</text></g><!--entity DockerWeb--><g class="entity" data-entity="DockerWeb" data-source-line="44" data-uid="ent0028" id="entity_DockerWeb"><rect fill="#F1F1F1" height="55.5938" rx="2.5" ry="2.5" style="stroke:#181818;stroke-width:0.5;" width="165.9736" x="237.01" y="142"/><polygon fill="#F1F1F1" points="385.9836,147,385.9836,161,397.9836,161,397.9836,153,391.9836,147,385.9836,147" style="stroke:#181818;stroke-width:0.5;"/><line style="stroke:#181818;stroke-width:0.5;" x1="391.9836" x2="391.9836" y1="147" y2="153"/><line style="stroke:#181818;stroke-width:0.5;" x1="397.9836" x2="391.9836" y1="153" y2="153"/><text fill="#000000" font-family="sans-serif" font-size="14" lengthAdjust="spacing" textLength="86.2559" x="247.01" y="167.9951">nginx:alpine</text><text fill="#000000" font-family="sans-serif" font-size="14" lengthAdjust="spacing" textLength="135.9736" x="247.01" y="184.292">Frontend Container</text></g><!--entity DockerApp--><g class="entity" data-entity="DockerApp" data-source-line="45" data-uid="ent0029" id="entity_DockerApp"><rect fill="#F1F1F1" height="55.5938" rx="2.5" ry="2.5" style="stroke:#181818;stroke-width:0.5;" width="163.2256" x="438.39" y="142"/><polygon fill="#F1F1F1" points="584.6156,147,584.6156,161,596.6156,161,596.6156,153,590.6156,147,584.6156,147" style="stroke:#181818;stroke-width:0.5;"/><line style="stroke:#181818;stroke-width:0.5;" x1="590.6156" x2="590.6156" y1="147" y2="153"/><line style="stroke:#181818;stroke-width:0.5;" x1="596.6156" x2="590.6156" y1="153" y2="153"/><text fill="#000000" font-family="sans-serif" font-size="14" lengthAdjust="spacing" textLength="105.2529" x="448.39" y="167.9951">node:18-alpine</text><text fill="#000000" font-family="sans-serif" font-size="14" lengthAdjust="spacing" textLength="133.2256" x="448.39" y="184.292">Backend Container</text></g><!--entity DockerDB--><g class="entity" data-entity="DockerDB" data-source-line="46" data-uid="ent0030" id="entity_DockerDB"><rect fill="#F1F1F1" height="55.5938" rx="2.5" ry="2.5" style="stroke:#181818;stroke-width:0.5;" width="169.665" x="32.17" y="142"/><polygon fill="#F1F1F1" points="184.835,147,184.835,161,196.835,161,196.835,153,190.835,147,184.835,147" style="stroke:#181818;stroke-width:0.5;"/><line style="stroke:#181818;stroke-width:0.5;" x1="190.835" x2="190.835" y1="147" y2="153"/><line style="stroke:#181818;stroke-width:0.5;" x1="196.835" x2="190.835" y1="153" y2="153"/><text fill="#000000" font-family="sans-serif" font-size="14" lengthAdjust="spacing" textLength="92.5996" x="42.17" y="167.9951">mongo:latest</text><text fill="#000000" font-family="sans-serif" font-size="14" lengthAdjust="spacing" textLength="139.665" x="42.17" y="184.292">Database Container</text></g><!--link Browser to Nginx--><g class="link" data-entity-1="Browser" data-entity-2="Nginx" data-source-line="49" data-uid="lnk31" id="link_Browser_Nginx"><path d="M723.26,189.83 C699.8,211.59 658.67,247.12 618,269.6 C579.61,290.81 564.67,283.9 525,302.6 C465.14,330.8 405.2949,368.2207 364.9149,394.9207" fill="none" id="Browser-to-Nginx" style="stroke:#181818;stroke-width:1;"/><polygon fill="#181818" points="359.91,398.23,369.6235,396.6026,364.0807,395.4723,365.2111,389.9295,359.91,398.23" style="stroke:#181818;stroke-width:1;"/><text fill="#000000" font-family="sans-serif" font-size="13" lengthAdjust="spacing" textLength="79.625" x="602.18" y="290.6669">HTTPS/HTTP</text></g><!--link Nginx to SSL--><g class="link" data-entity-1="Nginx" data-entity-2="SSL" data-source-line="50" data-uid="lnk32" id="link_Nginx_SSL"><path d="M307.15,454.53 C303.43,463.73 299.87,474.21 298,484.19 C292.81,511.96 294.359,538.8588 296.669,559.0788" fill="none" id="Nginx-to-SSL" style="stroke:#181818;stroke-width:1;"/><polygon fill="#181818" points="297.35,565.04,300.3026,555.6441,296.7825,560.0723,292.3543,556.5522,297.35,565.04" style="stroke:#181818;stroke-width:1;"/><text fill="#000000" font-family="sans-serif" font-size="13" lengthAdjust="spacing" textLength="106.5454" x="299" y="497.2569">SSL Termination</text></g><!--link Nginx to NodeServer--><g class="link" data-entity-1="Nginx" data-entity-2="NodeServer" data-source-line="51" data-uid="lnk33" id="link_Nginx_NodeServer"><path d="M363.72,454.67 C409.65,483.32 476.3691,524.9546 522.2691,553.5846" fill="none" id="Nginx-to-NodeServer" style="stroke:#181818;stroke-width:1;"/><polygon fill="#181818" points="527.36,556.76,521.8407,548.603,523.1176,554.1138,517.6068,555.3908,527.36,556.76" style="stroke:#181818;stroke-width:1;"/><text fill="#000000" font-family="sans-serif" font-size="13" lengthAdjust="spacing" textLength="93.4946" x="438.97" y="497.2569">Reverse Proxy</text></g><!--link ReactClient to NodeServer--><g class="link" data-entity-1="ReactClient" data-entity-2="NodeServer" data-source-line="52" data-uid="lnk34" id="link_ReactClient_NodeServer"><path d="M888.62,197.98 C874.15,218.02 853.74,245.81 835,269.6 C749.42,378.2 645.8832,498.2277 598.8332,552.1877" fill="none" id="ReactClient-to-NodeServer" style="stroke:#181818;stroke-width:1;"/><polygon fill="#181818" points="594.89,556.71,603.8197,552.5553,598.176,552.9414,597.7899,547.2977,594.89,556.71" style="stroke:#181818;stroke-width:1;"/><text fill="#000000" font-family="sans-serif" font-size="13" lengthAdjust="spacing" textLength="55.7388" x="809.05" y="430.9569">API Calls</text></g><!--link NodeServer to ExpressApp--><g class="link" data-entity-1="NodeServer" data-entity-2="ExpressApp" data-source-line="54" data-uid="lnk35" id="link_NodeServer_ExpressApp"><path d="M571.17,613.01 C571.37,645.68 571.6743,693.8401 571.8443,722.4201" fill="none" id="NodeServer-to-ExpressApp" style="stroke:#181818;stroke-width:1;"/><polygon fill="#181818" points="571.88,728.42,575.8264,719.3964,571.8503,723.4201,567.8265,719.444,571.88,728.42" style="stroke:#181818;stroke-width:1;"/></g><!--link ExpressApp to MLEngine--><g class="link" data-entity-1="ExpressApp" data-entity-2="MLEngine" data-source-line="55" data-uid="lnk36" id="link_ExpressApp_MLEngine"><path d="M570.75,768.31 C568.84,797.33 565.5861,846.6131 563.6561,875.7831" fill="none" id="ExpressApp-to-MLEngine" style="stroke:#181818;stroke-width:1;"/><polygon fill="#181818" points="563.26,881.77,567.8454,873.0537,563.5901,876.7809,559.8629,872.5256,563.26,881.77" style="stroke:#181818;stroke-width:1;"/></g><!--link ExpressApp to AuthService--><g class="link" data-entity-1="ExpressApp" data-entity-2="AuthService" data-source-line="56" data-uid="lnk37" id="link_ExpressApp_AuthService"><path d="M596.18,768.31 C633.35,797.33 699.4308,848.9075 736.7908,878.0775" fill="none" id="ExpressApp-to-AuthService" style="stroke:#181818;stroke-width:1;"/><polygon fill="#181818" points="741.52,881.77,736.8878,873.0785,737.579,878.6929,731.9645,879.3841,741.52,881.77" style="stroke:#181818;stroke-width:1;"/></g><!--link ExpressApp to MongoDB--><g class="link" data-entity-1="ExpressApp" data-entity-2="MongoDB" data-source-line="57" data-uid="lnk38" id="link_ExpressApp_MongoDB"><path d="M507.89,768.58 C486.24,776.29 462.41,786.2 442,798.08 C407.36,818.24 377.1362,844.1241 353.4962,866.5141" fill="none" id="ExpressApp-to-MongoDB" style="stroke:#181818;stroke-width:1;"/><polygon fill="#181818" points="349.14,870.64,358.425,867.3553,352.7702,867.2017,352.9238,861.547,349.14,870.64" style="stroke:#181818;stroke-width:1;"/><text fill="#000000" font-family="sans-serif" font-size="13" lengthAdjust="spacing" textLength="116.3589" x="443" y="811.1469">Database Queries</text></g><!--link ExpressApp to FileSystem--><g class="link" data-entity-1="ExpressApp" data-entity-2="FileSystem" data-source-line="58" data-uid="lnk39" id="link_ExpressApp_FileSystem"><path d="M656.19,758.17 C736.97,768.49 850.62,788.75 878,823.08 C931.08,889.64 907.2169,994.7323 891.6869,1044.5123" fill="none" id="ExpressApp-to-FileSystem" style="stroke:#181818;stroke-width:1;"/><polygon fill="#181818" points="889.9,1050.24,896.3988,1042.8397,891.3891,1045.4669,888.7619,1040.4571,889.9,1050.24" style="stroke:#181818;stroke-width:1;"/><text fill="#000000" font-family="sans-serif" font-size="13" lengthAdjust="spacing" textLength="98.2998" x="910.93" y="906.4469">File Operations</text></g><!--link MLEngine to ModelFiles--><g class="link" data-entity-1="MLEngine" data-entity-2="ModelFiles" data-source-line="59" data-uid="lnk40" id="link_MLEngine_ModelFiles"><path d="M578.23,921.72 C605.08,952.88 654.8638,1010.6643 685.0938,1045.7543" fill="none" id="MLEngine-to-ModelFiles" style="stroke:#181818;stroke-width:1;"/><polygon fill="#181818" points="689.01,1050.3,686.1663,1040.8706,685.7465,1046.5119,680.1053,1046.0922,689.01,1050.3" style="stroke:#181818;stroke-width:1;"/><text fill="#000000" font-family="sans-serif" font-size="13" lengthAdjust="spacing" textLength="74.5786" x="637.5" y="990.5969">Load Model</text></g><!--link ViteServer to NodeDev--><g class="link" data-entity-1="ViteServer" data-entity-2="NodeDev" data-source-line="61" data-uid="lnk41" id="link_ViteServer_NodeDev"><path d="M1206.75,198.05 C1208.1,247.05 1210.7443,343.4823 1212.0943,392.3423" fill="none" id="ViteServer-to-NodeDev" style="stroke:#181818;stroke-width:1;"/><polygon fill="#181818" points="1212.26,398.34,1216.0099,389.233,1212.1219,393.3419,1208.013,389.4539,1212.26,398.34" style="stroke:#181818;stroke-width:1;"/><text fill="#000000" font-family="sans-serif" font-size="13" lengthAdjust="spacing" textLength="87.5151" x="1210.29" y="290.6669">Development</text></g><!--link NodeDev to MongoLocal--><g class="link" data-entity-1="NodeDev" data-entity-2="MongoLocal" data-source-line="62" data-uid="lnk42" id="link_NodeDev_MongoLocal"><path d="M1209.86,454.67 C1206.68,482.36 1202.4556,519.1693 1199.1556,547.8593" fill="none" id="NodeDev-to-MongoLocal" style="stroke:#181818;stroke-width:1;"/><polygon fill="#181818" points="1198.47,553.82,1203.4722,545.336,1199.0413,548.8528,1195.5246,544.4219,1198.47,553.82" style="stroke:#181818;stroke-width:1;"/><text fill="#000000" font-family="sans-serif" font-size="13" lengthAdjust="spacing" textLength="110.5762" x="1207.14" y="497.2569">Development DB</text></g><!--link DockerWeb to Nginx--><g class="link" data-entity-1="DockerWeb" data-entity-2="Nginx" data-source-line="64" data-uid="lnk43" id="link_DockerWeb_Nginx"><path d="M320,198.05 C320,247.05 320,343.48 320,392.34" fill="none" id="DockerWeb-to-Nginx" style="stroke:#181818;stroke-width:1;"/><polygon fill="#181818" points="320,398.34,324,389.34,320,393.34,316,389.34,320,398.34" style="stroke:#181818;stroke-width:1;"/><text fill="#000000" font-family="sans-serif" font-size="13" lengthAdjust="spacing" textLength="69.6782" x="321" y="290.6669">Production</text></g><!--link DockerApp to NodeServer--><g class="link" data-entity-1="DockerApp" data-entity-2="NodeServer" data-source-line="65" data-uid="lnk44" id="link_DockerApp_NodeServer"><path d="M523.35,197.91 C532.59,272.78 557.6555,475.8351 566.9055,550.8251" fill="none" id="DockerApp-to-NodeServer" style="stroke:#181818;stroke-width:1;"/><polygon fill="#181818" points="567.64,556.78,570.5081,547.358,567.0279,551.8176,562.5683,548.3374,567.64,556.78" style="stroke:#181818;stroke-width:1;"/><text fill="#000000" font-family="sans-serif" font-size="13" lengthAdjust="spacing" textLength="69.6782" x="555.66" y="430.9569">Production</text></g><!--link DockerDB to MongoDB--><g class="link" data-entity-1="DockerDB" data-entity-2="MongoDB" data-source-line="66" data-uid="lnk45" id="link_DockerDB_MongoDB"><path d="M118.06,197.92 C119.78,244.46 123,342.49 123,425.39 C123,425.39 123,425.39 123,749.43 C123,811.36 179.5072,849.1617 233.7672,872.4717" fill="none" id="DockerDB-to-MongoDB" style="stroke:#181818;stroke-width:1;"/><polygon fill="#181818" points="239.28,874.84,232.5896,867.6123,234.686,872.8664,229.4319,874.9628,239.28,874.84" style="stroke:#181818;stroke-width:1;"/><text fill="#000000" font-family="sans-serif" font-size="13" lengthAdjust="spacing" textLength="69.6782" x="124" y="589.5569">Production</text></g><!--SRC=[VLN9Rjim4BtpAmZV7Tjj2WSw5F2Ie0NirgtTzk8B8p4EMuaKIDfrKEJVEoH5YjhYWo3Dl5auV6_CHKRnQ9KpoZM-vnSc1I_WVOJ_8Gm_Rlq_59LuJIyifTvXVaHgzaHIZKU_w2DUIl4NS2DCb7yFI9VcEpNWHLd6IPg97EG1kj2KPqU-4r8d-CDi_jxcjMxNRKZmYjpp5I5NPYT5Taur4tpuHARXFPKNqs_VWRwS6Bz2EG0eYY7ZzSKtSpUTtDwwTYog9tg_t-0LDPyi9PfQBDXGtMxK2imZDp3Jxvij0VhcjyBtrr9IfIfi6D5qEdKz0SovMjEFwwn4KGeEKr73L-7hH76sG6K7yq3WTeEtK367wSDytEct6_Sn4B8uwsVe9Xw3vHf46bVrtRdorYJNH9D70lVL7MFcNQEju2UnNc8FzWDyDv_EvgvNX-YlyS1ooA-59AU65fGpUS2BqhGuydEP2vAf2SwOf2b0Ncm5Wt6GRdoOdW6f8x_vGoM4F9clgZtmMcUR-A1GcekoU5FB0C9RaZxRc-dZsK-cgH5xcs1UWyRV8bYNf3tnCK71tNCr6v6It8z_u5uifdDmaSAKWDLS4pYN3Aok6pFikoOaBy5_v7x1r26sWii3kw4T35MIsTtOXoy9u0QYlIxgwCBqdUIm29G-ya3Ilc1W7HogsfvuFFxeLWnEyAV3ORUVc2To9kCqUoQnpmEL1UDMFP6_tWK0Qomp56tIBdIn-unN9CyLGf7Tm2Bnrw_M4nJUiiVwROTKKao26F6tCvKCcDr2re81i5NOrn9aOOwhaAzSvVJg0EG6nESi2DMq3USr94rmf1hahQ4xHya62CCbeS2KnYNL_pmeaA4xtGuAHj0SHutu3m00]--></g></svg>