<svg xmlns="http://www.w3.org/2000/svg" xmlns:xlink="http://www.w3.org/1999/xlink" contentStyleType="text/css" data-diagram-type="CLASS" height="655px" preserveAspectRatio="none" style="width:1290px;height:655px;background:#FFFFFF;" version="1.1" viewBox="0 0 1290 655" width="1290px" zoomAndPan="magnify"><defs/><g><!--cluster Authentication Layer--><g class="cluster" data-entity="Authentication Layer" data-source-line="1" data-uid="ent0002" id="cluster_Authentication Layer"><path d="M84.5,6 L251.5039,6 A3.75,3.75 0 0 1 254.0039,8.5 L261.0039,28.2969 L261.5,28.2969 A2.5,2.5 0 0 1 264,30.7969 L264,307.98 A2.5,2.5 0 0 1 261.5,310.48 L84.5,310.48 A2.5,2.5 0 0 1 82,307.98 L82,8.5 A2.5,2.5 0 0 1 84.5,6" fill="none" style="stroke:#000000;stroke-width:1.5;"/><line style="stroke:#000000;stroke-width:1.5;" x1="82" x2="261.0039" y1="28.2969" y2="28.2969"/><text fill="#000000" font-family="sans-serif" font-size="14" font-weight="bold" lengthAdjust="spacing" textLength="166.0039" x="86" y="20.9951">Authentication Layer</text></g><!--cluster User Management--><g class="cluster" data-entity="User Management" data-source-line="10" data-uid="ent0006" id="cluster_User Management"><path d="M8.5,334.48 L153.5264,334.48 A3.75,3.75 0 0 1 156.0264,336.98 L163.0264,356.7769 L287.5,356.7769 A2.5,2.5 0 0 1 290,359.2769 L290,613.66 A2.5,2.5 0 0 1 287.5,616.16 L8.5,616.16 A2.5,2.5 0 0 1 6,613.66 L6,336.98 A2.5,2.5 0 0 1 8.5,334.48" fill="none" style="stroke:#000000;stroke-width:1.5;"/><line style="stroke:#000000;stroke-width:1.5;" x1="6" x2="163.0264" y1="356.7769" y2="356.7769"/><text fill="#000000" font-family="sans-serif" font-size="14" font-weight="bold" lengthAdjust="spacing" textLength="144.0264" x="10" y="349.4751">User Management</text></g><!--cluster Analysis Pipeline--><g class="cluster" data-entity="Analysis Pipeline" data-source-line="22" data-uid="ent0009" id="cluster_Analysis Pipeline"><path d="M900.5,210.89 L1035.6484,210.89 A3.75,3.75 0 0 1 1038.1484,213.39 L1045.1484,233.1869 L1280.5,233.1869 A2.5,2.5 0 0 1 1283,235.6869 L1283,621.8 A2.5,2.5 0 0 1 1280.5,624.3 L900.5,624.3 A2.5,2.5 0 0 1 898,621.8 L898,213.39 A2.5,2.5 0 0 1 900.5,210.89" fill="none" style="stroke:#000000;stroke-width:1.5;"/><line style="stroke:#000000;stroke-width:1.5;" x1="898" x2="1045.1484" y1="233.1869" y2="233.1869"/><text fill="#000000" font-family="sans-serif" font-size="14" font-weight="bold" lengthAdjust="spacing" textLength="134.1484" x="902" y="225.8851">Analysis Pipeline</text></g><!--cluster Results Storage--><g class="cluster" data-entity="Results Storage" data-source-line="32" data-uid="ent0014" id="cluster_Results Storage"><path d="M316.5,363.08 L443.0352,363.08 A3.75,3.75 0 0 1 445.5352,365.58 L452.5352,385.3769 L871.5,385.3769 A2.5,2.5 0 0 1 874,387.8769 L874,646.25 A2.5,2.5 0 0 1 871.5,648.75 L316.5,648.75 A2.5,2.5 0 0 1 314,646.25 L314,365.58 A2.5,2.5 0 0 1 316.5,363.08" fill="none" style="stroke:#000000;stroke-width:1.5;"/><line style="stroke:#000000;stroke-width:1.5;" x1="314" x2="452.5352" y1="385.3769" y2="385.3769"/><text fill="#000000" font-family="sans-serif" font-size="14" font-weight="bold" lengthAdjust="spacing" textLength="125.5352" x="318" y="378.0751">Results Storage</text></g><g class="entity" data-entity="AC" data-source-line="2" data-uid="ent0003" id="entity_AC"><rect fill="#F1F1F1" height="36.2969" rx="2.5" ry="2.5" style="stroke:#181818;stroke-width:0.5;" width="120.7021" x="112.65" y="41"/><text fill="#000000" font-family="sans-serif" font-size="14" lengthAdjust="spacing" textLength="106.7021" x="119.65" y="55.9951">:AuthController</text><line style="stroke:#181818;stroke-width:0.5;" x1="113.65" x2="232.3521" y1="61.2969" y2="61.2969"/></g><g class="entity" data-entity="AM" data-source-line="3" data-uid="ent0004" id="entity_AM"><rect fill="#F1F1F1" height="36.2969" rx="2.5" ry="2.5" style="stroke:#181818;stroke-width:0.5;" width="132.1729" x="106.91" y="137.3"/><text fill="#000000" font-family="sans-serif" font-size="14" lengthAdjust="spacing" textLength="118.1729" x="113.91" y="152.2951">:AuthMiddleware</text><line style="stroke:#181818;stroke-width:0.5;" x1="107.91" x2="238.0829" y1="157.5969" y2="157.5969"/></g><g class="entity" data-entity="AT" data-source-line="4" data-uid="ent0005" id="entity_AT"><rect fill="#F1F1F1" height="60.8906" rx="2.5" ry="2.5" style="stroke:#181818;stroke-width:0.5;" width="147.4883" x="99.26" y="233.59"/><text fill="#000000" font-family="sans-serif" font-size="14" lengthAdjust="spacing" textLength="80.2402" x="132.884" y="248.5851">:AuthToken</text><line style="stroke:#181818;stroke-width:0.5;" x1="100.26" x2="245.7483" y1="253.8869" y2="253.8869"/><text fill="#000000" font-family="sans-serif" font-size="14" lengthAdjust="spacing" textLength="121.5977" x="105.26" y="270.882">userId = "12345"</text><text fill="#000000" font-family="sans-serif" font-size="14" lengthAdjust="spacing" textLength="135.4883" x="105.26" y="287.1789">exp = 1640995200</text></g><g class="entity" data-entity="U1" data-source-line="11" data-uid="ent0007" id="entity_U1"><rect fill="#F1F1F1" height="93.4844" rx="2.5" ry="2.5" style="stroke:#181818;stroke-width:0.5;" width="201.2803" x="72.36" y="369.48"/><text fill="#000000" font-family="sans-serif" font-size="14" lengthAdjust="spacing" textLength="36.627" x="154.6867" y="384.4751">:User</text><line style="stroke:#181818;stroke-width:0.5;" x1="73.36" x2="272.6403" y1="389.7769" y2="389.7769"/><text fill="#000000" font-family="sans-serif" font-size="14" lengthAdjust="spacing" textLength="97.8223" x="78.36" y="406.772">_id = "12345"</text><text fill="#000000" font-family="sans-serif" font-size="14" lengthAdjust="spacing" textLength="189.2803" x="78.36" y="423.0689">email = "john@email.com"</text><text fill="#000000" font-family="sans-serif" font-size="14" lengthAdjust="spacing" textLength="132.6104" x="78.36" y="439.3657">firstName = "John"</text><text fill="#000000" font-family="sans-serif" font-size="14" lengthAdjust="spacing" textLength="128.0234" x="78.36" y="455.6626">lastName = "Doe"</text></g><g class="entity" data-entity="UP" data-source-line="17" data-uid="ent0008" id="entity_UP"><rect fill="#F1F1F1" height="44.5938" rx="2.5" ry="2.5" style="stroke:#181818;stroke-width:0.5;" width="252.8916" x="21.55" y="555.56"/><text fill="#000000" font-family="sans-serif" font-size="14" lengthAdjust="spacing" textLength="80.7119" x="107.6398" y="570.5551">:UserProfile</text><line style="stroke:#181818;stroke-width:0.5;" x1="22.55" x2="273.4416" y1="575.8569" y2="575.8569"/><text fill="#000000" font-family="sans-serif" font-size="14" lengthAdjust="spacing" textLength="240.8916" x="27.55" y="592.852">profilePicture = "/profiles/123.jpg"</text></g><g class="entity" data-entity="UC" data-source-line="23" data-uid="ent0010" id="entity_UC"><rect fill="#F1F1F1" height="36.2969" rx="2.5" ry="2.5" style="stroke:#181818;stroke-width:0.5;" width="136.9443" x="1015.53" y="245.89"/><text fill="#000000" font-family="sans-serif" font-size="14" lengthAdjust="spacing" textLength="122.9443" x="1022.53" y="260.8851">:UploadController</text><line style="stroke:#181818;stroke-width:0.5;" x1="1016.53" x2="1151.4743" y1="266.1869" y2="266.1869"/></g><g class="entity" data-entity="ANC" data-source-line="24" data-uid="ent0011" id="entity_ANC"><rect fill="#F1F1F1" height="36.2969" rx="2.5" ry="2.5" style="stroke:#181818;stroke-width:0.5;" width="145.5713" x="914.21" y="398.08"/><text fill="#000000" font-family="sans-serif" font-size="14" lengthAdjust="spacing" textLength="131.5713" x="921.21" y="413.0751">:AnalysisController</text><line style="stroke:#181818;stroke-width:0.5;" x1="915.21" x2="1058.7813" y1="418.3769" y2="418.3769"/></g><g class="entity" data-entity="ML" data-source-line="25" data-uid="ent0012" id="entity_ML"><rect fill="#F1F1F1" height="60.8906" rx="2.5" ry="2.5" style="stroke:#181818;stroke-width:0.5;" width="299.1846" x="914.41" y="547.41"/><text fill="#000000" font-family="sans-serif" font-size="14" lengthAdjust="spacing" textLength="118.3711" x="1004.8167" y="562.4051">:MLModelService</text><line style="stroke:#181818;stroke-width:0.5;" x1="915.41" x2="1212.5946" y1="567.7069" y2="567.7069"/><text fill="#000000" font-family="sans-serif" font-size="14" lengthAdjust="spacing" textLength="287.1846" x="920.41" y="584.702">modelPath = "brain_tumor_model.keras"</text><text fill="#000000" font-family="sans-serif" font-size="14" lengthAdjust="spacing" textLength="111.877" x="920.41" y="600.9989">isLoaded = true</text></g><g class="entity" data-entity="FUM" data-source-line="29" data-uid="ent0013" id="entity_FUM"><rect fill="#F1F1F1" height="36.2969" rx="2.5" ry="2.5" style="stroke:#181818;stroke-width:0.5;" width="172.8604" x="1094.57" y="398.08"/><text fill="#000000" font-family="sans-serif" font-size="14" lengthAdjust="spacing" textLength="158.8604" x="1101.57" y="413.0751">:FileUploadMiddleware</text><line style="stroke:#181818;stroke-width:0.5;" x1="1095.57" x2="1266.4304" y1="418.3769" y2="418.3769"/></g><g class="entity" data-entity="R1" data-source-line="33" data-uid="ent0015" id="entity_R1"><rect fill="#F1F1F1" height="109.7813" rx="2.5" ry="2.5" style="stroke:#181818;stroke-width:0.5;" width="326.8154" x="329.59" y="522.97"/><text fill="#000000" font-family="sans-serif" font-size="14" lengthAdjust="spacing" textLength="48.6035" x="468.696" y="537.9651">:Result</text><line style="stroke:#181818;stroke-width:0.5;" x1="330.59" x2="655.4054" y1="543.2669" y2="543.2669"/><text fill="#000000" font-family="sans-serif" font-size="14" lengthAdjust="spacing" textLength="101.6709" x="335.59" y="560.262">_id = "res001"</text><text fill="#000000" font-family="sans-serif" font-size="14" lengthAdjust="spacing" textLength="121.5977" x="335.59" y="576.5589">userId = "12345"</text><text fill="#000000" font-family="sans-serif" font-size="14" lengthAdjust="spacing" textLength="153.4668" x="335.59" y="592.8557">prediction = "Glioma"</text><text fill="#000000" font-family="sans-serif" font-size="14" lengthAdjust="spacing" textLength="128.4404" x="335.59" y="609.1526">confidence = 0.95</text><text fill="#000000" font-family="sans-serif" font-size="14" lengthAdjust="spacing" textLength="314.8154" x="335.59" y="625.4495">imagePath = "/uploads/1747748329590.jpg"</text></g><g class="entity" data-entity="R2" data-source-line="40" data-uid="ent0016" id="entity_R2"><rect fill="#F1F1F1" height="93.4844" rx="2.5" ry="2.5" style="stroke:#181818;stroke-width:0.5;" width="166.957" x="691.52" y="531.12"/><text fill="#000000" font-family="sans-serif" font-size="14" lengthAdjust="spacing" textLength="48.6035" x="750.6968" y="546.1151">:Result</text><line style="stroke:#181818;stroke-width:0.5;" x1="692.52" x2="857.477" y1="551.4169" y2="551.4169"/><text fill="#000000" font-family="sans-serif" font-size="14" lengthAdjust="spacing" textLength="101.6709" x="697.52" y="568.412">_id = "res002"</text><text fill="#000000" font-family="sans-serif" font-size="14" lengthAdjust="spacing" textLength="121.5977" x="697.52" y="584.7089">userId = "12345"</text><text fill="#000000" font-family="sans-serif" font-size="14" lengthAdjust="spacing" textLength="154.957" x="697.52" y="601.0057">prediction = "Normal"</text><text fill="#000000" font-family="sans-serif" font-size="14" lengthAdjust="spacing" textLength="128.4404" x="697.52" y="617.3026">confidence = 0.88</text></g><g class="entity" data-entity="RC" data-source-line="46" data-uid="ent0017" id="entity_RC"><rect fill="#F1F1F1" height="36.2969" rx="2.5" ry="2.5" style="stroke:#181818;stroke-width:0.5;" width="131.7764" x="568.11" y="398.08"/><text fill="#000000" font-family="sans-serif" font-size="14" lengthAdjust="spacing" textLength="117.7764" x="575.11" y="413.0751">:ResultController</text><line style="stroke:#181818;stroke-width:0.5;" x1="569.11" x2="698.8864" y1="418.3769" y2="418.3769"/></g><!--link AC to AM--><g class="link" data-entity-1="AC" data-entity-2="AM" data-source-line="49" data-uid="lnk18" id="link_AC_AM"><path codeLine="49" d="M173,77.44 C173,94.35 173,113.96 173,130.94" fill="none" id="AC-to-AM" style="stroke:#181818;stroke-width:1;"/><polygon fill="#181818" points="173,136.94,177,127.94,173,131.94,169,127.94,173,136.94" style="stroke:#181818;stroke-width:1;"/></g><!--link AM to AT--><g class="link" data-entity-1="AM" data-entity-2="AT" data-source-line="50" data-uid="lnk19" id="link_AM_AT"><path codeLine="50" d="M173,174.05 C173,190.13 173,208.24 173,227.31" fill="none" id="AM-to-AT" style="stroke:#181818;stroke-width:1;"/><polygon fill="#181818" points="173,233.31,177,224.31,173,228.31,169,224.31,173,233.31" style="stroke:#181818;stroke-width:1;"/></g><!--link AT to U1--><g class="link" data-entity-1="AT" data-entity-2="U1" data-source-line="51" data-uid="lnk20" id="link_AT_U1"><path codeLine="51" d="M173,294.71 C173,315.91 173,338.85 173,363.06" fill="none" id="AT-to-U1" style="stroke:#181818;stroke-width:1;"/><polygon fill="#181818" points="173,369.06,177,360.06,173,364.06,169,360.06,173,369.06" style="stroke:#181818;stroke-width:1;"/></g><!--link U1 to UP--><g class="link" data-entity-1="U1" data-entity-2="UP" data-source-line="52" data-uid="lnk21" id="link_U1_UP"><path codeLine="52" d="M165.77,463.4 C161.04,493.6 156.0098,525.7425 152.3298,549.2025" fill="none" id="U1-to-UP" style="stroke:#181818;stroke-width:1;"/><polygon fill="#181818" points="151.4,555.13,156.7464,546.8586,152.1748,550.1904,148.843,545.6189,151.4,555.13" style="stroke:#181818;stroke-width:1;"/></g><!--link UC to FUM--><g class="link" data-entity-1="UC" data-entity-2="FUM" data-source-line="53" data-uid="lnk22" id="link_UC_FUM"><path codeLine="53" d="M1095.32,282.56 C1114.01,311.5 1147.8543,363.9101 1166.5043,392.7801" fill="none" id="UC-to-FUM" style="stroke:#181818;stroke-width:1;"/><polygon fill="#181818" points="1169.76,397.82,1168.2363,388.0897,1167.0469,393.6201,1161.5165,392.4307,1169.76,397.82" style="stroke:#181818;stroke-width:1;"/></g><!--link UC to ANC--><g class="link" data-entity-1="UC" data-entity-2="ANC" data-source-line="54" data-uid="lnk23" id="link_UC_ANC"><path codeLine="54" d="M1072.68,282.56 C1053.99,311.5 1020.1457,363.9101 1001.4957,392.7801" fill="none" id="UC-to-ANC" style="stroke:#181818;stroke-width:1;"/><polygon fill="#181818" points="998.24,397.82,1006.4835,392.4307,1000.9531,393.6201,999.7637,388.0897,998.24,397.82" style="stroke:#181818;stroke-width:1;"/></g><!--link ANC to ML--><g class="link" data-entity-1="ANC" data-entity-2="ML" data-source-line="55" data-uid="lnk24" id="link_ANC_ML"><path codeLine="55" d="M995.39,434.61 C1008.41,461.6 1031.0334,508.5058 1047.0034,541.6158" fill="none" id="ANC-to-ML" style="stroke:#181818;stroke-width:1;"/><polygon fill="#181818" points="1049.61,547.02,1049.3029,537.1759,1047.4378,542.5165,1042.0973,540.6514,1049.61,547.02" style="stroke:#181818;stroke-width:1;"/></g><!--link ANC to R1--><g class="link" data-entity-1="ANC" data-entity-2="R1" data-source-line="56" data-uid="lnk25" id="link_ANC_R1"><path codeLine="56" d="M946.29,434.79 C924.95,443.72 898.26,454.45 874,462.97 C868.37,464.95 763.26,496.3462 662.57,526.3562" fill="none" id="ANC-to-R1" style="stroke:#181818;stroke-width:1;"/><polygon fill="#181818" points="656.82,528.07,666.5876,529.3327,661.6117,526.6419,664.3026,521.666,656.82,528.07" style="stroke:#181818;stroke-width:1;"/></g><!--link ANC to R2--><g class="link" data-entity-1="ANC" data-entity-2="R2" data-source-line="57" data-uid="lnk26" id="link_ANC_R2"><path codeLine="57" d="M963.91,434.61 C933.54,457.48 883.8234,494.9212 841.1334,527.0612" fill="none" id="ANC-to-R2" style="stroke:#181818;stroke-width:1;"/><polygon fill="#181818" points="836.34,530.67,845.9359,528.4524,840.3345,527.6627,841.1242,522.0612,836.34,530.67" style="stroke:#181818;stroke-width:1;"/></g><!--link RC to R1--><g class="link" data-entity-1="RC" data-entity-2="R1" data-source-line="58" data-uid="lnk27" id="link_RC_R1"><path codeLine="58" d="M618.64,434.61 C600.08,455.62 571.9422,487.4832 544.8322,518.1732" fill="none" id="RC-to-R1" style="stroke:#181818;stroke-width:1;"/><polygon fill="#181818" points="540.86,522.67,549.8162,518.573,544.1702,518.9227,543.8205,513.2766,540.86,522.67" style="stroke:#181818;stroke-width:1;"/></g><!--link RC to R2--><g class="link" data-entity-1="RC" data-entity-2="R2" data-source-line="59" data-uid="lnk28" id="link_RC_R2"><path codeLine="59" d="M649.36,434.61 C669.56,457.48 701.8378,494.0331 730.2278,526.1731" fill="none" id="RC-to-R2" style="stroke:#181818;stroke-width:1;"/><polygon fill="#181818" points="734.2,530.67,731.2396,521.2766,730.8898,526.9226,725.2438,526.5728,734.2,530.67" style="stroke:#181818;stroke-width:1;"/></g><!--link U1 to R1--><g class="link" data-entity-1="U1" data-entity-2="R1" data-source-line="60" data-uid="lnk29" id="link_U1_R1"><path codeLine="60" d="M265.56,463.4 C302.57,481.86 340.1012,500.5812 378.6012,519.7912" fill="none" id="U1-to-R1" style="stroke:#181818;stroke-width:1;"/><polygon fill="#181818" points="383.97,522.47,377.7027,514.8726,379.496,520.2377,374.1309,522.031,383.97,522.47" style="stroke:#181818;stroke-width:1;"/></g><!--link U1 to R2--><g class="link" data-entity-1="U1" data-entity-2="R2" data-source-line="61" data-uid="lnk30" id="link_U1_R2"><path codeLine="61" d="M273.76,451.91 C287.2,455.95 300.87,459.76 314,462.97 C471.58,501.44 520.42,470.77 674,522.97 C680.59,525.21 681.7594,525.4434 688.3694,528.3234" fill="none" id="U1-to-R2" style="stroke:#181818;stroke-width:1;"/><polygon fill="#181818" points="693.87,530.72,687.2169,523.458,689.2862,528.7228,684.0214,530.7921,693.87,530.72" style="stroke:#181818;stroke-width:1;"/></g><!--SRC=[bLDXRvim4FtEhx3utWHeieHAcuOoTTg48qJ3vyY5I-F4sCWsswgf_tqsKCWWqJGafFEzP_lTlND5yZDv0UH6jJu2rpGdcWgEOl8AqaM_7MG-yNo2N2FtmP8sWcif6BCmKIZQJ2cO5WM3dqH2Iy5JoawSWRVehhl5VhK2-Qr07v7h1_UBfTi3yAioMV_3mWl3PU1v3V3cl3bEzLv1PlOYJBXPbAQIYNYBDpTc_iMDUthrkf9GPlCdSUIVczKi5-L0E52fz9QKO4dV3Mc061cGBmBSJkf4IoB5WRAsHLbo8QbgWOJckfRDCVCkfUP6v-nKlRXNweyuOQ-AAfJG2XZbCEr0nGGfHWPcOmExOyO-RqSy76DH07i2-OFcRHKulgYYj6X2zD4My2m9vNjTbqBk6s1s1adKq3IgOYCDh1TQrd2jPu-c0Mq5e_bwpF1VZKX1rKmhzAI5D8b96rgysPfU6GK9olDyzzypMKaeZ4VskHZmAwEY90EQ2twW1V3SEkZDmkLGQsbKlNTcNZSb6MTNYzLgiRuFmcNeNNfyKtjmGtlmtzgtGfQ4tTI-Nj-MCXgJT6EjY3RexkwJVVWHRgETOzwvZJBVCU-lYH8dQtdMm2wqOsR-9iPn7wR-40PEsYVJFjSTclR7fy4V]--></g></svg>