<svg xmlns="http://www.w3.org/2000/svg" xmlns:xlink="http://www.w3.org/1999/xlink" contentStyleType="text/css" data-diagram-type="SEQUENCE" height="987px" preserveAspectRatio="none" style="width:1437px;height:987px;background:#FFFFFF;" version="1.1" viewBox="0 0 1437 987" width="1437px" zoomAndPan="magnify"><defs/><g><rect fill="none" height="191.9297" style="stroke:#000000;stroke-width:1.5;" width="1332.8428" x="10" y="743.0859"/><g><title>User</title><rect fill="#000000" fill-opacity="0.00000" height="915.7188" width="8" x="38.9551" y="36.2969"/><line style="stroke:#181818;stroke-width:0.5;stroke-dasharray:5,5;" x1="42" x2="42" y1="36.2969" y2="952.0156"/></g><g><title>Frontend</title><rect fill="#000000" fill-opacity="0.00000" height="915.7188" width="8" x="224.6807" y="36.2969"/><line style="stroke:#181818;stroke-width:0.5;stroke-dasharray:5,5;" x1="228.126" x2="228.126" y1="36.2969" y2="952.0156"/></g><g><title>AuthMiddleware</title><rect fill="#000000" fill-opacity="0.00000" height="915.7188" width="8" x="476.4219" y="36.2969"/><line style="stroke:#181818;stroke-width:0.5;stroke-dasharray:5,5;" x1="479.6938" x2="479.6938" y1="36.2969" y2="952.0156"/></g><g><title>UploadController</title><rect fill="#000000" fill-opacity="0.00000" height="915.7188" width="8" x="616.2637" y="36.2969"/><line style="stroke:#181818;stroke-width:0.5;stroke-dasharray:5,5;" x1="620.1499" x2="620.1499" y1="36.2969" y2="952.0156"/></g><g><title>FileUploadMiddleware</title><rect fill="#000000" fill-opacity="0.00000" height="915.7188" width="8" x="776.4492" y="36.2969"/><line style="stroke:#181818;stroke-width:0.5;stroke-dasharray:5,5;" x1="780.3774" x2="780.3774" y1="36.2969" y2="952.0156"/></g><g><title>AnalysisController</title><rect fill="#000000" fill-opacity="0.00000" height="915.7188" width="8" x="960.6743" y="36.2969"/><line style="stroke:#181818;stroke-width:0.5;stroke-dasharray:5,5;" x1="964.2471" x2="964.2471" y1="36.2969" y2="952.0156"/></g><g><title>MLModelService</title><rect fill="#000000" fill-opacity="0.00000" height="915.7188" width="8" x="1146.6094" y="36.2969"/><line style="stroke:#181818;stroke-width:0.5;stroke-dasharray:5,5;" x1="1149.7822" x2="1149.7822" y1="36.2969" y2="952.0156"/></g><g><title>Result Model</title><rect fill="#000000" fill-opacity="0.00000" height="915.7188" width="8" x="1276.6572" y="36.2969"/><line style="stroke:#181818;stroke-width:0.5;stroke-dasharray:5,5;" x1="1280.4717" x2="1280.4717" y1="36.2969" y2="952.0156"/></g><g><title>Database</title><rect fill="#000000" fill-opacity="0.00000" height="915.7188" width="8" x="1386.687" y="36.2969"/><line style="stroke:#181818;stroke-width:0.5;stroke-dasharray:5,5;" x1="1390.2866" x2="1390.2866" y1="36.2969" y2="952.0156"/></g><g class="participant participant-head" data-participant="U"><rect fill="#E2E2F0" height="30.2969" rx="2.5" ry="2.5" style="stroke:#181818;stroke-width:0.5;" width="45.9102" x="20" y="5"/><text fill="#000000" font-family="sans-serif" font-size="14" lengthAdjust="spacing" textLength="31.9102" x="27" y="24.9951">User</text></g><g class="participant participant-tail" data-participant="U"><rect fill="#E2E2F0" height="30.2969" rx="2.5" ry="2.5" style="stroke:#181818;stroke-width:0.5;" width="45.9102" x="20" y="951.0156"/><text fill="#000000" font-family="sans-serif" font-size="14" lengthAdjust="spacing" textLength="31.9102" x="27" y="971.0107">User</text></g><g class="participant participant-head" data-participant="F"><rect fill="#E2E2F0" height="30.2969" rx="2.5" ry="2.5" style="stroke:#181818;stroke-width:0.5;" width="77.1094" x="190.126" y="5"/><text fill="#000000" font-family="sans-serif" font-size="14" lengthAdjust="spacing" textLength="63.1094" x="197.126" y="24.9951">Frontend</text></g><g class="participant participant-tail" data-participant="F"><rect fill="#E2E2F0" height="30.2969" rx="2.5" ry="2.5" style="stroke:#181818;stroke-width:0.5;" width="77.1094" x="190.126" y="951.0156"/><text fill="#000000" font-family="sans-serif" font-size="14" lengthAdjust="spacing" textLength="63.1094" x="197.126" y="971.0107">Frontend</text></g><g class="participant participant-head" data-participant="AM"><rect fill="#E2E2F0" height="30.2969" rx="2.5" ry="2.5" style="stroke:#181818;stroke-width:0.5;" width="127.4561" x="416.6938" y="5"/><text fill="#000000" font-family="sans-serif" font-size="14" lengthAdjust="spacing" textLength="113.4561" x="423.6938" y="24.9951">AuthMiddleware</text></g><g class="participant participant-tail" data-participant="AM"><rect fill="#E2E2F0" height="30.2969" rx="2.5" ry="2.5" style="stroke:#181818;stroke-width:0.5;" width="127.4561" x="416.6938" y="951.0156"/><text fill="#000000" font-family="sans-serif" font-size="14" lengthAdjust="spacing" textLength="113.4561" x="423.6938" y="971.0107">AuthMiddleware</text></g><g class="participant participant-head" data-participant="UC"><rect fill="#E2E2F0" height="30.2969" rx="2.5" ry="2.5" style="stroke:#181818;stroke-width:0.5;" width="132.2275" x="554.1499" y="5"/><text fill="#000000" font-family="sans-serif" font-size="14" lengthAdjust="spacing" textLength="118.2275" x="561.1499" y="24.9951">UploadController</text></g><g class="participant participant-tail" data-participant="UC"><rect fill="#E2E2F0" height="30.2969" rx="2.5" ry="2.5" style="stroke:#181818;stroke-width:0.5;" width="132.2275" x="554.1499" y="951.0156"/><text fill="#000000" font-family="sans-serif" font-size="14" lengthAdjust="spacing" textLength="118.2275" x="561.1499" y="971.0107">UploadController</text></g><g class="participant participant-head" data-participant="FUM"><rect fill="#E2E2F0" height="30.2969" rx="2.5" ry="2.5" style="stroke:#181818;stroke-width:0.5;" width="168.1436" x="696.3774" y="5"/><text fill="#000000" font-family="sans-serif" font-size="14" lengthAdjust="spacing" textLength="154.1436" x="703.3774" y="24.9951">FileUploadMiddleware</text></g><g class="participant participant-tail" data-participant="FUM"><rect fill="#E2E2F0" height="30.2969" rx="2.5" ry="2.5" style="stroke:#181818;stroke-width:0.5;" width="168.1436" x="696.3774" y="951.0156"/><text fill="#000000" font-family="sans-serif" font-size="14" lengthAdjust="spacing" textLength="154.1436" x="703.3774" y="971.0107">FileUploadMiddleware</text></g><g class="participant participant-head" data-participant="AC"><rect fill="#E2E2F0" height="30.2969" rx="2.5" ry="2.5" style="stroke:#181818;stroke-width:0.5;" width="140.8545" x="894.2471" y="5"/><text fill="#000000" font-family="sans-serif" font-size="14" lengthAdjust="spacing" textLength="126.8545" x="901.2471" y="24.9951">AnalysisController</text></g><g class="participant participant-tail" data-participant="AC"><rect fill="#E2E2F0" height="30.2969" rx="2.5" ry="2.5" style="stroke:#181818;stroke-width:0.5;" width="140.8545" x="894.2471" y="951.0156"/><text fill="#000000" font-family="sans-serif" font-size="14" lengthAdjust="spacing" textLength="126.8545" x="901.2471" y="971.0107">AnalysisController</text></g><g class="participant participant-head" data-participant="ML"><rect fill="#E2E2F0" height="30.2969" rx="2.5" ry="2.5" style="stroke:#181818;stroke-width:0.5;" width="127.6543" x="1086.7822" y="5"/><text fill="#000000" font-family="sans-serif" font-size="14" lengthAdjust="spacing" textLength="113.6543" x="1093.7822" y="24.9951">MLModelService</text></g><g class="participant participant-tail" data-participant="ML"><rect fill="#E2E2F0" height="30.2969" rx="2.5" ry="2.5" style="stroke:#181818;stroke-width:0.5;" width="127.6543" x="1086.7822" y="951.0156"/><text fill="#000000" font-family="sans-serif" font-size="14" lengthAdjust="spacing" textLength="113.6543" x="1093.7822" y="971.0107">MLModelService</text></g><g class="participant participant-head" data-participant="R"><rect fill="#E2E2F0" height="30.2969" rx="2.5" ry="2.5" style="stroke:#181818;stroke-width:0.5;" width="104.3711" x="1228.4717" y="5"/><text fill="#000000" font-family="sans-serif" font-size="14" lengthAdjust="spacing" textLength="90.3711" x="1235.4717" y="24.9951">Result Model</text></g><g class="participant participant-tail" data-participant="R"><rect fill="#E2E2F0" height="30.2969" rx="2.5" ry="2.5" style="stroke:#181818;stroke-width:0.5;" width="104.3711" x="1228.4717" y="951.0156"/><text fill="#000000" font-family="sans-serif" font-size="14" lengthAdjust="spacing" textLength="90.3711" x="1235.4717" y="971.0107">Result Model</text></g><g class="participant participant-head" data-participant="DB"><rect fill="#E2E2F0" height="30.2969" rx="2.5" ry="2.5" style="stroke:#181818;stroke-width:0.5;" width="80.8008" x="1350.2866" y="5"/><text fill="#000000" font-family="sans-serif" font-size="14" lengthAdjust="spacing" textLength="66.8008" x="1357.2866" y="24.9951">Database</text></g><g class="participant participant-tail" data-participant="DB"><rect fill="#E2E2F0" height="30.2969" rx="2.5" ry="2.5" style="stroke:#181818;stroke-width:0.5;" width="80.8008" x="1350.2866" y="951.0156"/><text fill="#000000" font-family="sans-serif" font-size="14" lengthAdjust="spacing" textLength="66.8008" x="1357.2866" y="971.0107">Database</text></g><g class="message" data-participant-1="U" data-participant-2="F"><polygon fill="#181818" points="216.6807,63.4297,226.6807,67.4297,216.6807,71.4297,220.6807,67.4297" style="stroke:#181818;stroke-width:1;"/><line style="stroke:#181818;stroke-width:1;" x1="42.9551" x2="222.6807" y1="67.4297" y2="67.4297"/><text fill="#000000" font-family="sans-serif" font-size="13" lengthAdjust="spacing" textLength="161.7256" x="49.9551" y="62.3638">Select and upload image</text></g><g class="message" data-participant-1="F" data-participant-2="F"><line style="stroke:#181818;stroke-width:1;" x1="228.6807" x2="270.6807" y1="96.5625" y2="96.5625"/><line style="stroke:#181818;stroke-width:1;" x1="270.6807" x2="270.6807" y1="96.5625" y2="109.5625"/><line style="stroke:#181818;stroke-width:1;" x1="229.6807" x2="270.6807" y1="109.5625" y2="109.5625"/><polygon fill="#181818" points="239.6807,105.5625,229.6807,109.5625,239.6807,113.5625,235.6807,109.5625" style="stroke:#181818;stroke-width:1;"/><text fill="#000000" font-family="sans-serif" font-size="13" lengthAdjust="spacing" textLength="140.0864" x="235.6807" y="91.4966">Validate file type/size</text></g><g class="message" data-participant-1="F" data-participant-2="AM"><polygon fill="#181818" points="468.4219,134.6953,478.4219,138.6953,468.4219,142.6953,472.4219,138.6953" style="stroke:#181818;stroke-width:1;"/><line style="stroke:#181818;stroke-width:1;" x1="228.6807" x2="474.4219" y1="138.6953" y2="138.6953"/><text fill="#000000" font-family="sans-serif" font-size="13" lengthAdjust="spacing" textLength="227.7412" x="235.6807" y="133.6294">POST /api/upload (with auth token)</text></g><g class="message" data-participant-1="AM" data-participant-2="AM"><line style="stroke:#181818;stroke-width:1;" x1="480.4219" x2="522.4219" y1="167.8281" y2="167.8281"/><line style="stroke:#181818;stroke-width:1;" x1="522.4219" x2="522.4219" y1="167.8281" y2="180.8281"/><line style="stroke:#181818;stroke-width:1;" x1="481.4219" x2="522.4219" y1="180.8281" y2="180.8281"/><polygon fill="#181818" points="491.4219,176.8281,481.4219,180.8281,491.4219,184.8281,487.4219,180.8281" style="stroke:#181818;stroke-width:1;"/><text fill="#000000" font-family="sans-serif" font-size="13" lengthAdjust="spacing" textLength="107.8276" x="487.4219" y="162.7622">Verify JWT token</text></g><g class="message" data-participant-1="AM" data-participant-2="UC"><polygon fill="#181818" points="608.2637,205.9609,618.2637,209.9609,608.2637,213.9609,612.2637,209.9609" style="stroke:#181818;stroke-width:1;"/><line style="stroke:#181818;stroke-width:1;" x1="480.4219" x2="614.2637" y1="209.9609" y2="209.9609"/><text fill="#000000" font-family="sans-serif" font-size="13" lengthAdjust="spacing" textLength="106.8057" x="487.4219" y="204.895">Forward request</text></g><g class="message" data-participant-1="UC" data-participant-2="FUM"><polygon fill="#181818" points="768.4492,235.0938,778.4492,239.0938,768.4492,243.0938,772.4492,239.0938" style="stroke:#181818;stroke-width:1;"/><line style="stroke:#181818;stroke-width:1;" x1="620.2637" x2="774.4492" y1="239.0938" y2="239.0938"/><text fill="#000000" font-family="sans-serif" font-size="13" lengthAdjust="spacing" textLength="122.167" x="627.2637" y="234.0278">Process file upload</text></g><g class="message" data-participant-1="FUM" data-participant-2="FUM"><line style="stroke:#181818;stroke-width:1;" x1="780.4492" x2="822.4492" y1="268.2266" y2="268.2266"/><line style="stroke:#181818;stroke-width:1;" x1="822.4492" x2="822.4492" y1="268.2266" y2="281.2266"/><line style="stroke:#181818;stroke-width:1;" x1="781.4492" x2="822.4492" y1="281.2266" y2="281.2266"/><polygon fill="#181818" points="791.4492,277.2266,781.4492,281.2266,791.4492,285.2266,787.4492,281.2266" style="stroke:#181818;stroke-width:1;"/><text fill="#000000" font-family="sans-serif" font-size="13" lengthAdjust="spacing" textLength="170.2251" x="787.4492" y="263.1606">Generate unique filename</text></g><g class="message" data-participant-1="FUM" data-participant-2="FUM"><line style="stroke:#181818;stroke-width:1;" x1="780.4492" x2="822.4492" y1="310.3594" y2="310.3594"/><line style="stroke:#181818;stroke-width:1;" x1="822.4492" x2="822.4492" y1="310.3594" y2="323.3594"/><line style="stroke:#181818;stroke-width:1;" x1="781.4492" x2="822.4492" y1="323.3594" y2="323.3594"/><polygon fill="#181818" points="791.4492,319.3594,781.4492,323.3594,791.4492,327.3594,787.4492,323.3594" style="stroke:#181818;stroke-width:1;"/><text fill="#000000" font-family="sans-serif" font-size="13" lengthAdjust="spacing" textLength="166.8481" x="787.4492" y="305.2935">Save to uploads directory</text></g><g class="message" data-participant-1="FUM" data-participant-2="UC"><polygon fill="#181818" points="631.2637,348.4922,621.2637,352.4922,631.2637,356.4922,627.2637,352.4922" style="stroke:#181818;stroke-width:1;"/><line style="stroke:#181818;stroke-width:1;" x1="625.2637" x2="779.4492" y1="352.4922" y2="352.4922"/><text fill="#000000" font-family="sans-serif" font-size="13" lengthAdjust="spacing" textLength="101.5688" x="637.2637" y="347.4263">Return file path</text></g><g class="message" data-participant-1="UC" data-participant-2="AC"><polygon fill="#181818" points="952.6743,377.625,962.6743,381.625,952.6743,385.625,956.6743,381.625" style="stroke:#181818;stroke-width:1;"/><line style="stroke:#181818;stroke-width:1;" x1="620.2637" x2="958.6743" y1="381.625" y2="381.625"/><text fill="#000000" font-family="sans-serif" font-size="13" lengthAdjust="spacing" textLength="103.5112" x="627.2637" y="376.5591">Trigger analysis</text></g><g class="message" data-participant-1="AC" data-participant-2="ML"><polygon fill="#181818" points="1138.6094,406.7578,1148.6094,410.7578,1138.6094,414.7578,1142.6094,410.7578" style="stroke:#181818;stroke-width:1;"/><line style="stroke:#181818;stroke-width:1;" x1="964.6743" x2="1144.6094" y1="410.7578" y2="410.7578"/><text fill="#000000" font-family="sans-serif" font-size="13" lengthAdjust="spacing" textLength="161.9351" x="971.6743" y="405.6919">Load model if not loaded</text></g><g class="message" data-participant-1="ML" data-participant-2="ML"><line style="stroke:#181818;stroke-width:1;" x1="1150.6094" x2="1192.6094" y1="439.8906" y2="439.8906"/><line style="stroke:#181818;stroke-width:1;" x1="1192.6094" x2="1192.6094" y1="439.8906" y2="452.8906"/><line style="stroke:#181818;stroke-width:1;" x1="1151.6094" x2="1192.6094" y1="452.8906" y2="452.8906"/><polygon fill="#181818" points="1161.6094,448.8906,1151.6094,452.8906,1161.6094,456.8906,1157.6094,452.8906" style="stroke:#181818;stroke-width:1;"/><text fill="#000000" font-family="sans-serif" font-size="13" lengthAdjust="spacing" textLength="116.0479" x="1157.6094" y="434.8247">Preprocess image</text></g><g class="message" data-participant-1="ML" data-participant-2="ML"><line style="stroke:#181818;stroke-width:1;" x1="1150.6094" x2="1192.6094" y1="482.0234" y2="482.0234"/><line style="stroke:#181818;stroke-width:1;" x1="1192.6094" x2="1192.6094" y1="482.0234" y2="495.0234"/><line style="stroke:#181818;stroke-width:1;" x1="1151.6094" x2="1192.6094" y1="495.0234" y2="495.0234"/><polygon fill="#181818" points="1161.6094,491.0234,1151.6094,495.0234,1161.6094,499.0234,1157.6094,495.0234" style="stroke:#181818;stroke-width:1;"/><text fill="#000000" font-family="sans-serif" font-size="13" lengthAdjust="spacing" textLength="95.1514" x="1157.6094" y="476.9575">Run prediction</text></g><g class="message" data-participant-1="ML" data-participant-2="AC"><polygon fill="#181818" points="975.6743,520.1563,965.6743,524.1563,975.6743,528.1563,971.6743,524.1563" style="stroke:#181818;stroke-width:1;"/><line style="stroke:#181818;stroke-width:1;" x1="969.6743" x2="1149.6094" y1="524.1563" y2="524.1563"/><text fill="#000000" font-family="sans-serif" font-size="13" lengthAdjust="spacing" textLength="120.3643" x="981.6743" y="519.0903">Return predictions</text></g><g class="message" data-participant-1="AC" data-participant-2="R"><polygon fill="#181818" points="1268.6572,549.2891,1278.6572,553.2891,1268.6572,557.2891,1272.6572,553.2891" style="stroke:#181818;stroke-width:1;"/><line style="stroke:#181818;stroke-width:1;" x1="964.6743" x2="1274.6572" y1="553.2891" y2="553.2891"/><text fill="#000000" font-family="sans-serif" font-size="13" lengthAdjust="spacing" textLength="128.8701" x="971.6743" y="548.2231">Create result object</text></g><g class="message" data-participant-1="R" data-participant-2="DB"><polygon fill="#181818" points="1378.687,578.4219,1388.687,582.4219,1378.687,586.4219,1382.687,582.4219" style="stroke:#181818;stroke-width:1;"/><line style="stroke:#181818;stroke-width:1;" x1="1280.6572" x2="1384.687" y1="582.4219" y2="582.4219"/><text fill="#000000" font-family="sans-serif" font-size="13" lengthAdjust="spacing" textLength="73.106" x="1287.6572" y="577.356">Save result</text></g><g class="message" data-participant-1="DB" data-participant-2="R"><polygon fill="#181818" points="1291.6572,607.5547,1281.6572,611.5547,1291.6572,615.5547,1287.6572,611.5547" style="stroke:#181818;stroke-width:1;"/><line style="stroke:#181818;stroke-width:1;" x1="1285.6572" x2="1389.687" y1="611.5547" y2="611.5547"/><text fill="#000000" font-family="sans-serif" font-size="13" lengthAdjust="spacing" textLength="86.0298" x="1297.6572" y="606.4888">Confirm save</text></g><g class="message" data-participant-1="R" data-participant-2="AC"><polygon fill="#181818" points="975.6743,636.6875,965.6743,640.6875,975.6743,644.6875,971.6743,640.6875" style="stroke:#181818;stroke-width:1;"/><line style="stroke:#181818;stroke-width:1;" x1="969.6743" x2="1279.6572" y1="640.6875" y2="640.6875"/><text fill="#000000" font-family="sans-serif" font-size="13" lengthAdjust="spacing" textLength="127.9624" x="981.6743" y="635.6216">Return saved result</text></g><g class="message" data-participant-1="AC" data-participant-2="UC"><polygon fill="#181818" points="631.2637,665.8203,621.2637,669.8203,631.2637,673.8203,627.2637,669.8203" style="stroke:#181818;stroke-width:1;"/><line style="stroke:#181818;stroke-width:1;" x1="625.2637" x2="963.6743" y1="669.8203" y2="669.8203"/><text fill="#000000" font-family="sans-serif" font-size="13" lengthAdjust="spacing" textLength="141.9146" x="637.2637" y="664.7544">Return analysis result</text></g><g class="message" data-participant-1="UC" data-participant-2="F"><polygon fill="#181818" points="239.6807,694.9531,229.6807,698.9531,239.6807,702.9531,235.6807,698.9531" style="stroke:#181818;stroke-width:1;"/><line style="stroke:#181818;stroke-width:1;" x1="233.6807" x2="619.2637" y1="698.9531" y2="698.9531"/><text fill="#000000" font-family="sans-serif" font-size="13" lengthAdjust="spacing" textLength="175.8872" x="245.6807" y="693.8872">Send response with results</text></g><g class="message" data-participant-1="F" data-participant-2="U"><polygon fill="#181818" points="53.9551,724.0859,43.9551,728.0859,53.9551,732.0859,49.9551,728.0859" style="stroke:#181818;stroke-width:1;"/><line style="stroke:#181818;stroke-width:1;" x1="47.9551" x2="227.6807" y1="728.0859" y2="728.0859"/><text fill="#000000" font-family="sans-serif" font-size="13" lengthAdjust="spacing" textLength="152.6548" x="59.9551" y="723.02">Display analysis results</text></g><path d="M10,743.0859 L79.4512,743.0859 L79.4512,750.2188 L69.4512,760.2188 L10,760.2188 L10,743.0859" fill="#EEEEEE" style="stroke:#000000;stroke-width:1.5;"/><rect fill="none" height="191.9297" style="stroke:#000000;stroke-width:1.5;" width="1332.8428" x="10" y="743.0859"/><text fill="#000000" font-family="sans-serif" font-size="13" font-weight="bold" lengthAdjust="spacing" textLength="24.4512" x="25" y="756.1528">opt</text><text fill="#000000" font-family="sans-serif" font-size="11" font-weight="bold" lengthAdjust="spacing" textLength="113.2764" x="94.4512" y="755.2964">[Generate Report]</text><g class="message" data-participant-1="U" data-participant-2="F"><polygon fill="#181818" points="216.6807,777.3516,226.6807,781.3516,216.6807,785.3516,220.6807,781.3516" style="stroke:#181818;stroke-width:1;"/><line style="stroke:#181818;stroke-width:1;" x1="42.9551" x2="222.6807" y1="781.3516" y2="781.3516"/><text fill="#000000" font-family="sans-serif" font-size="13" lengthAdjust="spacing" textLength="126.9722" x="49.9551" y="776.2856">Request PDF report</text></g><g class="message" data-participant-1="F" data-participant-2="AC"><polygon fill="#181818" points="952.6743,806.4844,962.6743,810.4844,952.6743,814.4844,956.6743,810.4844" style="stroke:#181818;stroke-width:1;"/><line style="stroke:#181818;stroke-width:1;" x1="228.6807" x2="958.6743" y1="810.4844" y2="810.4844"/><text fill="#000000" font-family="sans-serif" font-size="13" lengthAdjust="spacing" textLength="167.7813" x="235.6807" y="805.4185">GET /api/results/:id/report</text></g><g class="message" data-participant-1="AC" data-participant-2="R"><polygon fill="#181818" points="1268.6572,835.6172,1278.6572,839.6172,1268.6572,843.6172,1272.6572,839.6172" style="stroke:#181818;stroke-width:1;"/><line style="stroke:#181818;stroke-width:1;" x1="964.6743" x2="1274.6572" y1="839.6172" y2="839.6172"/><text fill="#000000" font-family="sans-serif" font-size="13" lengthAdjust="spacing" textLength="90.1748" x="971.6743" y="834.5513">Generate PDF</text></g><g class="message" data-participant-1="R" data-participant-2="AC"><polygon fill="#181818" points="975.6743,864.75,965.6743,868.75,975.6743,872.75,971.6743,868.75" style="stroke:#181818;stroke-width:1;"/><line style="stroke:#181818;stroke-width:1;" x1="969.6743" x2="1279.6572" y1="868.75" y2="868.75"/><text fill="#000000" font-family="sans-serif" font-size="13" lengthAdjust="spacing" textLength="116.5303" x="981.6743" y="863.6841">Return PDF buffer</text></g><g class="message" data-participant-1="AC" data-participant-2="F"><polygon fill="#181818" points="239.6807,893.8828,229.6807,897.8828,239.6807,901.8828,235.6807,897.8828" style="stroke:#181818;stroke-width:1;"/><line style="stroke:#181818;stroke-width:1;" x1="233.6807" x2="963.6743" y1="897.8828" y2="897.8828"/><text fill="#000000" font-family="sans-serif" font-size="13" lengthAdjust="spacing" textLength="62.2007" x="245.6807" y="892.8169">Send PDF</text></g><g class="message" data-participant-1="F" data-participant-2="U"><polygon fill="#181818" points="53.9551,923.0156,43.9551,927.0156,53.9551,931.0156,49.9551,927.0156" style="stroke:#181818;stroke-width:1;"/><line style="stroke:#181818;stroke-width:1;" x1="47.9551" x2="227.6807" y1="927.0156" y2="927.0156"/><text fill="#000000" font-family="sans-serif" font-size="13" lengthAdjust="spacing" textLength="94.0786" x="59.9551" y="921.9497">Download PDF</text></g><!--SRC=[NLAxZjim4Epv5OkhaY9mhoA0R4S772p4aArBpJDNDXEPP9RK6SxNXqy_f58pipEpNCF9oOCqN3buwItI2t0BFJEF_nlIog4I4MkUiNfofrOACUA54qP6tJvJUZDgBbP-1kbnB1QhcOSSCH5dqvf-DgvMVBnQQMS3wzd0TjDgWUCEwLCUqgXsyqpfq4wZWyYBXEuPNtF7FxXDulMIiHw-VOUcWXsEU730bO0fPWPvvaTaJSRV-IW5TmY3RmNkQd1XvR-Crsq5sv-xFIouaOki_tAHxWJSBnES_eFgAwlRGdv7aiCLtdxj4vQXVbL1eyalIW3XtmcjO_qg9kY31Ua3MfiY91VcWHl-YWefP9oKzEB8K_oCJwGT__JvTTPR499ySKtNmWeXEdGJgMHak3lb5BM7zYIFHoI_gVHch8vGkwbW4sgVm-f13g2qWs21WhMRGjaIcjmYxVSETPC2GoZamKcjCb3VmzonujbLi28CXIazk_xuxRkmBe3hPUwQCBPU5ebMWwGpM0ycweD9-2cA9BayxADqBeJyDk5wL5GP7muXFdoYs7GWVGLhQSt8h_CPbZ5jtFtfEZIQ70F_bTFiqYN0TjruqGrkIlJN7_dmyiH59SNYWNXRrit4Juh8l7rm-9Y60Ub1MEeLqQsGlgXuw07mXFy0]--></g></svg>