<svg xmlns="http://www.w3.org/2000/svg" xmlns:xlink="http://www.w3.org/1999/xlink" contentStyleType="text/css" data-diagram-type="STATE" height="2130px" preserveAspectRatio="none" style="width:807px;height:2130px;background:#FFFFFF;" version="1.1" viewBox="0 0 807 2130" width="807px" zoomAndPan="magnify"><defs/><g><!--cluster AuthenticationFlow--><g class="cluster" data-entity="AuthenticationFlow" data-source-line="2" data-uid="ent0003" id="cluster_AuthenticationFlow"><path d="M293.5,192 L711.5,192 A12.5,12.5 0 0 1 724,204.5 L724,213.2969 L281,213.2969 L281,204.5 A12.5,12.5 0 0 1 293.5,192" fill="#F1F1F1"/><rect fill="none" height="609" rx="12.5" ry="12.5" style="stroke:#181818;stroke-width:0.5;" width="443" x="281" y="192"/><line style="stroke:#181818;stroke-width:0.5;" x1="281" x2="724" y1="213.2969" y2="213.2969"/><text fill="#000000" font-family="sans-serif" font-size="14" lengthAdjust="spacing" textLength="134.7295" x="435.1353" y="208.9951">AuthenticationFlow</text></g><!--cluster MainApplication--><g class="cluster" data-entity="MainApplication" data-source-line="23" data-uid="ent0011" id="cluster_MainApplication"><path d="M19.5,850 L740.5,850 A12.5,12.5 0 0 1 753,862.5 L753,871.2969 L7,871.2969 L7,862.5 A12.5,12.5 0 0 1 19.5,850" fill="#F1F1F1"/><rect fill="none" height="1274.3" rx="12.5" ry="12.5" style="stroke:#181818;stroke-width:0.5;" width="746" x="7" y="850"/><line style="stroke:#181818;stroke-width:0.5;" x1="7" x2="753" y1="871.2969" y2="871.2969"/><text fill="#000000" font-family="sans-serif" font-size="14" lengthAdjust="spacing" textLength="111.6445" x="324.1777" y="866.9951">MainApplication</text></g><g id="AuthenticationFlow.CheckingAuth"><rect fill="#F1F1F1" height="50" rx="12.5" ry="12.5" style="stroke:#181818;stroke-width:0.5;" width="117.5283" x="526.24" y="235"/><line style="stroke:#181818;stroke-width:0.5;" x1="526.24" x2="643.7683" y1="261.2969" y2="261.2969"/><text fill="#000000" font-family="sans-serif" font-size="14" lengthAdjust="spacing" textLength="97.5283" x="536.24" y="252.9951">CheckingAuth</text></g><g id="AuthenticationFlow.Unauthenticated"><rect fill="#F1F1F1" height="50" rx="12.5" ry="12.5" style="stroke:#181818;stroke-width:0.5;" width="137.0654" x="422.47" y="362"/><line style="stroke:#181818;stroke-width:0.5;" x1="422.47" x2="559.5354" y1="388.2969" y2="388.2969"/><text fill="#000000" font-family="sans-serif" font-size="14" lengthAdjust="spacing" textLength="117.0654" x="432.47" y="379.9951">Unauthenticated</text></g><g id="AuthenticationFlow.LoginForm"><rect fill="#F1F1F1" height="50" rx="12.5" ry="12.5" style="stroke:#181818;stroke-width:0.5;" width="94.0264" x="304.99" y="473"/><line style="stroke:#181818;stroke-width:0.5;" x1="304.99" x2="399.0164" y1="499.2969" y2="499.2969"/><text fill="#000000" font-family="sans-serif" font-size="14" lengthAdjust="spacing" textLength="74.0264" x="314.99" y="490.9951">LoginForm</text></g><g id="AuthenticationFlow.RegisterForm"><rect fill="#F1F1F1" height="50" rx="12.5" ry="12.5" style="stroke:#181818;stroke-width:0.5;" width="114.2813" x="433.86" y="473"/><line style="stroke:#181818;stroke-width:0.5;" x1="433.86" x2="548.1413" y1="499.2969" y2="499.2969"/><text fill="#000000" font-family="sans-serif" font-size="14" lengthAdjust="spacing" textLength="94.2813" x="443.86" y="490.9951">RegisterForm</text></g><g id="AuthenticationFlow.Authenticating"><rect fill="#F1F1F1" height="50" rx="12.5" ry="12.5" style="stroke:#181818;stroke-width:0.5;" width="123.0928" x="349.45" y="600"/><line style="stroke:#181818;stroke-width:0.5;" x1="349.45" x2="472.5428" y1="626.2969" y2="626.2969"/><text fill="#000000" font-family="sans-serif" font-size="14" lengthAdjust="spacing" textLength="103.0928" x="359.45" y="617.9951">Authenticating</text></g><g id="AuthenticationFlow.Registering"><rect fill="#F1F1F1" height="50" rx="12.5" ry="12.5" style="stroke:#181818;stroke-width:0.5;" width="99.9189" x="508.04" y="600"/><line style="stroke:#181818;stroke-width:0.5;" x1="508.04" x2="607.9589" y1="626.2969" y2="626.2969"/><text fill="#000000" font-family="sans-serif" font-size="14" lengthAdjust="spacing" textLength="79.9189" x="518.04" y="617.9951">Registering</text></g><g id="AuthenticationFlow.Authenticated"><rect fill="#F1F1F1" height="50" rx="12.5" ry="12.5" style="stroke:#181818;stroke-width:0.5;" width="118.9434" x="498.53" y="727"/><line style="stroke:#181818;stroke-width:0.5;" x1="498.53" x2="617.4734" y1="753.2969" y2="753.2969"/><text fill="#000000" font-family="sans-serif" font-size="14" lengthAdjust="spacing" textLength="98.9434" x="508.53" y="744.9951">Authenticated</text></g><g id="MainApplication.Dashboard"><rect fill="#F1F1F1" height="50" rx="12.5" ry="12.5" style="stroke:#181818;stroke-width:0.5;" width="96.2002" x="509.9" y="893"/><line style="stroke:#181818;stroke-width:0.5;" x1="509.9" x2="606.1002" y1="919.2969" y2="919.2969"/><text fill="#000000" font-family="sans-serif" font-size="14" lengthAdjust="spacing" textLength="76.2002" x="519.9" y="910.9951">Dashboard</text></g><g id="MainApplication.ProfileManagement"><rect fill="#F1F1F1" height="50" rx="12.5" ry="12.5" style="stroke:#181818;stroke-width:0.5;" width="156.3086" x="30.85" y="1416.15"/><line style="stroke:#181818;stroke-width:0.5;" x1="30.85" x2="187.1586" y1="1442.4469" y2="1442.4469"/><text fill="#000000" font-family="sans-serif" font-size="14" lengthAdjust="spacing" textLength="136.3086" x="40.85" y="1434.1451">ProfileManagement</text></g><path d="M235.12,1020 L552.8704,1020 A12.5,12.5 0 0 1 565.3704,1032.5 L565.3704,1046.2969 L222.62,1046.2969 L222.62,1032.5 A12.5,12.5 0 0 1 235.12,1020" fill="#F1F1F1"/><rect fill="none" height="842.2969" rx="12.5" ry="12.5" style="stroke:#181818;stroke-width:0.5;" width="342.7504" x="222.62" y="1020"/><line style="stroke:#181818;stroke-width:0.5;" x1="222.62" x2="565.3704" y1="1046.2969" y2="1046.2969"/><text fill="#000000" font-family="sans-serif" font-size="14" lengthAdjust="spacing" textLength="133.4854" x="327.2525" y="1037.9951">ImageAnalysisFlow</text><g id="MainApplication.ImageAnalysisFlow.ImageAnalysis"><rect fill="#F1F1F1" height="50" rx="12.5" ry="12.5" style="stroke:#181818;stroke-width:0.5;" width="121.5273" x="367.43" y="1058.2969"/><line style="stroke:#181818;stroke-width:0.5;" x1="367.43" x2="488.9573" y1="1084.5938" y2="1084.5938"/><text fill="#000000" font-family="sans-serif" font-size="14" lengthAdjust="spacing" textLength="101.5273" x="377.43" y="1076.292">ImageAnalysis</text></g><g id="MainApplication.ImageAnalysisFlow.ImageSelection"><rect fill="#F1F1F1" height="50" rx="12.5" ry="12.5" style="stroke:#181818;stroke-width:0.5;" width="128.3633" x="364.01" y="1145.2969"/><line style="stroke:#181818;stroke-width:0.5;" x1="364.01" x2="492.3733" y1="1171.5938" y2="1171.5938"/><text fill="#000000" font-family="sans-serif" font-size="14" lengthAdjust="spacing" textLength="108.3633" x="374.01" y="1163.292">ImageSelection</text></g><g id="MainApplication.ImageAnalysisFlow.ImageUploading"><rect fill="#F1F1F1" height="50" rx="12.5" ry="12.5" style="stroke:#181818;stroke-width:0.5;" width="134.5498" x="360.91" y="1248.2969"/><line style="stroke:#181818;stroke-width:0.5;" x1="360.91" x2="495.4598" y1="1274.5938" y2="1274.5938"/><text fill="#000000" font-family="sans-serif" font-size="14" lengthAdjust="spacing" textLength="114.5498" x="370.91" y="1266.292">ImageUploading</text></g><g id="MainApplication.ImageAnalysisFlow.ImageProcessing"><rect fill="#F1F1F1" height="50" rx="12.5" ry="12.5" style="stroke:#181818;stroke-width:0.5;" width="139.1572" x="358.61" y="1351.2969"/><line style="stroke:#181818;stroke-width:0.5;" x1="358.61" x2="497.7672" y1="1377.5938" y2="1377.5938"/><text fill="#000000" font-family="sans-serif" font-size="14" lengthAdjust="spacing" textLength="119.1572" x="368.61" y="1369.292">ImageProcessing</text></g><g id="MainApplication.ImageAnalysisFlow.MLAnalysis"><rect fill="#F1F1F1" height="50" rx="12.5" ry="12.5" style="stroke:#181818;stroke-width:0.5;" width="97.5605" x="379.41" y="1438.2969"/><line style="stroke:#181818;stroke-width:0.5;" x1="379.41" x2="476.9705" y1="1464.5938" y2="1464.5938"/><text fill="#000000" font-family="sans-serif" font-size="14" lengthAdjust="spacing" textLength="77.5605" x="389.41" y="1456.292">MLAnalysis</text></g><g id="MainApplication.ImageAnalysisFlow.ResultGenerated"><rect fill="#F1F1F1" height="50" rx="12.5" ry="12.5" style="stroke:#181818;stroke-width:0.5;" width="138.1592" x="288.11" y="1541.2969"/><line style="stroke:#181818;stroke-width:0.5;" x1="288.11" x2="426.2692" y1="1567.5938" y2="1567.5938"/><text fill="#000000" font-family="sans-serif" font-size="14" lengthAdjust="spacing" textLength="118.1592" x="298.11" y="1559.292">ResultGenerated</text></g><g id="MainApplication.ImageAnalysisFlow.AnalysisError"><rect fill="#F1F1F1" height="50" rx="12.5" ry="12.5" style="stroke:#181818;stroke-width:0.5;" width="112.3604" x="444.01" y="1541.2969"/><line style="stroke:#181818;stroke-width:0.5;" x1="444.01" x2="556.3704" y1="1567.5938" y2="1567.5938"/><text fill="#000000" font-family="sans-serif" font-size="14" lengthAdjust="spacing" textLength="92.3604" x="454.01" y="1559.292">AnalysisError</text></g><g id="MainApplication.ImageAnalysisFlow.ResultDisplay"><rect fill="#F1F1F1" height="50" rx="12.5" ry="12.5" style="stroke:#181818;stroke-width:0.5;" width="115.4912" x="299.44" y="1628.2969"/><line style="stroke:#181818;stroke-width:0.5;" x1="299.44" x2="414.9312" y1="1654.5938" y2="1654.5938"/><text fill="#000000" font-family="sans-serif" font-size="14" lengthAdjust="spacing" textLength="95.4912" x="309.44" y="1646.292">ResultDisplay</text></g><g id="MainApplication.ImageAnalysisFlow.ReportGeneration"><rect fill="#F1F1F1" height="50" rx="12.5" ry="12.5" style="stroke:#181818;stroke-width:0.5;" width="145.1387" x="234.62" y="1715.2969"/><line style="stroke:#181818;stroke-width:0.5;" x1="234.62" x2="379.7587" y1="1741.5938" y2="1741.5938"/><text fill="#000000" font-family="sans-serif" font-size="14" lengthAdjust="spacing" textLength="125.1387" x="244.62" y="1733.292">ReportGeneration</text></g><g id="MainApplication.ImageAnalysisFlow.PDFGenerated"><rect fill="#F1F1F1" height="50" rx="12.5" ry="12.5" style="stroke:#181818;stroke-width:0.5;" width="121.5479" x="296.42" y="1802.2969"/><line style="stroke:#181818;stroke-width:0.5;" x1="296.42" x2="417.9679" y1="1828.5938" y2="1828.5938"/><text fill="#000000" font-family="sans-serif" font-size="14" lengthAdjust="spacing" textLength="101.5479" x="306.42" y="1820.292">PDFGenerated</text></g><!--link ImageAnalysis to ImageSelection--><g class="link" data-entity-1="ImageAnalysis" data-entity-2="ImageSelection" data-source-line="38" data-uid="lnk12" id="link_ImageAnalysis_ImageSelection"><path d="M428.19,1108.4269 C428.19,1119.8169 428.19,1127.3769 428.19,1138.8069" fill="none" id="ImageAnalysis-to-ImageSelection" style="stroke:#181818;stroke-width:1;"/><polygon fill="#181818" points="428.19,1144.8069,432.19,1135.8069,428.19,1139.8069,424.19,1135.8069,428.19,1144.8069" style="stroke:#181818;stroke-width:1;"/></g><!--link ImageSelection to ImageUploading--><g class="link" data-entity-1="ImageSelection" data-entity-2="ImageUploading" data-source-line="39" data-uid="lnk13" id="link_ImageSelection_ImageUploading"><path d="M397.85,1195.4969 C393.09,1200.8169 388.87,1206.8169 386.19,1213.2969 C381.09,1225.6069 383.3768,1233.4046 392.5468,1243.5046" fill="none" id="ImageSelection-to-ImageUploading" style="stroke:#181818;stroke-width:1;"/><polygon fill="#181818" points="396.58,1247.9469,393.4917,1238.5947,393.219,1244.245,387.5687,1243.9723,396.58,1247.9469" style="stroke:#181818;stroke-width:1;"/><text fill="#000000" font-family="sans-serif" font-size="13" lengthAdjust="spacing" textLength="62.5562" x="387.19" y="1226.3638">select file</text></g><!--link ImageUploading to ImageProcessing--><g class="link" data-entity-1="ImageUploading" data-entity-2="ImageProcessing" data-source-line="40" data-uid="lnk14" id="link_ImageUploading_ImageProcessing"><path d="M428.19,1298.7469 C428.19,1314.6269 428.19,1329.2369 428.19,1345.0769" fill="none" id="ImageUploading-to-ImageProcessing" style="stroke:#181818;stroke-width:1;"/><polygon fill="#181818" points="428.19,1351.0769,432.19,1342.0769,428.19,1346.0769,424.19,1342.0769,428.19,1351.0769" style="stroke:#181818;stroke-width:1;"/><text fill="#000000" font-family="sans-serif" font-size="13" lengthAdjust="spacing" textLength="99.2583" x="429.19" y="1329.3638">upload success</text></g><!--link ImageUploading to ImageSelection--><g class="link" data-entity-1="ImageUploading" data-entity-2="ImageSelection" data-source-line="41" data-uid="lnk15" id="link_ImageUploading_ImageSelection"><path d="M444.3,1248.0069 C449.4,1237.5069 453.06,1224.9769 450.19,1213.2969 C448.69,1207.2269 448.8333,1206.4234 445.9933,1200.7434" fill="none" id="ImageUploading-to-ImageSelection" style="stroke:#181818;stroke-width:1;"/><polygon fill="#181818" points="443.31,1195.3769,443.7572,1205.2156,445.5461,1199.849,450.9126,1201.6379,443.31,1195.3769" style="stroke:#181818;stroke-width:1;"/><text fill="#000000" font-family="sans-serif" font-size="13" lengthAdjust="spacing" textLength="84.4238" x="452.2" y="1226.3638">upload failed</text></g><!--link ImageProcessing to MLAnalysis--><g class="link" data-entity-1="ImageProcessing" data-entity-2="MLAnalysis" data-source-line="42" data-uid="lnk16" id="link_ImageProcessing_MLAnalysis"><path d="M428.19,1401.4269 C428.19,1412.8169 428.19,1420.3769 428.19,1431.8069" fill="none" id="ImageProcessing-to-MLAnalysis" style="stroke:#181818;stroke-width:1;"/><polygon fill="#181818" points="428.19,1437.8069,432.19,1428.8069,428.19,1432.8069,424.19,1428.8069,428.19,1437.8069" style="stroke:#181818;stroke-width:1;"/></g><!--link MLAnalysis to ResultGenerated--><g class="link" data-entity-1="MLAnalysis" data-entity-2="ResultGenerated" data-source-line="43" data-uid="lnk17" id="link_MLAnalysis_ResultGenerated"><path d="M411,1488.7469 C399.84,1504.6269 388.7995,1520.3276 377.6695,1536.1676" fill="none" id="MLAnalysis-to-ResultGenerated" style="stroke:#181818;stroke-width:1;"/><polygon fill="#181818" points="374.22,1541.0769,382.6671,1536.0126,377.0946,1536.9858,376.1214,1531.4133,374.22,1541.0769" style="stroke:#181818;stroke-width:1;"/><text fill="#000000" font-family="sans-serif" font-size="13" lengthAdjust="spacing" textLength="50.8511" x="397.94" y="1519.3638">success</text></g><!--link MLAnalysis to AnalysisError--><g class="link" data-entity-1="MLAnalysis" data-entity-2="AnalysisError" data-source-line="44" data-uid="lnk18" id="link_MLAnalysis_AnalysisError"><path d="M445.62,1488.7469 C456.94,1504.6269 468.1475,1520.3509 479.4375,1536.1909" fill="none" id="MLAnalysis-to-AnalysisError" style="stroke:#181818;stroke-width:1;"/><polygon fill="#181818" points="482.92,1541.0769,480.9536,1531.4263,480.0179,1537.0053,474.439,1536.0696,482.92,1541.0769" style="stroke:#181818;stroke-width:1;"/><text fill="#000000" font-family="sans-serif" font-size="13" lengthAdjust="spacing" textLength="41.3486" x="469.5" y="1519.3638">failure</text></g><!--link ResultGenerated to ResultDisplay--><g class="link" data-entity-1="ResultGenerated" data-entity-2="ResultDisplay" data-source-line="45" data-uid="lnk19" id="link_ResultGenerated_ResultDisplay"><path d="M357.19,1591.4269 C357.19,1602.8169 357.19,1610.3769 357.19,1621.8069" fill="none" id="ResultGenerated-to-ResultDisplay" style="stroke:#181818;stroke-width:1;"/><polygon fill="#181818" points="357.19,1627.8069,361.19,1618.8069,357.19,1622.8069,353.19,1618.8069,357.19,1627.8069" style="stroke:#181818;stroke-width:1;"/></g><!--link ResultDisplay to ReportGeneration--><g class="link" data-entity-1="ResultDisplay" data-entity-2="ReportGeneration" data-source-line="46" data-uid="lnk20" id="link_ResultDisplay_ReportGeneration"><path d="M343,1678.4269 C336.3,1689.8169 331.3643,1698.2065 324.6343,1709.6365" fill="none" id="ResultDisplay-to-ReportGeneration" style="stroke:#181818;stroke-width:1;"/><polygon fill="#181818" points="321.59,1714.8069,329.6033,1709.0809,324.1269,1710.4983,322.7096,1705.0219,321.59,1714.8069" style="stroke:#181818;stroke-width:1;"/></g><!--link ReportGeneration to PDFGenerated--><g class="link" data-entity-1="ReportGeneration" data-entity-2="PDFGenerated" data-source-line="47" data-uid="lnk21" id="link_ReportGeneration_PDFGenerated"><path d="M321.38,1765.4269 C328.08,1776.8169 333.0157,1785.2065 339.7457,1796.6365" fill="none" id="ReportGeneration-to-PDFGenerated" style="stroke:#181818;stroke-width:1;"/><polygon fill="#181818" points="342.79,1801.8069,341.6704,1792.0219,340.2531,1797.4983,334.7767,1796.0809,342.79,1801.8069" style="stroke:#181818;stroke-width:1;"/></g><!--link PDFGenerated to ResultDisplay--><g class="link" data-entity-1="PDFGenerated" data-entity-2="ResultDisplay" data-source-line="48" data-uid="lnk22" id="link_PDFGenerated_ResultDisplay"><path d="M373.47,1801.8669 C379.69,1791.1269 386.04,1778.0669 389.19,1765.2969 C394.51,1743.7169 394.51,1736.8769 389.19,1715.2969 C386.04,1702.5269 382.697,1694.659 376.477,1683.919" fill="none" id="PDFGenerated-to-ResultDisplay" style="stroke:#181818;stroke-width:1;"/><polygon fill="#181818" points="373.47,1678.7269,374.5191,1688.5197,375.9758,1683.0536,381.4419,1684.5104,373.47,1678.7269" style="stroke:#181818;stroke-width:1;"/></g><g id="MainApplication.ResultsHistory"><rect fill="#F1F1F1" height="50" rx="12.5" ry="12.5" style="stroke:#181818;stroke-width:0.5;" width="120.9873" x="600.51" y="1416.15"/><line style="stroke:#181818;stroke-width:0.5;" x1="600.51" x2="721.4973" y1="1442.4469" y2="1442.4469"/><text fill="#000000" font-family="sans-serif" font-size="14" lengthAdjust="spacing" textLength="100.9873" x="610.51" y="1434.1451">ResultsHistory</text></g><g id="MainApplication.ProfileEditing"><rect fill="#F1F1F1" height="50" rx="12.5" ry="12.5" style="stroke:#181818;stroke-width:0.5;" width="112.8457" x="41.58" y="1923.3"/><line style="stroke:#181818;stroke-width:0.5;" x1="41.58" x2="154.4257" y1="1949.5969" y2="1949.5969"/><text fill="#000000" font-family="sans-serif" font-size="14" lengthAdjust="spacing" textLength="92.8457" x="51.58" y="1941.2951">ProfileEditing</text></g><g id="MainApplication.ProfileSaving"><rect fill="#F1F1F1" height="50" rx="12.5" ry="12.5" style="stroke:#181818;stroke-width:0.5;" width="111.4854" x="83.26" y="2050.3"/><line style="stroke:#181818;stroke-width:0.5;" x1="83.26" x2="194.7454" y1="2076.5969" y2="2076.5969"/><text fill="#000000" font-family="sans-serif" font-size="14" lengthAdjust="spacing" textLength="91.4854" x="93.26" y="2068.2951">ProfileSaving</text></g><g id="AppInitialized"><rect fill="#F1F1F1" height="50" rx="12.5" ry="12.5" style="stroke:#181818;stroke-width:0.5;" width="114.8281" x="658.59" y="87"/><line style="stroke:#181818;stroke-width:0.5;" x1="658.59" x2="773.4181" y1="113.2969" y2="113.2969"/><text fill="#000000" font-family="sans-serif" font-size="14" lengthAdjust="spacing" textLength="94.8281" x="668.59" y="104.9951">AppInitialized</text></g><ellipse cx="716" cy="16" fill="#222222" rx="10" ry="10" style="stroke:#222222;stroke-width:1;"/><ellipse cx="788" cy="1441.15" fill="none" rx="11" ry="11" style="stroke:#222222;stroke-width:1;"/><ellipse cx="788" cy="1441.15" fill="#222222" rx="6" ry="6" style="stroke:#222222;stroke-width:1;"/><!--link CheckingAuth to Unauthenticated--><g class="link" data-entity-1="CheckingAuth" data-entity-2="Unauthenticated" data-source-line="11" data-uid="lnk2" id="link_CheckingAuth_Unauthenticated"><path d="M566.65,285.4 C550.09,307.43 529.4559,334.8644 512.9059,356.8744" fill="none" id="CheckingAuth-to-Unauthenticated" style="stroke:#181818;stroke-width:1;"/><polygon fill="#181818" points="509.3,361.67,517.9059,356.8806,512.3049,357.6737,511.5119,352.0727,509.3,361.67" style="stroke:#181818;stroke-width:1;"/><text fill="#000000" font-family="sans-serif" font-size="13" lengthAdjust="spacing" textLength="57.1416" x="544.63" y="328.0669">no token</text></g><!--link CheckingAuth to Authenticated--><g class="link" data-entity-1="CheckingAuth" data-entity-2="Authenticated" data-source-line="12" data-uid="lnk3" id="link_CheckingAuth_Authenticated"><path d="M599.34,285.49 C603.91,294.47 608.44,304.92 611,315 C647.71,459.43 636.01,501.39 625,650 C623.44,671.06 627.99,678.4 618,697 C611.97,708.24 607.1602,714.3644 597.6402,722.6744" fill="none" id="CheckingAuth-to-Authenticated" style="stroke:#181818;stroke-width:1;"/><polygon fill="#181818" points="593.12,726.62,602.5307,723.715,596.8868,723.332,597.2698,717.6881,593.12,726.62" style="stroke:#181818;stroke-width:1;"/><text fill="#000000" font-family="sans-serif" font-size="13" lengthAdjust="spacing" textLength="72.084" x="636.9" y="502.5669">valid token</text></g><!--link Unauthenticated to LoginForm--><g class="link" data-entity-1="Unauthenticated" data-entity-2="LoginForm" data-source-line="13" data-uid="lnk4" id="link_Unauthenticated_LoginForm"><path d="M459.81,412.47 C436.91,430.42 410.6818,450.9881 387.8118,468.9181" fill="none" id="Unauthenticated-to-LoginForm" style="stroke:#181818;stroke-width:1;"/><polygon fill="#181818" points="383.09,472.62,392.6407,470.215,387.0249,469.5351,387.7048,463.9192,383.09,472.62" style="stroke:#181818;stroke-width:1;"/></g><!--link Unauthenticated to RegisterForm--><g class="link" data-entity-1="Unauthenticated" data-entity-2="RegisterForm" data-source-line="14" data-uid="lnk5" id="link_Unauthenticated_RegisterForm"><path d="M491,412.47 C491,430.42 491,448.69 491,466.62" fill="none" id="Unauthenticated-to-RegisterForm" style="stroke:#181818;stroke-width:1;"/><polygon fill="#181818" points="491,472.62,495,463.62,491,467.62,487,463.62,491,472.62" style="stroke:#181818;stroke-width:1;"/></g><!--link LoginForm to Authenticating--><g class="link" data-entity-1="LoginForm" data-entity-2="Authenticating" data-source-line="15" data-uid="lnk6" id="link_LoginForm_Authenticating"><path d="M339.15,523.39 C333.5,537.6 329.64,555.51 337,570 C343.05,581.91 348.2706,588.2596 359.0406,596.1996" fill="none" id="LoginForm-to-Authenticating" style="stroke:#181818;stroke-width:1;"/><polygon fill="#181818" points="363.87,599.76,358.9995,591.1998,359.8455,596.793,354.2522,597.639,363.87,599.76" style="stroke:#181818;stroke-width:1;"/><text fill="#000000" font-family="sans-serif" font-size="13" lengthAdjust="spacing" textLength="44.6367" x="338" y="566.0669">submit</text></g><!--link Authenticating to LoginForm--><g class="link" data-entity-1="Authenticating" data-entity-2="LoginForm" data-source-line="18" data-uid="lnk9" id="link_Authenticating_LoginForm"><path d="M404.44,599.75 C400.25,585.75 394.25,568 387,553 C382.09,542.85 378.9346,537.2881 372.8846,528.2381" fill="none" id="Authenticating-to-LoginForm" style="stroke:#181818;stroke-width:1;"/><polygon fill="#181818" points="369.55,523.25,371.2265,532.9551,372.3288,527.4067,377.8772,528.509,369.55,523.25" style="stroke:#181818;stroke-width:1;"/><text fill="#000000" font-family="sans-serif" font-size="13" lengthAdjust="spacing" textLength="41.3486" x="395.32" y="566.0669">failure</text></g><!--link RegisterForm to Registering--><g class="link" data-entity-1="RegisterForm" data-entity-2="Registering" data-source-line="16" data-uid="lnk7" id="link_RegisterForm_Registering"><path d="M492.79,523.49 C494.64,537.73 498.39,555.64 506,570 C511.79,580.93 516.1924,586.9423 524.7924,595.5223" fill="none" id="RegisterForm-to-Registering" style="stroke:#181818;stroke-width:1;"/><polygon fill="#181818" points="529.04,599.76,525.4938,590.5717,525.5004,596.2286,519.8435,596.2352,529.04,599.76" style="stroke:#181818;stroke-width:1;"/><text fill="#000000" font-family="sans-serif" font-size="13" lengthAdjust="spacing" textLength="44.6367" x="507" y="566.0669">submit</text></g><!--link Registering to RegisterForm--><g class="link" data-entity-1="Registering" data-entity-2="RegisterForm" data-source-line="20" data-uid="lnk11" id="link_Registering_RegisterForm"><path d="M562.12,599.81 C563.42,585.5 563.01,567.42 556,553 C550.35,541.39 545.5577,535.1846 535.5877,527.0446" fill="none" id="Registering-to-RegisterForm" style="stroke:#181818;stroke-width:1;"/><polygon fill="#181818" points="530.94,523.25,535.3818,532.0404,534.8131,526.4122,540.4413,525.8434,530.94,523.25" style="stroke:#181818;stroke-width:1;"/><text fill="#000000" font-family="sans-serif" font-size="13" lengthAdjust="spacing" textLength="41.3486" x="562.19" y="566.0669">failure</text></g><!--link Authenticating to Authenticated--><g class="link" data-entity-1="Authenticating" data-entity-2="Authenticated" data-source-line="17" data-uid="lnk8" id="link_Authenticating_Authenticated"><path d="M439.69,650.4 C465.59,672.43 498.9294,700.7729 524.8094,722.7829" fill="none" id="Authenticating-to-Authenticated" style="stroke:#181818;stroke-width:1;"/><polygon fill="#181818" points="529.38,726.67,525.1155,717.7923,525.5712,723.4307,519.9327,723.8864,529.38,726.67" style="stroke:#181818;stroke-width:1;"/><text fill="#000000" font-family="sans-serif" font-size="13" lengthAdjust="spacing" textLength="50.8511" x="494.3" y="693.0669">success</text></g><!--link Registering to Authenticated--><g class="link" data-entity-1="Registering" data-entity-2="Authenticated" data-source-line="19" data-uid="lnk10" id="link_Registering_Authenticated"><path d="M558,650.4 C558,672.43 558,698.66 558,720.67" fill="none" id="Registering-to-Authenticated" style="stroke:#181818;stroke-width:1;"/><polygon fill="#181818" points="558,726.67,562,717.67,558,721.67,554,717.67,558,726.67" style="stroke:#181818;stroke-width:1;"/><text fill="#000000" font-family="sans-serif" font-size="13" lengthAdjust="spacing" textLength="50.8511" x="559" y="693.0669">success</text></g><!--link Authenticated to Dashboard--><g class="link" data-entity-1="Authenticated" data-entity-2="Dashboard" data-source-line="54" data-uid="lnk23" id="link_Authenticated_Dashboard"><path d="M558,777.2 C558,808.21 558,855.65 558,886.71" fill="none" id="Authenticated-to-Dashboard" style="stroke:#181818;stroke-width:1;"/><polygon fill="#181818" points="558,892.71,562,883.71,558,887.71,554,883.71,558,892.71" style="stroke:#181818;stroke-width:1;"/></g><!--link Dashboard to ProfileManagement--><g class="link" data-entity-1="Dashboard" data-entity-2="ProfileManagement" data-source-line="55" data-uid="lnk24" id="link_Dashboard_ProfileManagement"><path d="M509.7,918.26 C433.53,919.85 285.88,934.63 205,1020 C96.68,1134.34 101.1561,1338.7357 106.3161,1409.9057" fill="none" id="Dashboard-to-ProfileManagement" style="stroke:#181818;stroke-width:1;"/><polygon fill="#181818" points="106.75,1415.89,110.0887,1406.6243,106.3884,1410.9031,102.1097,1407.2028,106.75,1415.89" style="stroke:#181818;stroke-width:1;"/></g><!--link Dashboard to ImageAnalysisFlow--><g class="link" data-entity-1="Dashboard" data-entity-2="ImageAnalysisFlow" data-source-line="56" data-uid="lnk25" id="link_Dashboard_ImageAnalysisFlow"><path d="M550.31,943.44 C544.69,961.3 538.1203,982.1665 528.1303,1013.9265" fill="none" id="Dashboard-to-ImageAnalysisFlow" style="stroke:#181818;stroke-width:1;"/><polygon fill="#181818" points="526.33,1019.65,532.8462,1012.2649,527.8303,1014.8804,525.2148,1009.8645,526.33,1019.65" style="stroke:#181818;stroke-width:1;"/></g><!--link Dashboard to ResultsHistory--><g class="link" data-entity-1="Dashboard" data-entity-2="ResultsHistory" data-source-line="57" data-uid="lnk26" id="link_Dashboard_ResultsHistory"><path d="M550.42,943.4 C552.27,963.8 559.81,993.7 565.5,1020 C597.9,1169.74 627.0122,1345.5563 646.9322,1410.1663" fill="none" id="Dashboard-to-ResultsHistory" style="stroke:#181818;stroke-width:1;"/><polygon fill="#181818" points="648.7,1415.9,649.8708,1406.121,647.2269,1411.1219,642.2259,1408.478,648.7,1415.9" style="stroke:#181818;stroke-width:1;"/></g><!--link ResultsHistory to Dashboard--><g class="link" data-entity-1="ResultsHistory" data-entity-2="Dashboard" data-source-line="62" data-uid="lnk31" id="link_ResultsHistory_Dashboard"><path d="M665.33,1415.9 C663.78,1351.29 632.9,1169.74 600.5,1020 C594.81,993.7 589.6351,969.3142 580.8851,948.9142" fill="none" id="ResultsHistory-to-Dashboard" style="stroke:#181818;stroke-width:1;"/><polygon fill="#181818" points="578.52,943.4,578.3916,953.248,580.491,947.9951,585.7438,950.0945,578.52,943.4" style="stroke:#181818;stroke-width:1;"/></g><!--link ProfileManagement to ProfileEditing--><g class="link" data-entity-1="ProfileManagement" data-entity-2="ProfileEditing" data-source-line="58" data-uid="lnk27" id="link_ProfileManagement_ProfileEditing"><path d="M108.47,1466.52 C106.61,1551.95 100.5205,1831.3714 98.6605,1916.8914" fill="none" id="ProfileManagement-to-ProfileEditing" style="stroke:#181818;stroke-width:1;"/><polygon fill="#181818" points="98.53,1922.89,102.7248,1913.9791,98.6387,1917.8912,94.7266,1913.8052,98.53,1922.89" style="stroke:#181818;stroke-width:1;"/></g><!--link ProfileEditing to ProfileSaving--><g class="link" data-entity-1="ProfileEditing" data-entity-2="ProfileSaving" data-source-line="59" data-uid="lnk28" id="link_ProfileEditing_ProfileSaving"><path d="M96.67,1973.57 C96.64,1987.58 97.89,2005.33 103,2020.3 C106.57,2030.75 109.2306,2036.2006 115.4206,2045.0106" fill="none" id="ProfileEditing-to-ProfileSaving" style="stroke:#181818;stroke-width:1;"/><polygon fill="#181818" points="118.87,2049.92,116.9689,2040.2564,115.9955,2045.8289,110.423,2044.8555,118.87,2049.92" style="stroke:#181818;stroke-width:1;"/></g><!--link ProfileSaving to ProfileEditing--><g class="link" data-entity-1="ProfileSaving" data-entity-2="ProfileEditing" data-source-line="61" data-uid="lnk30" id="link_ProfileSaving_ProfileEditing"><path d="M131.02,2049.96 C123.8,2027.96 115.1017,2001.4206 107.8717,1979.4006" fill="none" id="ProfileSaving-to-ProfileEditing" style="stroke:#181818;stroke-width:1;"/><polygon fill="#181818" points="106,1973.7,105.0072,1983.4987,107.5598,1978.4505,112.608,1981.0031,106,1973.7" style="stroke:#181818;stroke-width:1;"/><text fill="#000000" font-family="sans-serif" font-size="13" lengthAdjust="spacing" textLength="41.3486" x="121.95" y="2016.3669">failure</text></g><!--link ProfileSaving to ProfileManagement--><g class="link" data-entity-1="ProfileSaving" data-entity-2="ProfileManagement" data-source-line="60" data-uid="lnk29" id="link_ProfileSaving_ProfileManagement"><path d="M157.86,2049.83 C163.56,2041.01 169.08,2030.66 172,2020.3 C183.68,1978.8 174.8,1966.32 172,1923.3 C160.52,1747.18 126.6711,1543.0007 114.3711,1472.4907" fill="none" id="ProfileSaving-to-ProfileManagement" style="stroke:#181818;stroke-width:1;"/><polygon fill="#181818" points="113.34,1466.58,110.9461,1476.1335,114.1992,1471.5056,118.8271,1474.7587,113.34,1466.58" style="stroke:#181818;stroke-width:1;"/><text fill="#000000" font-family="sans-serif" font-size="13" lengthAdjust="spacing" textLength="50.8511" x="178.5" y="1952.8669">success</text></g><!--link *start* to AppInitialized--><g class="link" data-entity-1=".start." data-entity-2="AppInitialized" data-source-line="65" data-uid="lnk33" id="link_.start._AppInitialized"><path d="M716,26.36 C716,40.29 716,60.96 716,80.65" fill="none" id="*start*-to-AppInitialized" style="stroke:#181818;stroke-width:1;"/><polygon fill="#181818" points="716,86.65,720,77.65,716,81.65,712,77.65,716,86.65" style="stroke:#181818;stroke-width:1;"/></g><!--link AppInitialized to AuthenticationFlow--><g class="link" data-entity-1="AppInitialized" data-entity-2="AuthenticationFlow" data-source-line="66" data-uid="lnk34" id="link_AppInitialized_AuthenticationFlow"><path d="M716,137.44 C716,147.6675 716,160.2231 716,173.3417 C716,176.6214 716,179.9362 716,183.2586 C716,184.9199 716,186.583 716,188.2446 C716,189.0753 716,189.9057 716,190.7353 C716,191.1501 716,185.5647 716,185.979" fill="none" id="AppInitialized-to-AuthenticationFlow" style="stroke:#181818;stroke-width:1;"/><polygon fill="#181818" points="716,191.979,720,182.979,716,186.979,712,182.979,716,191.979" style="stroke:#181818;stroke-width:1;"/></g><!--link AuthenticationFlow to MainApplication--><g class="link" data-entity-1="AuthenticationFlow" data-entity-2="MainApplication" data-source-line="67" data-uid="lnk35" id="link_AuthenticationFlow_MainApplication"><path d="M724.0252,282.1773 C724.1262,282.4666 724.2277,282.7583 724.3297,283.0523 C724.7378,284.2285 725.1538,285.4425 725.5762,286.6921 C727.2656,291.6905 729.0563,297.2584 730.84,303.2488 C737.975,327.21 745,357.93 745,386 C745,386 745,386 745,753 C745,770.9375 745,789.9788 745,808.4942 C745,817.752 745,826.8782 745,835.6694 C745,840.065 745,844.3768 745,848.5793 C745,848.842 745,843.1042 745,843.366" fill="none" id="AuthenticationFlow-to-MainApplication" style="stroke:#181818;stroke-width:1;"/><polygon fill="#181818" points="745,849.366,749,840.366,745,844.366,741,840.366,745,849.366" style="stroke:#181818;stroke-width:1;"/></g><!--link MainApplication to *end*--><g class="link" data-entity-1="MainApplication" data-entity-2=".end." data-source-line="68" data-uid="lnk37" id="link_MainApplication_.end."><path d="M753.1011,1017.207 C753.346,1020.1755 753.5947,1023.1907 753.8471,1026.2497 C754.8565,1038.4856 755.9237,1051.4215 757.0329,1064.8666 C759.2513,1091.7567 761.6378,1120.6831 764.0663,1150.1175 C773.78,1267.855 783.6717,1387.7403 786.6567,1423.9203" fill="none" id="MainApplication-to-*end*" style="stroke:#181818;stroke-width:1;"/><polygon fill="#181818" points="787.15,1429.9,790.3964,1420.6016,786.7389,1424.9169,782.4235,1421.2594,787.15,1429.9" style="stroke:#181818;stroke-width:1;"/><text fill="#000000" font-family="sans-serif" font-size="13" lengthAdjust="spacing" textLength="41.1074" x="751.33" y="986.0669">logout</text></g><!--SRC=[ZLLDJyCm3BttL-ICn1_O0MbY392OX9XsGXn25xg8BAcI53GG_vsaxHhRIH4xJ9lzdZ_YvyHvxWLRjkszbbvo9R_4ldA3iVC7eRsikPT6hvNvPDyL2v_1VNqGzRlKJOG1yqxpn0knakV1D5AlZJq2svDefFF24ZDChPi27bkNMSR-2rR8BY-lQ6rimRHXthmBNSOl2VeZdCyU46YyoC5TbX1PpnE59WsrXAokUprAtoCX5SNAa2HAgHlNrRLmRWwUgbgmDovLPmMguJzXAHRLdyB-LAFaDbpge4KrQWxfRSNTuTLm2oNrQCsRL6B3DM_4CLG1VFV7O5jghavEEg3U6KJ9jnLArB6GadFNAiFtPo4IPoWi7aBktJpC97mIhbF-LcXX9nK3XO-a6skDBJ9NqhMAdp9VQ-mvQjx8usgTPvn-eFFfvpTpAjYSaDCHHLdqRXR7XNa9DF7IwGLYr_kHhFxYfZ8cQfGPw8-cYDJ2M99fb2wQ3n5wWO16HdPes0qSC2MXeqJM4JSpLkheqSKfG-DCxf-AYipTXVKrzfIluCrUagjwT6pvnzbERvenCLxiwTzGUd71CIPRz0AcK7uM6YQ4xM0JH87UaALSEf7CBEESY5wxi0DoSE42VRvu6MI7dtByDtjWXdUzAZpr_LRWwxYYrtF4nBmBfanZElyB]--></g></svg>