<svg xmlns="http://www.w3.org/2000/svg" xmlns:xlink="http://www.w3.org/1999/xlink" contentStyleType="text/css" data-diagram-type="ACTIVITY" height="573px" preserveAspectRatio="none" style="width:454px;height:573px;background:#FFFFFF;" version="1.1" viewBox="0 0 454 573" width="454px" zoomAndPan="magnify"><defs/><g><ellipse cx="178.9832" cy="20" fill="#222222" rx="10" ry="10" style="stroke:#222222;stroke-width:1;"/><polygon fill="#F1F1F1" points="134.6367,50,223.3296,50,235.3296,62,223.3296,74,134.6367,74,122.6367,62,134.6367,50" style="stroke:#181818;stroke-width:0.5;"/><text fill="#000000" font-family="sans-serif" font-size="11" lengthAdjust="spacing" textLength="88.6929" x="134.6367" y="65.8081">User Logged In?</text><text fill="#000000" font-family="sans-serif" font-size="11" lengthAdjust="spacing" textLength="13.7017" x="108.9351" y="59.4058">no</text><text fill="#000000" font-family="sans-serif" font-size="11" lengthAdjust="spacing" textLength="19.0083" x="235.3296" y="59.4058">yes</text><rect fill="#F1F1F1" height="33.9688" rx="12.5" ry="12.5" style="stroke:#181818;stroke-width:0.5;" width="128.3574" x="11" y="84"/><text fill="#000000" font-family="sans-serif" font-size="12" lengthAdjust="spacing" textLength="108.3574" x="21" y="105.1387">Authenticate User</text><rect fill="#F1F1F1" height="33.9688" rx="12.5" ry="12.5" style="stroke:#181818;stroke-width:0.5;" width="103.4434" x="231.0659" y="84"/><text fill="#000000" font-family="sans-serif" font-size="12" lengthAdjust="spacing" textLength="83.4434" x="241.0659" y="105.1387">Upload Image</text><polygon fill="#F1F1F1" points="247.2148,137.9688,318.3604,137.9688,330.3604,149.9688,318.3604,161.9688,247.2148,161.9688,235.2148,149.9688,247.2148,137.9688" style="stroke:#181818;stroke-width:0.5;"/><text fill="#000000" font-family="sans-serif" font-size="11" lengthAdjust="spacing" textLength="71.1455" x="247.2148" y="153.7769">Valid Image?</text><text fill="#000000" font-family="sans-serif" font-size="11" lengthAdjust="spacing" textLength="13.7017" x="221.5132" y="147.3745">no</text><text fill="#000000" font-family="sans-serif" font-size="11" lengthAdjust="spacing" textLength="19.0083" x="330.3604" y="147.3745">yes</text><rect fill="#F1F1F1" height="33.9688" rx="12.5" ry="12.5" style="stroke:#181818;stroke-width:0.5;" width="85.918" x="169.3574" y="171.9688"/><text fill="#000000" font-family="sans-serif" font-size="12" lengthAdjust="spacing" textLength="65.918" x="179.3574" y="193.1074">Show Error</text><rect fill="#F1F1F1" height="33.9688" rx="12.5" ry="12.5" style="stroke:#181818;stroke-width:0.5;" width="155.9668" x="275.2754" y="171.9688"/><text fill="#000000" font-family="sans-serif" font-size="12" lengthAdjust="spacing" textLength="135.9668" x="285.2754" y="193.1074">Process with ML Model</text><rect fill="#F1F1F1" height="33.9688" rx="12.5" ry="12.5" style="stroke:#181818;stroke-width:0.5;" width="134.2871" x="286.1152" y="225.9375"/><text fill="#000000" font-family="sans-serif" font-size="12" lengthAdjust="spacing" textLength="114.2871" x="296.1152" y="247.0762">Save Results to DB</text><rect fill="#F1F1F1" height="33.9688" rx="12.5" ry="12.5" style="stroke:#181818;stroke-width:0.5;" width="111.916" x="297.3008" y="279.9063"/><text fill="#000000" font-family="sans-serif" font-size="12" lengthAdjust="spacing" textLength="91.916" x="307.3008" y="301.0449">Display Results</text><rect fill="#F1F1F1" height="33.9688" rx="12.5" ry="12.5" style="stroke:#181818;stroke-width:0.5;" width="131.4629" x="287.5273" y="382.2773"/><text fill="#000000" font-family="sans-serif" font-size="12" lengthAdjust="spacing" textLength="111.4629" x="297.5273" y="403.416">Create PDF Report</text><polygon fill="#F1F1F1" points="304.4248,333.875,402.0928,333.875,414.0928,345.875,402.0928,357.875,304.4248,357.875,292.4248,345.875,304.4248,333.875" style="stroke:#181818;stroke-width:0.5;"/><text fill="#000000" font-family="sans-serif" font-size="11" lengthAdjust="spacing" textLength="19.0083" x="357.2588" y="368.0854">yes</text><text fill="#000000" font-family="sans-serif" font-size="11" lengthAdjust="spacing" textLength="97.668" x="304.4248" y="349.6831">Generate Report?</text><polygon fill="#F1F1F1" points="353.2588,436.2461,365.2588,448.2461,353.2588,460.2461,341.2588,448.2461,353.2588,436.2461" style="stroke:#181818;stroke-width:0.5;"/><polygon fill="#F1F1F1" points="282.7876,466.2461,294.7876,478.2461,282.7876,490.2461,270.7876,478.2461,282.7876,466.2461" style="stroke:#181818;stroke-width:0.5;"/><polygon fill="#F1F1F1" points="178.9832,496.2461,190.9832,508.2461,178.9832,520.2461,166.9832,508.2461,178.9832,496.2461" style="stroke:#181818;stroke-width:0.5;"/><ellipse cx="178.9832" cy="551.2461" fill="none" rx="11" ry="11" style="stroke:#222222;stroke-width:1;"/><ellipse cx="178.9832" cy="551.2461" fill="#222222" rx="6" ry="6" style="stroke:#222222;stroke-width:1;"/><line style="stroke:#181818;stroke-width:1;" x1="353.2588" x2="353.2588" y1="205.9375" y2="225.9375"/><polygon fill="#181818" points="349.2588,215.9375,353.2588,225.9375,357.2588,215.9375,353.2588,219.9375" style="stroke:#181818;stroke-width:1;"/><line style="stroke:#181818;stroke-width:1;" x1="353.2588" x2="353.2588" y1="259.9063" y2="279.9063"/><polygon fill="#181818" points="349.2588,269.9063,353.2588,279.9063,357.2588,269.9063,353.2588,273.9063" style="stroke:#181818;stroke-width:1;"/><line style="stroke:#181818;stroke-width:1;" x1="353.2588" x2="353.2588" y1="357.875" y2="382.2773"/><polygon fill="#181818" points="349.2588,372.2773,353.2588,382.2773,357.2588,372.2773,353.2588,376.2773" style="stroke:#181818;stroke-width:1;"/><line style="stroke:#181818;stroke-width:1;" x1="414.0928" x2="428.9902" y1="345.875" y2="345.875"/><polygon fill="#181818" points="424.9902,389.2617,428.9902,399.2617,432.9902,389.2617,428.9902,393.2617" style="stroke:#181818;stroke-width:1;"/><line style="stroke:#181818;stroke-width:1;" x1="428.9902" x2="428.9902" y1="345.875" y2="448.2461"/><line style="stroke:#181818;stroke-width:1;" x1="428.9902" x2="365.2588" y1="448.2461" y2="448.2461"/><polygon fill="#181818" points="375.2588,444.2461,365.2588,448.2461,375.2588,452.2461,371.2588,448.2461" style="stroke:#181818;stroke-width:1;"/><line style="stroke:#181818;stroke-width:1;" x1="353.2588" x2="353.2588" y1="416.2461" y2="436.2461"/><polygon fill="#181818" points="349.2588,426.2461,353.2588,436.2461,357.2588,426.2461,353.2588,430.2461" style="stroke:#181818;stroke-width:1;"/><line style="stroke:#181818;stroke-width:1;" x1="353.2588" x2="353.2588" y1="313.875" y2="333.875"/><polygon fill="#181818" points="349.2588,323.875,353.2588,333.875,357.2588,323.875,353.2588,327.875" style="stroke:#181818;stroke-width:1;"/><line style="stroke:#181818;stroke-width:1;" x1="235.2148" x2="212.3164" y1="149.9688" y2="149.9688"/><line style="stroke:#181818;stroke-width:1;" x1="212.3164" x2="212.3164" y1="149.9688" y2="171.9688"/><polygon fill="#181818" points="208.3164,161.9688,212.3164,171.9688,216.3164,161.9688,212.3164,165.9688" style="stroke:#181818;stroke-width:1;"/><line style="stroke:#181818;stroke-width:1;" x1="330.3604" x2="353.2588" y1="149.9688" y2="149.9688"/><line style="stroke:#181818;stroke-width:1;" x1="353.2588" x2="353.2588" y1="149.9688" y2="171.9688"/><polygon fill="#181818" points="349.2588,161.9688,353.2588,171.9688,357.2588,161.9688,353.2588,165.9688" style="stroke:#181818;stroke-width:1;"/><line style="stroke:#181818;stroke-width:1;" x1="212.3164" x2="212.3164" y1="205.9375" y2="478.2461"/><line style="stroke:#181818;stroke-width:1;" x1="212.3164" x2="270.7876" y1="478.2461" y2="478.2461"/><polygon fill="#181818" points="260.7876,474.2461,270.7876,478.2461,260.7876,482.2461,264.7876,478.2461" style="stroke:#181818;stroke-width:1;"/><line style="stroke:#181818;stroke-width:1;" x1="353.2588" x2="353.2588" y1="460.2461" y2="478.2461"/><line style="stroke:#181818;stroke-width:1;" x1="353.2588" x2="294.7876" y1="478.2461" y2="478.2461"/><polygon fill="#181818" points="304.7876,474.2461,294.7876,478.2461,304.7876,482.2461,300.7876,478.2461" style="stroke:#181818;stroke-width:1;"/><line style="stroke:#181818;stroke-width:1;" x1="282.7876" x2="282.7876" y1="117.9688" y2="137.9688"/><polygon fill="#181818" points="278.7876,127.9688,282.7876,137.9688,286.7876,127.9688,282.7876,131.9688" style="stroke:#181818;stroke-width:1;"/><line style="stroke:#181818;stroke-width:1;" x1="122.6367" x2="75.1787" y1="62" y2="62"/><line style="stroke:#181818;stroke-width:1;" x1="75.1787" x2="75.1787" y1="62" y2="84"/><polygon fill="#181818" points="71.1787,74,75.1787,84,79.1787,74,75.1787,78" style="stroke:#181818;stroke-width:1;"/><line style="stroke:#181818;stroke-width:1;" x1="235.3296" x2="282.7876" y1="62" y2="62"/><line style="stroke:#181818;stroke-width:1;" x1="282.7876" x2="282.7876" y1="62" y2="84"/><polygon fill="#181818" points="278.7876,74,282.7876,84,286.7876,74,282.7876,78" style="stroke:#181818;stroke-width:1;"/><line style="stroke:#181818;stroke-width:1;" x1="75.1787" x2="75.1787" y1="117.9688" y2="508.2461"/><line style="stroke:#181818;stroke-width:1;" x1="75.1787" x2="166.9832" y1="508.2461" y2="508.2461"/><polygon fill="#181818" points="156.9832,504.2461,166.9832,508.2461,156.9832,512.2461,160.9832,508.2461" style="stroke:#181818;stroke-width:1;"/><line style="stroke:#181818;stroke-width:1;" x1="282.7876" x2="282.7876" y1="490.2461" y2="508.2461"/><line style="stroke:#181818;stroke-width:1;" x1="282.7876" x2="190.9832" y1="508.2461" y2="508.2461"/><polygon fill="#181818" points="200.9832,504.2461,190.9832,508.2461,200.9832,512.2461,196.9832,508.2461" style="stroke:#181818;stroke-width:1;"/><line style="stroke:#181818;stroke-width:1;" x1="178.9832" x2="178.9832" y1="30" y2="50"/><polygon fill="#181818" points="174.9832,40,178.9832,50,182.9832,40,178.9832,44" style="stroke:#181818;stroke-width:1;"/><line style="stroke:#181818;stroke-width:1;" x1="178.9832" x2="178.9832" y1="520.2461" y2="540.2461"/><polygon fill="#181818" points="174.9832,530.2461,178.9832,540.2461,182.9832,530.2461,178.9832,534.2461" style="stroke:#181818;stroke-width:1;"/><!--SRC=[PO_BRi8m44Nt-OfPXbze5XKGMbKA4gAYUujS4al64yqCHVmzE0J2mmlBkeypOpKdblaTvHk5KCLDWvf-ukU4h4MaFF8aeylvc1wIO7xh39J2HOQWeFm47IARBh2xjFUkGT5B2VpdWX_4DsfV-stvI0iHbclf1TjdLi9RgDBHMqlBYfPS8nGF3FSFMaCFmPICgPmzcANNBhZJpH-TjDut8YJzQOsEnUuhFitlCND1ogtAho4xWX1hlyl6r_LMu-uC]--></g></svg>