<svg xmlns="http://www.w3.org/2000/svg" xmlns:xlink="http://www.w3.org/1999/xlink" contentStyleType="text/css" data-diagram-type="CLASS" height="686px" preserveAspectRatio="none" style="width:355px;height:686px;background:#FFFFFF;" version="1.1" viewBox="0 0 355 686" width="355px" zoomAndPan="magnify"><defs/><g><!--class User--><g class="entity" data-entity="User" data-source-line="1" data-uid="ent0002" id="entity_User"><rect fill="#F1F1F1" height="210.9688" rx="2.5" ry="2.5" style="stroke:#181818;stroke-width:0.5;" width="165.5215" x="146.9" y="7"/><ellipse cx="209.4557" cy="23" fill="#ADD1B2" rx="11" ry="11" style="stroke:#181818;stroke-width:1;"/><path d="M212.4244,28.6406 Q211.8463,28.9375 211.2057,29.0781 Q210.565,29.2344 209.8619,29.2344 Q207.3619,29.2344 206.0338,27.5938 Q204.7213,25.9375 204.7213,22.8125 Q204.7213,19.6875 206.0338,18.0313 Q207.3619,16.375 209.8619,16.375 Q210.565,16.375 211.2057,16.5313 Q211.8619,16.6875 212.4244,16.9844 L212.4244,19.7031 Q211.7994,19.125 211.2057,18.8594 Q210.6119,18.5781 209.9869,18.5781 Q208.6432,18.5781 207.9557,19.6563 Q207.2682,20.7188 207.2682,22.8125 Q207.2682,24.9063 207.9557,25.9844 Q208.6432,27.0469 209.9869,27.0469 Q210.6119,27.0469 211.2057,26.7813 Q211.7994,26.5 212.4244,25.9219 L212.4244,28.6406 Z " fill="#000000"/><text fill="#000000" font-family="sans-serif" font-size="14" lengthAdjust="spacing" textLength="31.9102" x="229.9557" y="27.8467">User</text><line style="stroke:#181818;stroke-width:0.5;" x1="147.9" x2="311.4215" y1="39" y2="39"/><ellipse cx="157.9" cy="52.6484" fill="none" rx="3" ry="3" style="stroke:#038048;stroke-width:1;"/><text fill="#000000" font-family="sans-serif" font-size="14" lengthAdjust="spacing" textLength="59.0078" x="166.9" y="55.9951">String id</text><ellipse cx="157.9" cy="68.9453" fill="none" rx="3" ry="3" style="stroke:#038048;stroke-width:1;"/><text fill="#000000" font-family="sans-serif" font-size="14" lengthAdjust="spacing" textLength="84.8408" x="166.9" y="72.292">String email</text><ellipse cx="157.9" cy="85.2422" fill="none" rx="3" ry="3" style="stroke:#038048;stroke-width:1;"/><text fill="#000000" font-family="sans-serif" font-size="14" lengthAdjust="spacing" textLength="112.9434" x="166.9" y="88.5889">String password</text><ellipse cx="157.9" cy="101.5391" fill="none" rx="3" ry="3" style="stroke:#038048;stroke-width:1;"/><text fill="#000000" font-family="sans-serif" font-size="14" lengthAdjust="spacing" textLength="114.8916" x="166.9" y="104.8857">String firstName</text><ellipse cx="157.9" cy="117.8359" fill="none" rx="3" ry="3" style="stroke:#038048;stroke-width:1;"/><text fill="#000000" font-family="sans-serif" font-size="14" lengthAdjust="spacing" textLength="112.7861" x="166.9" y="121.1826">String lastName</text><ellipse cx="157.9" cy="134.1328" fill="none" rx="3" ry="3" style="stroke:#038048;stroke-width:1;"/><text fill="#000000" font-family="sans-serif" font-size="14" lengthAdjust="spacing" textLength="139.5215" x="166.9" y="137.4795">String profilePicture</text><ellipse cx="157.9" cy="150.4297" fill="none" rx="3" ry="3" style="stroke:#038048;stroke-width:1;"/><text fill="#000000" font-family="sans-serif" font-size="14" lengthAdjust="spacing" textLength="106.6133" x="166.9" y="153.7764">Date createdAt</text><line style="stroke:#181818;stroke-width:0.5;" x1="147.9" x2="311.4215" y1="161.0781" y2="161.0781"/><ellipse cx="157.9" cy="174.7266" fill="#84BE84" rx="3" ry="3" style="stroke:#038048;stroke-width:1;"/><text fill="#000000" font-family="sans-serif" font-size="14" lengthAdjust="spacing" textLength="45.0283" x="166.9" y="178.0732">login()</text><ellipse cx="157.9" cy="191.0234" fill="#84BE84" rx="3" ry="3" style="stroke:#038048;stroke-width:1;"/><text fill="#000000" font-family="sans-serif" font-size="14" lengthAdjust="spacing" textLength="65.2217" x="166.9" y="194.3701">register()</text><ellipse cx="157.9" cy="207.3203" fill="#84BE84" rx="3" ry="3" style="stroke:#038048;stroke-width:1;"/><text fill="#000000" font-family="sans-serif" font-size="14" lengthAdjust="spacing" textLength="104.3369" x="166.9" y="210.667">updateProfile()</text></g><!--class Result--><g class="entity" data-entity="Result" data-source-line="14" data-uid="ent0003" id="entity_Result"><rect fill="#F1F1F1" height="194.6719" rx="2.5" ry="2.5" style="stroke:#181818;stroke-width:0.5;" width="163.3271" x="7" y="294.97"/><ellipse cx="62.4702" cy="310.97" fill="#ADD1B2" rx="11" ry="11" style="stroke:#181818;stroke-width:1;"/><path d="M65.439,316.6106 Q64.8608,316.9075 64.2202,317.0481 Q63.5796,317.2044 62.8765,317.2044 Q60.3765,317.2044 59.0483,315.5638 Q57.7358,313.9075 57.7358,310.7825 Q57.7358,307.6575 59.0483,306.0013 Q60.3765,304.345 62.8765,304.345 Q63.5796,304.345 64.2202,304.5013 Q64.8765,304.6575 65.439,304.9544 L65.439,307.6731 Q64.814,307.095 64.2202,306.8294 Q63.6265,306.5481 63.0015,306.5481 Q61.6577,306.5481 60.9702,307.6263 Q60.2827,308.6888 60.2827,310.7825 Q60.2827,312.8763 60.9702,313.9544 Q61.6577,315.0169 63.0015,315.0169 Q63.6265,315.0169 64.2202,314.7513 Q64.814,314.47 65.439,313.8919 L65.439,316.6106 Z " fill="#000000"/><text fill="#000000" font-family="sans-serif" font-size="14" lengthAdjust="spacing" textLength="43.8867" x="82.9702" y="315.8167">Result</text><line style="stroke:#181818;stroke-width:0.5;" x1="8" x2="169.3271" y1="326.97" y2="326.97"/><ellipse cx="18" cy="340.6184" fill="none" rx="3" ry="3" style="stroke:#038048;stroke-width:1;"/><text fill="#000000" font-family="sans-serif" font-size="14" lengthAdjust="spacing" textLength="59.0078" x="27" y="343.9651">String id</text><ellipse cx="18" cy="356.9153" fill="none" rx="3" ry="3" style="stroke:#038048;stroke-width:1;"/><text fill="#000000" font-family="sans-serif" font-size="14" lengthAdjust="spacing" textLength="89.7832" x="27" y="360.262">String userId</text><ellipse cx="18" cy="373.2122" fill="none" rx="3" ry="3" style="stroke:#038048;stroke-width:1;"/><text fill="#000000" font-family="sans-serif" font-size="14" lengthAdjust="spacing" textLength="121.2217" x="27" y="376.5589">String imagePath</text><ellipse cx="18" cy="389.5091" fill="none" rx="3" ry="3" style="stroke:#038048;stroke-width:1;"/><text fill="#000000" font-family="sans-serif" font-size="14" lengthAdjust="spacing" textLength="116.7783" x="27" y="392.8557">String prediction</text><ellipse cx="18" cy="405.8059" fill="none" rx="3" ry="3" style="stroke:#038048;stroke-width:1;"/><text fill="#000000" font-family="sans-serif" font-size="14" lengthAdjust="spacing" textLength="137.3271" x="27" y="409.1526">Number confidence</text><ellipse cx="18" cy="422.1028" fill="none" rx="3" ry="3" style="stroke:#038048;stroke-width:1;"/><text fill="#000000" font-family="sans-serif" font-size="14" lengthAdjust="spacing" textLength="116.0332" x="27" y="425.4495">Date analyzedAt</text><ellipse cx="18" cy="438.3997" fill="none" rx="3" ry="3" style="stroke:#038048;stroke-width:1;"/><text fill="#000000" font-family="sans-serif" font-size="14" lengthAdjust="spacing" textLength="127.8867" x="27" y="441.7464">Object predictions</text><line style="stroke:#181818;stroke-width:0.5;" x1="8" x2="169.3271" y1="449.0481" y2="449.0481"/><ellipse cx="18" cy="462.6966" fill="#84BE84" rx="3" ry="3" style="stroke:#038048;stroke-width:1;"/><text fill="#000000" font-family="sans-serif" font-size="14" lengthAdjust="spacing" textLength="108.9375" x="27" y="466.0432">analyzeImage()</text><ellipse cx="18" cy="478.9934" fill="#84BE84" rx="3" ry="3" style="stroke:#038048;stroke-width:1;"/><text fill="#000000" font-family="sans-serif" font-size="14" lengthAdjust="spacing" textLength="121.3857" x="27" y="482.3401">generateReport()</text></g><!--class MLModel--><g class="entity" data-entity="MLModel" data-source-line="26" data-uid="ent0004" id="entity_MLModel"><rect fill="#F1F1F1" height="113.1875" rx="2.5" ry="2.5" style="stroke:#181818;stroke-width:0.5;" width="158.1318" x="9.6" y="566.64"/><ellipse cx="53.4984" cy="582.64" fill="#ADD1B2" rx="11" ry="11" style="stroke:#181818;stroke-width:1;"/><path d="M56.4672,588.2806 Q55.8891,588.5775 55.2484,588.7181 Q54.6078,588.8744 53.9047,588.8744 Q51.4047,588.8744 50.0766,587.2338 Q48.7641,585.5775 48.7641,582.4525 Q48.7641,579.3275 50.0766,577.6713 Q51.4047,576.015 53.9047,576.015 Q54.6078,576.015 55.2484,576.1713 Q55.9047,576.3275 56.4672,576.6244 L56.4672,579.3431 Q55.8422,578.765 55.2484,578.4994 Q54.6547,578.2181 54.0297,578.2181 Q52.6859,578.2181 51.9984,579.2963 Q51.3109,580.3588 51.3109,582.4525 Q51.3109,584.5463 51.9984,585.6244 Q52.6859,586.6869 54.0297,586.6869 Q54.6547,586.6869 55.2484,586.4213 Q55.8422,586.14 56.4672,585.5619 L56.4672,588.2806 Z " fill="#000000"/><text fill="#000000" font-family="sans-serif" font-size="14" lengthAdjust="spacing" textLength="61.9131" x="73.9203" y="587.4867">MLModel</text><line style="stroke:#181818;stroke-width:0.5;" x1="10.6" x2="166.7318" y1="598.64" y2="598.64"/><ellipse cx="20.6" cy="612.2884" fill="none" rx="3" ry="3" style="stroke:#038048;stroke-width:1;"/><text fill="#000000" font-family="sans-serif" font-size="14" lengthAdjust="spacing" textLength="121.208" x="29.6" y="615.6351">String modelPath</text><ellipse cx="20.6" cy="628.5853" fill="none" rx="3" ry="3" style="stroke:#038048;stroke-width:1;"/><text fill="#000000" font-family="sans-serif" font-size="14" lengthAdjust="spacing" textLength="122.2197" x="29.6" y="631.932">Array classLabels</text><line style="stroke:#181818;stroke-width:0.5;" x1="10.6" x2="166.7318" y1="639.2338" y2="639.2338"/><ellipse cx="20.6" cy="652.8822" fill="#84BE84" rx="3" ry="3" style="stroke:#038048;stroke-width:1;"/><text fill="#000000" font-family="sans-serif" font-size="14" lengthAdjust="spacing" textLength="103.9883" x="29.6" y="656.2289">predictImage()</text><ellipse cx="20.6" cy="669.1791" fill="#84BE84" rx="3" ry="3" style="stroke:#038048;stroke-width:1;"/><text fill="#000000" font-family="sans-serif" font-size="14" lengthAdjust="spacing" textLength="132.1318" x="29.6" y="672.5257">preprocessImage()</text></g><!--class AuthService--><g class="entity" data-entity="AuthService" data-source-line="33" data-uid="ent0005" id="entity_AuthService"><rect fill="#F1F1F1" height="96.8906" rx="2.5" ry="2.5" style="stroke:#181818;stroke-width:0.5;" width="143.0586" x="205.13" y="343.86"/><ellipse cx="232.0572" cy="359.86" fill="#ADD1B2" rx="11" ry="11" style="stroke:#181818;stroke-width:1;"/><path d="M235.0259,365.5006 Q234.4478,365.7975 233.8072,365.9381 Q233.1666,366.0944 232.4634,366.0944 Q229.9634,366.0944 228.6353,364.4538 Q227.3228,362.7975 227.3228,359.6725 Q227.3228,356.5475 228.6353,354.8913 Q229.9634,353.235 232.4634,353.235 Q233.1666,353.235 233.8072,353.3913 Q234.4634,353.5475 235.0259,353.8444 L235.0259,356.5631 Q234.4009,355.985 233.8072,355.7194 Q233.2134,355.4381 232.5884,355.4381 Q231.2447,355.4381 230.5572,356.5163 Q229.8697,357.5788 229.8697,359.6725 Q229.8697,361.7663 230.5572,362.8444 Q231.2447,363.9069 232.5884,363.9069 Q233.2134,363.9069 233.8072,363.6413 Q234.4009,363.36 235.0259,362.7819 L235.0259,365.5006 Z " fill="#000000"/><text fill="#000000" font-family="sans-serif" font-size="14" lengthAdjust="spacing" textLength="84.5537" x="248.7077" y="364.7067">AuthService</text><line style="stroke:#181818;stroke-width:0.5;" x1="206.13" x2="347.1886" y1="375.86" y2="375.86"/><line style="stroke:#181818;stroke-width:0.5;" x1="206.13" x2="347.1886" y1="383.86" y2="383.86"/><ellipse cx="216.13" cy="397.5084" fill="#84BE84" rx="3" ry="3" style="stroke:#038048;stroke-width:1;"/><text fill="#000000" font-family="sans-serif" font-size="14" lengthAdjust="spacing" textLength="117.0586" x="225.13" y="400.8551">generateToken()</text><ellipse cx="216.13" cy="413.8053" fill="#84BE84" rx="3" ry="3" style="stroke:#038048;stroke-width:1;"/><text fill="#000000" font-family="sans-serif" font-size="14" lengthAdjust="spacing" textLength="93.3926" x="225.13" y="417.152">verifyToken()</text><ellipse cx="216.13" cy="430.1022" fill="#84BE84" rx="3" ry="3" style="stroke:#038048;stroke-width:1;"/><text fill="#000000" font-family="sans-serif" font-size="14" lengthAdjust="spacing" textLength="110.8105" x="225.13" y="433.4489">hashPassword()</text></g><!--link User to Result--><g class="link" data-entity-1="User" data-entity-2="Result" data-source-line="39" data-uid="lnk6" id="link_User_Result"><path codeLine="39" d="M172.938,225.2531 C160.208,250.3231 158.4459,253.8087 145.9159,278.4987" fill="none" id="User-Result" style="stroke:#181818;stroke-width:1;"/><line style="stroke:#181818;stroke-width:1;" x1="171.1824" x2="178.3155" y1="219.8755" y2="223.4976"/><line style="stroke:#181818;stroke-width:1;" x1="169.8242" x2="176.9573" y1="222.5504" y2="226.1725"/><line style="stroke:#181818;stroke-width:1;" x1="172.938" x2="176.56" y1="225.2531" y2="218.12"/><line style="stroke:#181818;stroke-width:1;" x1="141.3904" x2="143.1204" y1="287.4161" y2="297.2653"/><line style="stroke:#181818;stroke-width:1;" x1="141.3904" x2="132.4196" y1="287.4161" y2="291.8347"/><line style="stroke:#181818;stroke-width:1;" x1="141.3904" x2="137.77" y1="287.4161" y2="294.55"/><ellipse cx="144.1057" cy="282.0657" fill="none" rx="4" ry="4" style="stroke:#181818;stroke-width:1;"/><text fill="#000000" font-family="sans-serif" font-size="13" lengthAdjust="spacing" textLength="22.9785" x="160.16" y="261.0369">has</text></g><!--link Result to MLModel--><g class="link" data-entity-1="Result" data-entity-2="MLModel" data-source-line="40" data-uid="lnk7" id="link_Result_MLModel"><path codeLine="40" d="M88.66,490.06 C88.66,516.05 88.66,537.3 88.66,560.25" fill="none" id="Result-to-MLModel" style="stroke:#181818;stroke-width:1;"/><polygon fill="#181818" points="88.66,566.25,92.66,557.25,88.66,561.25,84.66,557.25,88.66,566.25" style="stroke:#181818;stroke-width:1;"/><text fill="#000000" font-family="sans-serif" font-size="13" lengthAdjust="spacing" textLength="29.7832" x="89.66" y="532.7069">uses</text></g><!--link User to AuthService--><g class="link" data-entity-1="User" data-entity-2="AuthService" data-source-line="41" data-uid="lnk8" id="link_User_AuthService"><path codeLine="41" d="M247.37,218.12 C254.65,261.19 261.7283,303.0342 267.5583,337.4642" fill="none" id="User-to-AuthService" style="stroke:#181818;stroke-width:1;"/><polygon fill="#181818" points="268.56,343.38,271.0013,333.8385,267.7252,338.4502,263.1136,335.1741,268.56,343.38" style="stroke:#181818;stroke-width:1;"/><text fill="#000000" font-family="sans-serif" font-size="13" lengthAdjust="spacing" textLength="89.4702" x="255.57" y="261.0369">authenticates</text></g><!--SRC=[VP91ReCm44NtdCBBLXKNoA8IKZUHaXGbxG6C6M1QOwEnIKMJthr330bEfR91ypoU_xzjfQLpujq1YLCY-7iwU49J2ooZ4bg9EY8TR_oo5BTLICxlP0iHPOs_i2DReOOSbUzfMdgH7eGYu5-P-S2qhT4yF8Q2e4RdWUQwxqhkpSCeXZz9eYw9zk1wxV_Fr7FgTOombJNaqZTtLg5acsXDmBk-BVZ0b3KLbc3KqhqqKW_VD_klnGSelnZX0f_wrgFWdAO60yH3zj1PyiiusytMbg3lyhGZkxdDYEGWBXisiW0zAKtIaH8pFdy5pituAfNrlZa07L71B3VxUhEVSBsA8n1MGuGQwPfyUXPXvELXdSzfQa_pbQm4joLJaQRFrsohyK9Ss3BofP6La5o1yQZOX_i5]--></g></svg>