<svg xmlns="http://www.w3.org/2000/svg" xmlns:xlink="http://www.w3.org/1999/xlink" contentStyleType="text/css" data-diagram-type="SEQUENCE" height="366px" preserveAspectRatio="none" style="width:651px;height:366px;background:#FFFFFF;" version="1.1" viewBox="0 0 651 366" width="651px" zoomAndPan="magnify"><defs/><g><g><title>User</title><rect fill="#000000" fill-opacity="0.00000" height="295.1953" width="8" x="23.9551" y="36.2969"/><line style="stroke:#181818;stroke-width:0.5;stroke-dasharray:5,5;" x1="27" x2="27" y1="36.2969" y2="331.4922"/></g><g><title>Frontend</title><rect fill="#000000" fill-opacity="0.00000" height="295.1953" width="8" x="209.9346" y="36.2969"/><line style="stroke:#181818;stroke-width:0.5;stroke-dasharray:5,5;" x1="213.3799" x2="213.3799" y1="36.2969" y2="331.4922"/></g><g><title>Backend</title><rect fill="#000000" fill-opacity="0.00000" height="295.1953" width="8" x="345.1963" y="36.2969"/><line style="stroke:#181818;stroke-width:0.5;stroke-dasharray:5,5;" x1="349.0156" x2="349.0156" y1="36.2969" y2="331.4922"/></g><g><title>MLModel</title><rect fill="#000000" fill-opacity="0.00000" height="295.1953" width="8" x="512.4731" y="36.2969"/><line style="stroke:#181818;stroke-width:0.5;stroke-dasharray:5,5;" x1="515.5166" x2="515.5166" y1="36.2969" y2="331.4922"/></g><g><title>Database</title><rect fill="#000000" fill-opacity="0.00000" height="295.1953" width="8" x="600.8301" y="36.2969"/><line style="stroke:#181818;stroke-width:0.5;stroke-dasharray:5,5;" x1="604.4297" x2="604.4297" y1="36.2969" y2="331.4922"/></g><g class="participant participant-head" data-participant="User"><rect fill="#E2E2F0" height="30.2969" rx="2.5" ry="2.5" style="stroke:#181818;stroke-width:0.5;" width="45.9102" x="5" y="5"/><text fill="#000000" font-family="sans-serif" font-size="14" lengthAdjust="spacing" textLength="31.9102" x="12" y="24.9951">User</text></g><g class="participant participant-tail" data-participant="User"><rect fill="#E2E2F0" height="30.2969" rx="2.5" ry="2.5" style="stroke:#181818;stroke-width:0.5;" width="45.9102" x="5" y="330.4922"/><text fill="#000000" font-family="sans-serif" font-size="14" lengthAdjust="spacing" textLength="31.9102" x="12" y="350.4873">User</text></g><g class="participant participant-head" data-participant="Frontend"><rect fill="#E2E2F0" height="30.2969" rx="2.5" ry="2.5" style="stroke:#181818;stroke-width:0.5;" width="77.1094" x="175.3799" y="5"/><text fill="#000000" font-family="sans-serif" font-size="14" lengthAdjust="spacing" textLength="63.1094" x="182.3799" y="24.9951">Frontend</text></g><g class="participant participant-tail" data-participant="Frontend"><rect fill="#E2E2F0" height="30.2969" rx="2.5" ry="2.5" style="stroke:#181818;stroke-width:0.5;" width="77.1094" x="175.3799" y="330.4922"/><text fill="#000000" font-family="sans-serif" font-size="14" lengthAdjust="spacing" textLength="63.1094" x="182.3799" y="350.4873">Frontend</text></g><g class="participant participant-head" data-participant="Backend"><rect fill="#E2E2F0" height="30.2969" rx="2.5" ry="2.5" style="stroke:#181818;stroke-width:0.5;" width="74.3613" x="312.0156" y="5"/><text fill="#000000" font-family="sans-serif" font-size="14" lengthAdjust="spacing" textLength="60.3613" x="319.0156" y="24.9951">Backend</text></g><g class="participant participant-tail" data-participant="Backend"><rect fill="#E2E2F0" height="30.2969" rx="2.5" ry="2.5" style="stroke:#181818;stroke-width:0.5;" width="74.3613" x="312.0156" y="330.4922"/><text fill="#000000" font-family="sans-serif" font-size="14" lengthAdjust="spacing" textLength="60.3613" x="319.0156" y="350.4873">Backend</text></g><g class="participant participant-head" data-participant="MLModel"><rect fill="#E2E2F0" height="30.2969" rx="2.5" ry="2.5" style="stroke:#181818;stroke-width:0.5;" width="75.9131" x="478.5166" y="5"/><text fill="#000000" font-family="sans-serif" font-size="14" lengthAdjust="spacing" textLength="61.9131" x="485.5166" y="24.9951">MLModel</text></g><g class="participant participant-tail" data-participant="MLModel"><rect fill="#E2E2F0" height="30.2969" rx="2.5" ry="2.5" style="stroke:#181818;stroke-width:0.5;" width="75.9131" x="478.5166" y="330.4922"/><text fill="#000000" font-family="sans-serif" font-size="14" lengthAdjust="spacing" textLength="61.9131" x="485.5166" y="350.4873">MLModel</text></g><g class="participant participant-head" data-participant="Database"><rect fill="#E2E2F0" height="30.2969" rx="2.5" ry="2.5" style="stroke:#181818;stroke-width:0.5;" width="80.8008" x="564.4297" y="5"/><text fill="#000000" font-family="sans-serif" font-size="14" lengthAdjust="spacing" textLength="66.8008" x="571.4297" y="24.9951">Database</text></g><g class="participant participant-tail" data-participant="Database"><rect fill="#E2E2F0" height="30.2969" rx="2.5" ry="2.5" style="stroke:#181818;stroke-width:0.5;" width="80.8008" x="564.4297" y="330.4922"/><text fill="#000000" font-family="sans-serif" font-size="14" lengthAdjust="spacing" textLength="66.8008" x="571.4297" y="350.4873">Database</text></g><g class="message" data-participant-1="User" data-participant-2="Frontend"><polygon fill="#181818" points="201.9346,63.4297,211.9346,67.4297,201.9346,71.4297,205.9346,67.4297" style="stroke:#181818;stroke-width:1;"/><line style="stroke:#181818;stroke-width:1;" x1="27.9551" x2="207.9346" y1="67.4297" y2="67.4297"/><text fill="#000000" font-family="sans-serif" font-size="13" lengthAdjust="spacing" textLength="161.9795" x="34.9551" y="62.3638">Upload brain scan image</text></g><g class="message" data-participant-1="Frontend" data-participant-2="Backend"><polygon fill="#181818" points="337.1963,92.5625,347.1963,96.5625,337.1963,100.5625,341.1963,96.5625" style="stroke:#181818;stroke-width:1;"/><line style="stroke:#181818;stroke-width:1;" x1="213.9346" x2="343.1963" y1="96.5625" y2="96.5625"/><text fill="#000000" font-family="sans-serif" font-size="13" lengthAdjust="spacing" textLength="111.2617" x="220.9346" y="91.4966">POST /api/upload</text></g><g class="message" data-participant-1="Backend" data-participant-2="Backend"><line style="stroke:#181818;stroke-width:1;" x1="349.1963" x2="391.1963" y1="125.6953" y2="125.6953"/><line style="stroke:#181818;stroke-width:1;" x1="391.1963" x2="391.1963" y1="125.6953" y2="138.6953"/><line style="stroke:#181818;stroke-width:1;" x1="350.1963" x2="391.1963" y1="138.6953" y2="138.6953"/><polygon fill="#181818" points="360.1963,134.6953,350.1963,138.6953,360.1963,142.6953,356.1963,138.6953" style="stroke:#181818;stroke-width:1;"/><text fill="#000000" font-family="sans-serif" font-size="13" lengthAdjust="spacing" textLength="153.2769" x="356.1963" y="120.6294">Save image to uploads/</text></g><g class="message" data-participant-1="Backend" data-participant-2="MLModel"><polygon fill="#181818" points="504.4731,163.8281,514.4731,167.8281,504.4731,171.8281,508.4731,167.8281" style="stroke:#181818;stroke-width:1;"/><line style="stroke:#181818;stroke-width:1;" x1="349.1963" x2="510.4731" y1="167.8281" y2="167.8281"/><text fill="#000000" font-family="sans-serif" font-size="13" lengthAdjust="spacing" textLength="95.8496" x="356.1963" y="162.7622">Analyze image</text></g><g class="message" data-participant-1="MLModel" data-participant-2="Backend"><polygon fill="#181818" points="360.1963,192.9609,350.1963,196.9609,360.1963,200.9609,356.1963,196.9609" style="stroke:#181818;stroke-width:1;"/><line style="stroke:#181818;stroke-width:1;" x1="354.1963" x2="515.4731" y1="196.9609" y2="196.9609"/><text fill="#000000" font-family="sans-serif" font-size="13" lengthAdjust="spacing" textLength="120.3643" x="366.1963" y="191.895">Return predictions</text></g><g class="message" data-participant-1="Backend" data-participant-2="Database"><polygon fill="#181818" points="592.8301,222.0938,602.8301,226.0938,592.8301,230.0938,596.8301,226.0938" style="stroke:#181818;stroke-width:1;"/><line style="stroke:#181818;stroke-width:1;" x1="349.1963" x2="598.8301" y1="226.0938" y2="226.0938"/><text fill="#000000" font-family="sans-serif" font-size="13" lengthAdjust="spacing" textLength="73.106" x="356.1963" y="221.0278">Save result</text></g><g class="message" data-participant-1="Database" data-participant-2="Backend"><polygon fill="#181818" points="360.1963,251.2266,350.1963,255.2266,360.1963,259.2266,356.1963,255.2266" style="stroke:#181818;stroke-width:1;"/><line style="stroke:#181818;stroke-width:1;" x1="354.1963" x2="603.8301" y1="255.2266" y2="255.2266"/><text fill="#000000" font-family="sans-serif" font-size="13" lengthAdjust="spacing" textLength="84.335" x="366.1963" y="250.1606">Confirmation</text></g><g class="message" data-participant-1="Backend" data-participant-2="Frontend"><polygon fill="#181818" points="224.9346,280.3594,214.9346,284.3594,224.9346,288.3594,220.9346,284.3594" style="stroke:#181818;stroke-width:1;"/><line style="stroke:#181818;stroke-width:1;" x1="218.9346" x2="348.1963" y1="284.3594" y2="284.3594"/><text fill="#000000" font-family="sans-serif" font-size="13" lengthAdjust="spacing" textLength="101.5308" x="230.9346" y="279.2935">Analysis results</text></g><g class="message" data-participant-1="Frontend" data-participant-2="User"><polygon fill="#181818" points="38.9551,309.4922,28.9551,313.4922,38.9551,317.4922,34.9551,313.4922" style="stroke:#181818;stroke-width:1;"/><line style="stroke:#181818;stroke-width:1;" x1="32.9551" x2="212.9346" y1="313.4922" y2="313.4922"/><text fill="#000000" font-family="sans-serif" font-size="13" lengthAdjust="spacing" textLength="95.8877" x="44.9551" y="308.4263">Display results</text></g><!--SRC=[NP0n3i8m34NtdC8NGDqx804L4mX4uG2cDSWYE56S8i7fKKiA3UlFoxFzFOR83NkK22UbOFmaM0SdaQJDmYKsj_zikzcwbcoMLHZnZ4h6z5wOpR-w4axUEcpX7905j441lkELp4ZqT9fJmdvN7w50pqKtV3Ff9ODgVD170j711zHYYgOTIrW8skShqIR5cUn0iGi2Fb3BJMGdEXMDXwMXWRIpqOnf9bevkN2uO- -OAdvD3CieQz9eLa5VN0aLgxVu78at]--></g></svg>