<svg xmlns="http://www.w3.org/2000/svg" xmlns:xlink="http://www.w3.org/1999/xlink" contentStyleType="text/css" data-diagram-type="STATE" height="778px" preserveAspectRatio="none" style="width:286px;height:778px;background:#FFFFFF;" version="1.1" viewBox="0 0 286 778" width="286px" zoomAndPan="magnify"><defs/><g><ellipse cx="190.66" cy="16" fill="#222222" rx="10" ry="10" style="stroke:#222222;stroke-width:1;"/><g id="Unauthenticated"><rect fill="#F1F1F1" height="50" rx="12.5" ry="12.5" style="stroke:#181818;stroke-width:0.5;" width="137.0654" x="122.12" y="87"/><line style="stroke:#181818;stroke-width:0.5;" x1="122.12" x2="259.1854" y1="113.2969" y2="113.2969"/><text fill="#000000" font-family="sans-serif" font-size="14" lengthAdjust="spacing" textLength="117.0654" x="132.12" y="104.9951">Unauthenticated</text></g><g id="Authenticated"><rect fill="#F1F1F1" height="50" rx="12.5" ry="12.5" style="stroke:#181818;stroke-width:0.5;" width="118.9434" x="131.18" y="214"/><line style="stroke:#181818;stroke-width:0.5;" x1="131.18" x2="250.1234" y1="240.2969" y2="240.2969"/><text fill="#000000" font-family="sans-serif" font-size="14" lengthAdjust="spacing" textLength="98.9434" x="141.18" y="231.9951">Authenticated</text></g><g id="ImageUpload"><rect fill="#F1F1F1" height="50" rx="12.5" ry="12.5" style="stroke:#181818;stroke-width:0.5;" width="112.9004" x="69.21" y="341"/><line style="stroke:#181818;stroke-width:0.5;" x1="69.21" x2="182.1104" y1="367.2969" y2="367.2969"/><text fill="#000000" font-family="sans-serif" font-size="14" lengthAdjust="spacing" textLength="92.9004" x="79.21" y="358.9951">ImageUpload</text></g><g id="Processing"><rect fill="#F1F1F1" height="50" rx="12.5" ry="12.5" style="stroke:#181818;stroke-width:0.5;" width="95.3115" x="7" y="468"/><line style="stroke:#181818;stroke-width:0.5;" x1="7" x2="102.3115" y1="494.2969" y2="494.2969"/><text fill="#000000" font-family="sans-serif" font-size="14" lengthAdjust="spacing" textLength="75.3115" x="17" y="485.9951">Processing</text></g><g id="ResultDisplay"><rect fill="#F1F1F1" height="50" rx="12.5" ry="12.5" style="stroke:#181818;stroke-width:0.5;" width="115.4912" x="55.91" y="595"/><line style="stroke:#181818;stroke-width:0.5;" x1="55.91" x2="171.4012" y1="621.2969" y2="621.2969"/><text fill="#000000" font-family="sans-serif" font-size="14" lengthAdjust="spacing" textLength="95.4912" x="65.91" y="612.9951">ResultDisplay</text></g><g id="ReportGeneration"><rect fill="#F1F1F1" height="50" rx="12.5" ry="12.5" style="stroke:#181818;stroke-width:0.5;" width="145.1387" x="41.09" y="722"/><line style="stroke:#181818;stroke-width:0.5;" x1="41.09" x2="186.2287" y1="748.2969" y2="748.2969"/><text fill="#000000" font-family="sans-serif" font-size="14" lengthAdjust="spacing" textLength="125.1387" x="51.09" y="739.9951">ReportGeneration</text></g><ellipse cx="255.66" cy="366" fill="none" rx="11" ry="11" style="stroke:#222222;stroke-width:1;"/><ellipse cx="255.66" cy="366" fill="#222222" rx="6" ry="6" style="stroke:#222222;stroke-width:1;"/><!--link *start* to Unauthenticated--><g class="link" data-entity-1=".start." data-entity-2="Unauthenticated" data-source-line="1" data-uid="lnk4" id="link_.start._Unauthenticated"><path d="M190.66,26.36 C190.66,40.29 190.66,60.95 190.66,80.65" fill="none" id="*start*-to-Unauthenticated" style="stroke:#181818;stroke-width:1;"/><polygon fill="#181818" points="190.66,86.65,194.66,77.65,190.66,81.65,186.66,77.65,190.66,86.65" style="stroke:#181818;stroke-width:1;"/></g><!--link Unauthenticated to Authenticated--><g class="link" data-entity-1="Unauthenticated" data-entity-2="Authenticated" data-source-line="2" data-uid="lnk6" id="link_Unauthenticated_Authenticated"><path d="M190.66,137.4 C190.66,159.42 190.66,185.66 190.66,207.66" fill="none" id="Unauthenticated-to-Authenticated" style="stroke:#181818;stroke-width:1;"/><polygon fill="#181818" points="190.66,213.66,194.66,204.66,190.66,208.66,186.66,204.66,190.66,213.66" style="stroke:#181818;stroke-width:1;"/><text fill="#000000" font-family="sans-serif" font-size="13" lengthAdjust="spacing" textLength="86.4678" x="191.66" y="180.0669">login/register</text></g><!--link Authenticated to ImageUpload--><g class="link" data-entity-1="Authenticated" data-entity-2="ImageUpload" data-source-line="3" data-uid="lnk8" id="link_Authenticated_ImageUpload"><path d="M147.98,264.37 C137.82,272.4 128.29,282.33 122.66,294 C115.68,308.44 115.5027,320.6239 118.0627,334.9239" fill="none" id="Authenticated-to-ImageUpload" style="stroke:#181818;stroke-width:1;"/><polygon fill="#181818" points="119.12,340.83,121.4714,331.266,118.2389,335.9082,113.5966,332.6757,119.12,340.83" style="stroke:#181818;stroke-width:1;"/><text fill="#000000" font-family="sans-serif" font-size="13" lengthAdjust="spacing" textLength="88.8989" x="123.66" y="307.0669">upload image</text></g><!--link ImageUpload to Processing--><g class="link" data-entity-1="ImageUpload" data-entity-2="Processing" data-source-line="4" data-uid="lnk10" id="link_ImageUpload_Processing"><path d="M111.8,391.4 C99.29,413.42 83.9441,440.4433 71.4441,462.4433" fill="none" id="ImageUpload-to-Processing" style="stroke:#181818;stroke-width:1;"/><polygon fill="#181818" points="68.48,467.66,76.4039,461.8109,70.95,463.3127,69.4483,457.8589,68.48,467.66" style="stroke:#181818;stroke-width:1;"/><text fill="#000000" font-family="sans-serif" font-size="13" lengthAdjust="spacing" textLength="44.6367" x="95.41" y="434.0669">submit</text></g><!--link Processing to ResultDisplay--><g class="link" data-entity-1="Processing" data-entity-2="ResultDisplay" data-source-line="5" data-uid="lnk12" id="link_Processing_ResultDisplay"><path d="M41.81,518.39 C36.16,532.6 32.29,550.51 39.66,565 C45.71,576.91 50.9306,583.2596 61.7006,591.1996" fill="none" id="Processing-to-ResultDisplay" style="stroke:#181818;stroke-width:1;"/><polygon fill="#181818" points="66.53,594.76,61.6595,586.1998,62.5055,591.793,56.9122,592.639,66.53,594.76" style="stroke:#181818;stroke-width:1;"/><text fill="#000000" font-family="sans-serif" font-size="13" lengthAdjust="spacing" textLength="117.4888" x="40.66" y="561.0669">analysis complete</text></g><!--link ResultDisplay to ImageUpload--><g class="link" data-entity-1="ResultDisplay" data-entity-2="ImageUpload" data-source-line="6" data-uid="lnk13" id="link_ResultDisplay_ImageUpload"><path d="M142.8,594.56 C150.79,586.11 158.42,575.98 162.66,565 C185.77,505.14 159.3367,434.769 141.0367,396.649" fill="none" id="ResultDisplay-to-ImageUpload" style="stroke:#181818;stroke-width:1;"/><polygon fill="#181818" points="138.44,391.24,138.729,401.0846,140.6039,395.7475,145.941,397.6224,138.44,391.24" style="stroke:#181818;stroke-width:1;"/><text fill="#000000" font-family="sans-serif" font-size="13" lengthAdjust="spacing" textLength="83.6367" x="172.21" y="497.5669">new analysis</text></g><!--link ResultDisplay to ReportGeneration--><g class="link" data-entity-1="ResultDisplay" data-entity-2="ReportGeneration" data-source-line="7" data-uid="lnk15" id="link_ResultDisplay_ReportGeneration"><path d="M65.51,645.41 C54.75,653.3 44.73,663.15 38.66,675 C29.26,693.35 38.4423,706.2199 56.9123,718.4899" fill="none" id="ResultDisplay-to-ReportGeneration" style="stroke:#181818;stroke-width:1;"/><polygon fill="#181818" points="61.91,721.81,56.6268,713.4981,57.7452,719.0433,52.2001,720.1617,61.91,721.81" style="stroke:#181818;stroke-width:1;"/><text fill="#000000" font-family="sans-serif" font-size="13" lengthAdjust="spacing" textLength="103.0161" x="39.66" y="688.0669">generate report</text></g><!--link ReportGeneration to ResultDisplay--><g class="link" data-entity-1="ReportGeneration" data-entity-2="ResultDisplay" data-source-line="8" data-uid="lnk16" id="link_ReportGeneration_ResultDisplay"><path d="M133.08,721.6 C138.96,712.79 144.65,702.43 147.66,692 C152.35,675.72 147.9511,663.4721 138.6311,650.1021" fill="none" id="ReportGeneration-to-ResultDisplay" style="stroke:#181818;stroke-width:1;"/><polygon fill="#181818" points="135.2,645.18,137.0653,654.8506,138.0593,649.2818,143.6281,650.2758,135.2,645.18" style="stroke:#181818;stroke-width:1;"/><text fill="#000000" font-family="sans-serif" font-size="13" lengthAdjust="spacing" textLength="111.2681" x="150.06" y="688.0669">report generated</text></g><!--link Authenticated to *end*--><g class="link" data-entity-1="Authenticated" data-entity-2=".end." data-source-line="9" data-uid="lnk18" id="link_Authenticated_.end."><path d="M203.34,264.4 C217.83,292.25 238.0327,331.0963 248.0027,350.2763" fill="none" id="Authenticated-to-*end*" style="stroke:#181818;stroke-width:1;"/><polygon fill="#181818" points="250.77,355.6,250.1681,345.7695,248.4639,351.1636,243.0699,349.4593,250.77,355.6" style="stroke:#181818;stroke-width:1;"/><text fill="#000000" font-family="sans-serif" font-size="13" lengthAdjust="spacing" textLength="41.1074" x="228.05" y="307.0669">logout</text></g><!--SRC=[RP312eCm44Jl-OgS2z9x3mMXK7ehWYVfOQjBkX0tacme_dqJ1T7gRMVc3IpJd5wwAAwwPeZoGHPgGR1JVtfYoerpqTOPuhD7Gq7Ggt9NUFHWi1wiWup7-Q1igdMKqQTtBOP0R18PuhidKIil8nM6QEL6OR0m9WeOx1WewDRrWqL1jINs7p1-bzO1NE7WlDoHqOEGuzGmiq3jfqpjaAF7PdRfTWVBD6dsQK0NvGS0]--></g></svg>