<svg xmlns="http://www.w3.org/2000/svg" xmlns:xlink="http://www.w3.org/1999/xlink" contentStyleType="text/css" data-diagram-type="DESCRIPTION" height="697px" preserveAspectRatio="none" style="width:897px;height:697px;background:#FFFFFF;" version="1.1" viewBox="0 0 897 697" width="897px" zoomAndPan="magnify"><defs/><g><!--cluster Brain Tumor Detection System--><g class="cluster" data-entity="Brain Tumor Detection System" data-source-line="6" data-uid="ent0003" id="cluster_Brain Tumor Detection System"><rect fill="none" height="427" rx="2.5" ry="2.5" style="stroke:#181818;stroke-width:1;" width="752.65" x="139" y="76.22"/><text fill="#000000" font-family="sans-serif" font-size="14" font-weight="bold" lengthAdjust="spacing" textLength="242.0332" x="394.3084" y="91.2151">Brain Tumor Detection System</text></g><!--entity UC1--><g class="entity" data-entity="UC1" data-source-line="7" data-uid="ent0004" id="entity_UC1"><ellipse cx="243.3154" cy="268.2231" fill="#F1F1F1" rx="75.3154" ry="17.4631" style="stroke:#181818;stroke-width:0.5;"/><text fill="#000000" font-family="sans-serif" font-size="14" lengthAdjust="spacing" textLength="119.4922" x="183.5693" y="272.8715">Register Account</text></g><!--entity UC2--><g class="entity" data-entity="UC2" data-source-line="8" data-uid="ent0005" id="entity_UC2"><ellipse cx="243.3189" cy="403.2158" fill="#F1F1F1" rx="72.7289" ry="16.9458" style="stroke:#181818;stroke-width:0.5;"/><text fill="#000000" font-family="sans-serif" font-size="14" lengthAdjust="spacing" textLength="113.1758" x="186.731" y="407.8642">Login to System</text></g><!--entity UC3--><g class="entity" data-entity="UC3" data-source-line="9" data-uid="ent0006" id="entity_UC3"><ellipse cx="533.8005" cy="452.2221" fill="#F1F1F1" rx="79.1605" ry="18.2321" style="stroke:#181818;stroke-width:0.5;"/><text fill="#000000" font-family="sans-serif" font-size="14" lengthAdjust="spacing" textLength="128.6934" x="469.4538" y="456.8705">Upload Brain Scan</text></g><!--entity UC4--><g class="entity" data-entity="UC4" data-source-line="10" data-uid="ent0007" id="entity_UC4"><ellipse cx="806.7984" cy="462.2197" fill="#F1F1F1" rx="68.8484" ry="16.1697" style="stroke:#181818;stroke-width:0.5;"/><text fill="#000000" font-family="sans-serif" font-size="14" lengthAdjust="spacing" textLength="103.4619" x="755.0675" y="466.8681">Analyze Image</text></g><!--entity UC5--><g class="entity" data-entity="UC5" data-source-line="11" data-uid="ent0008" id="entity_UC5"><ellipse cx="243.3233" cy="336.2187" fill="#F1F1F1" rx="63.3933" ry="15.0787" style="stroke:#181818;stroke-width:0.5;"/><text fill="#000000" font-family="sans-serif" font-size="14" lengthAdjust="spacing" textLength="89.1611" x="198.7428" y="340.8671">View Results</text></g><!--entity UC6--><g class="entity" data-entity="UC6" data-source-line="12" data-uid="ent0009" id="entity_UC6"><ellipse cx="533.7977" cy="180.2175" fill="#F1F1F1" rx="74.2377" ry="17.2475" style="stroke:#181818;stroke-width:0.5;"/><text fill="#000000" font-family="sans-serif" font-size="14" lengthAdjust="spacing" textLength="116.874" x="475.3607" y="184.866">Generate Report</text></g><!--entity UC7--><g class="entity" data-entity="UC7" data-source-line="13" data-uid="ent0010" id="entity_UC7"><ellipse cx="243.3173" cy="471.2235" fill="#F1F1F1" rx="69.1173" ry="16.2235" style="stroke:#181818;stroke-width:0.5;"/><text fill="#000000" font-family="sans-serif" font-size="14" lengthAdjust="spacing" textLength="104.1455" x="191.2445" y="475.8719">Manage Profile</text></g><!--entity UC8--><g class="entity" data-entity="UC8" data-source-line="14" data-uid="ent0011" id="entity_UC8"><ellipse cx="243.3162" cy="131.2232" fill="#F1F1F1" rx="88.3162" ry="20.0632" style="stroke:#181818;stroke-width:0.5;"/><text fill="#000000" font-family="sans-serif" font-size="14" lengthAdjust="spacing" textLength="149.9189" x="168.3567" y="135.8717">View Analysis History</text></g><!--entity UC9--><g class="entity" data-entity="UC9" data-source-line="15" data-uid="ent0012" id="entity_UC9"><ellipse cx="243.3182" cy="201.2236" fill="#F1F1F1" rx="37.0682" ry="14.5236" style="stroke:#181818;stroke-width:0.5;"/><text fill="#000000" font-family="sans-serif" font-size="14" lengthAdjust="spacing" textLength="48.1797" x="219.2283" y="205.8721">Logout</text></g><!--entity User--><g class="entity" data-entity="User" data-source-line="4" data-uid="ent0002" id="entity_User"><ellipse cx="49.0015" cy="306.57" fill="#F1F1F1" rx="8" ry="8" style="stroke:#181818;stroke-width:0.5;"/><path d="M49.0015,314.57 L49.0015,341.57 M36.0015,322.57 L62.0015,322.57 M49.0015,341.57 L36.0015,356.57 M49.0015,341.57 L62.0015,356.57" fill="none" style="stroke:#181818;stroke-width:0.5;"/><text fill="#000000" font-family="sans-serif" font-size="14" lengthAdjust="spacing" textLength="86.0029" x="6" y="371.0651">Patient/User</text></g><!--link User to UC1--><g class="link" data-entity-1="User" data-entity-2="UC1" data-source-line="19" data-uid="lnk13" id="link_User_UC1"><path d="M92.21,318.26 C104.62,313.19 118.29,307.8 131,303.22 C151.97,295.67 169.7337,289.9091 189.7237,283.7791" fill="none" id="User-to-UC1" style="stroke:#181818;stroke-width:1;"/><polygon fill="#181818" points="195.46,282.02,185.6828,280.8344,190.6797,283.4859,188.0282,288.4828,195.46,282.02" style="stroke:#181818;stroke-width:1;"/></g><!--link User to UC2--><g class="link" data-entity-1="User" data-entity-2="UC2" data-source-line="20" data-uid="lnk14" id="link_User_UC2"><path d="M92.18,354.25 C104.6,359.33 118.27,364.69 131,369.22 C152.04,376.7 169.9079,382.353 189.9579,388.303" fill="none" id="User-to-UC2" style="stroke:#181818;stroke-width:1;"/><polygon fill="#181818" points="195.71,390.01,188.2199,383.6148,190.9166,388.5875,185.9439,391.2843,195.71,390.01" style="stroke:#181818;stroke-width:1;"/></g><!--link User to UC3--><g class="link" data-entity-1="User" data-entity-2="UC3" data-source-line="21" data-uid="lnk15" id="link_User_UC3"><path d="M56.29,374.63 C65.18,415.05 85.71,476.7 131,505.22 C250.38,580.39 423.8672,507.9907 495.7972,471.9007" fill="none" id="User-to-UC3" style="stroke:#181818;stroke-width:1;"/><polygon fill="#181818" points="501.16,469.21,491.3219,469.6709,496.691,471.4523,494.9096,476.8213,501.16,469.21" style="stroke:#181818;stroke-width:1;"/></g><!--link User to UC4--><g class="link" data-entity-1="User" data-entity-2="UC4" data-source-line="22" data-uid="lnk16" id="link_User_UC4"><path d="M52.37,374.61 C57.69,423.68 74.98,506.85 131,545.22 C342.57,690.13 675.7346,532.1311 773.3446,480.1311" fill="none" id="User-to-UC4" style="stroke:#181818;stroke-width:1;"/><polygon fill="#181818" points="778.64,477.31,768.8161,478.0113,774.2271,479.6609,772.5775,485.0719,778.64,477.31" style="stroke:#181818;stroke-width:1;"/></g><!--link User to UC5--><g class="link" data-entity-1="User" data-entity-2="UC5" data-source-line="23" data-uid="lnk17" id="link_User_UC5"><path d="M92.21,336.22 C117.86,336.22 145.09,336.22 173.75,336.22" fill="none" id="User-to-UC5" style="stroke:#181818;stroke-width:1;"/><polygon fill="#181818" points="179.75,336.22,170.75,332.22,174.75,336.22,170.75,340.22,179.75,336.22" style="stroke:#181818;stroke-width:1;"/></g><!--link User to UC6--><g class="link" data-entity-1="User" data-entity-2="UC6" data-source-line="24" data-uid="lnk18" id="link_User_UC6"><path d="M49.97,297.99 C52.25,242.27 65.71,140.28 131,93.22 C252.01,6 438.2619,115.8306 504.4019,160.3306" fill="none" id="User-to-UC6" style="stroke:#181818;stroke-width:1;"/><polygon fill="#181818" points="509.38,163.68,504.1457,155.3372,505.2316,160.8889,499.6799,161.9747,509.38,163.68" style="stroke:#181818;stroke-width:1;"/></g><!--link User to UC7--><g class="link" data-entity-1="User" data-entity-2="UC7" data-source-line="25" data-uid="lnk19" id="link_User_UC7"><path d="M72.64,374.62 C86.94,395.83 107.19,421.08 131,437.22 C147.73,448.56 162.5785,454.6622 181.5285,459.7922" fill="none" id="User-to-UC7" style="stroke:#181818;stroke-width:1;"/><polygon fill="#181818" points="187.32,461.36,179.6779,455.1472,182.4937,460.0535,177.5875,462.8693,187.32,461.36" style="stroke:#181818;stroke-width:1;"/></g><!--link User to UC8--><g class="link" data-entity-1="User" data-entity-2="UC8" data-source-line="26" data-uid="lnk20" id="link_User_UC8"><path d="M59.34,297.79 C70.39,260.07 92.38,203.38 131,169.22 C143.7,157.99 154.1949,152.0266 170.2449,146.4266" fill="none" id="User-to-UC8" style="stroke:#181818;stroke-width:1;"/><polygon fill="#181818" points="175.91,144.45,166.0947,143.6382,171.1891,146.0972,168.7301,151.1916,175.91,144.45" style="stroke:#181818;stroke-width:1;"/></g><!--link User to UC9--><g class="link" data-entity-1="User" data-entity-2="UC9" data-source-line="27" data-uid="lnk21" id="link_User_UC9"><path d="M71.88,297.67 C86.12,275.83 106.56,249.66 131,233.22 C153.94,217.79 178.4448,210.7621 201.6848,206.5821" fill="none" id="User-to-UC9" style="stroke:#181818;stroke-width:1;"/><polygon fill="#181818" points="207.59,205.52,198.0241,203.1764,202.669,206.4051,199.4402,211.05,207.59,205.52" style="stroke:#181818;stroke-width:1;"/></g><!--link UC3 to UC4--><g class="link" data-entity-1="UC3" data-entity-2="UC4" data-source-line="31" data-uid="lnk22" id="link_UC3_UC4"><path d="M612.46,455.09 C652.18,456.55 694.0841,458.0986 732.2641,459.5086" fill="none" id="UC3-to-UC4" style="stroke:#181818;stroke-width:1;stroke-dasharray:7,7;"/><polygon fill="#181818" points="738.26,459.73,729.4138,455.4006,733.2634,459.5455,729.1185,463.3951,738.26,459.73" style="stroke:#181818;stroke-width:1;"/><text fill="#000000" font-family="sans-serif" font-size="13" lengthAdjust="spacing" textLength="63.0068" x="643.96" y="452.3969">&#171;include&#187;</text></g><!--link UC5 to UC6--><g class="link" data-entity-1="UC5" data-entity-2="UC6" data-source-line="32" data-uid="lnk23" id="link_UC5_UC6"><path d="M281.5,323.91 C297.25,318.25 315.62,311.06 331.64,303.22 C398.55,270.48 467.0482,225.5081 503.9082,200.2881" fill="none" id="UC5-to-UC6" style="stroke:#181818;stroke-width:1;stroke-dasharray:7,7;"/><polygon fill="#181818" points="508.86,196.9,499.1735,198.6809,504.7335,199.7234,503.691,205.2834,508.86,196.9" style="stroke:#181818;stroke-width:1;"/><text fill="#000000" font-family="sans-serif" font-size="13" lengthAdjust="spacing" textLength="61.1851" x="362.64" y="249.1169">&#171;extend&#187;</text></g><!--link UC2 to UC3--><g class="link" data-entity-1="UC2" data-entity-2="UC3" data-source-line="33" data-uid="lnk24" id="link_UC2_UC3"><path d="M303.04,413.2 C351.23,421.38 413.4248,431.9448 462.9748,440.3648" fill="none" id="UC2-to-UC3" style="stroke:#181818;stroke-width:1;stroke-dasharray:7,7;"/><polygon fill="#181818" points="468.89,441.37,460.6873,435.9188,463.9607,440.5324,459.3471,443.8057,468.89,441.37" style="stroke:#181818;stroke-width:1;"/><text fill="#000000" font-family="sans-serif" font-size="13" lengthAdjust="spacing" textLength="61.1851" x="362.64" y="419.3969">&#171;extend&#187;</text></g><!--SRC=[RP1VIyCm5CNVyoakVT_4TV-KCPWJL50Oc_FzajxLi3GfIOfMyRkRTYaaQ9zoEB-USpcIJWwS1YFATmU5CCITq8hPir0r6goWHdx6aWwkbGITZQgKn1XofmraEtI2bBiwMZ8Pe8NkmLZu2x8xWqB1QrDv-9xS9HuEhNLKPV3Dm7-D9OxMmtigXJSCR3ZNZNANmErrIZthqaVweuUK7fgaqB6M6Wkur1yuge3bARPHADilWgVANnkGQOgy2Vg0FTb6EXk8MKeya2A3ZZnLQpDSFK-X5rJT83kZJq8ELOj_glgJhB3mwBVGfWteyiy8kXcgRXZxOQnR7aQZTRzO92Qno6CnZSKi5lDOB6AnZ8KlzhtR7CRZFWzkORKIYikceFNQExFWp7k7FXsfeZScmSWJunS0]--></g></svg>